<svg width="32" height="32" viewBox="0 0 32 32" fill="none" xmlns="http://www.w3.org/2000/svg">
<g clip-path="url(#clip0_2_3494)">
<path d="M26.6667 0H5.33333C2.392 0 0 2.392 0 5.33333V6.66667C0 7.848 0.516 8.912 1.33333 9.64533V25.3333C1.33333 29.0093 4.324 32 8 32H12C12.736 32 13.3333 31.4027 13.3333 30.6667C13.3333 29.9307 12.736 29.3333 12 29.3333H8C5.79467 29.3333 4 27.5387 4 25.3333V10.6667H28V12C28 12.736 28.5973 13.3333 29.3333 13.3333C30.0693 13.3333 30.6667 12.736 30.6667 12V9.64533C31.484 8.912 32 7.84933 32 6.66667V5.33333C32 2.392 29.608 0 26.6667 0ZM4 8C3.26533 8 2.66667 7.40133 2.66667 6.66667V5.33333C2.66667 3.86267 3.86267 2.66667 5.33333 2.66667H26.6667C28.1373 2.66667 29.3333 3.86267 29.3333 5.33333V6.66667C29.3333 7.40133 28.7347 8 28 8H4ZM22.6667 13.3333C17.52 13.3333 13.3333 17.52 13.3333 22.6667C13.3333 27.8133 17.52 32 22.6667 32C27.8133 32 32 27.8133 32 22.6667C32 17.52 27.8133 13.3333 22.6667 13.3333ZM22.6667 29.3333C18.9907 29.3333 16 26.3427 16 22.6667C16 18.9907 18.9907 16 22.6667 16C26.3427 16 29.3333 18.9907 29.3333 22.6667C29.3333 26.3427 26.3427 29.3333 22.6667 29.3333ZM26.9613 21.0507C27.472 21.5813 27.4547 22.4253 26.9227 22.936L23.9733 25.768C23.3693 26.364 22.5707 26.6627 21.7693 26.6627C20.968 26.6627 20.164 26.364 19.5507 25.764L18.0413 24.288C17.5147 23.772 17.5067 22.928 18.0213 22.4013C18.5387 21.8773 19.3827 21.868 19.908 22.3813L21.4173 23.8587C21.6093 24.0493 21.9213 24.0467 22.1133 23.8587L25.0773 21.0133C25.608 20.5027 26.452 20.52 26.9627 21.052L26.9613 21.0507Z" fill="white"/>
</g>
<defs>
<clipPath id="clip0_2_3494">
<rect width="32" height="32" fill="white"/>
</clipPath>
</defs>
</svg>
