<svg width="32" height="32" viewBox="0 0 32 32" fill="none" xmlns="http://www.w3.org/2000/svg">
<path d="M16.0003 5.43265C16.7363 5.43265 17.3337 4.83532 17.3337 4.09932V2.66732C17.3337 1.93132 16.7363 1.33398 16.0003 1.33398C15.2643 1.33398 14.667 1.93132 14.667 2.66732V4.09932C14.667 4.83532 15.2643 5.43265 16.0003 5.43265Z" fill="#F2790F"/>
<path d="M19.8778 5.6544C20.2204 5.6544 20.5618 5.52373 20.8218 5.2624L21.8298 4.2504C22.3498 3.72773 22.3471 2.88507 21.8258 2.36507C21.3031 1.84507 20.4604 1.84773 19.9404 2.36907L18.9324 3.38107C18.4124 3.90373 18.4151 4.7464 18.9364 5.2664C19.1964 5.52507 19.5364 5.6544 19.8778 5.6544Z" fill="#F2790F"/>
<path d="M11.1778 5.26178C11.4378 5.52311 11.7804 5.65378 12.1218 5.65378C12.4618 5.65378 12.8018 5.52445 13.0631 5.26445C13.5844 4.74445 13.5871 3.90178 13.0671 3.37911L12.0591 2.36711C11.5404 1.84578 10.6964 1.84311 10.1738 2.36311C9.65242 2.88311 9.64975 3.72578 10.1698 4.24845L11.1778 5.26045V5.26178Z" fill="#F2790F"/>
<path d="M29.836 28.0547C29.732 27.3267 29.052 26.8227 28.328 26.924L25.8413 27.28L25.3653 23.8253C27.9853 22.88 29.8053 20.3253 29.7613 17.3973L29.424 8.49067C29.4093 8.10267 29.2253 7.74 28.9213 7.49733C28.6946 7.31733 26.5493 5.74267 21.6186 6.448C18.7426 6.85867 16.9906 7.75867 16 8.47867C15.0093 7.75867 13.2573 6.85867 10.3813 6.448C5.45062 5.73867 3.30662 7.31467 3.07862 7.49733C2.77462 7.74 2.59062 8.10267 2.57595 8.49067L2.23862 17.4267C2.19462 20.3293 4.01462 22.8813 6.63462 23.8253L6.15862 27.28L3.67195 26.924C2.94929 26.8173 2.26662 27.3253 2.16395 28.0547C2.05995 28.784 2.56529 29.4587 3.29462 29.5627C3.29462 29.5627 10.8346 30.6667 11.112 30.6667C11.764 30.6667 12.3346 30.1867 12.4293 29.5227C12.5333 28.7933 12.028 28.1187 11.2986 28.0147L8.79862 27.6573L9.27329 24.2053C12.0773 24.0467 14.476 22.1227 15.2386 19.2373L15.9986 16.0373L16.7666 19.2693C17.5226 22.1267 19.92 24.0467 22.724 24.204L23.1986 27.656L20.6986 28.0133C19.9693 28.1173 19.464 28.792 19.568 29.5213C19.6626 30.1867 20.2333 30.6653 20.8853 30.6653C21.112 30.6653 28.7026 29.5613 28.7026 29.5613C29.432 29.4573 29.9373 28.7827 29.8333 28.0533L29.836 28.0547ZM21.996 9.08667C24.556 8.72133 26.0826 9.092 26.788 9.36L26.908 12.5253H17.9066L17.4746 10.708C18.088 10.2387 19.452 9.45067 21.996 9.08667ZM10.004 9.08667C12.5586 9.452 13.924 10.2453 14.5266 10.704L14.0946 12.524H5.09195L5.21195 9.36267C5.93062 9.088 7.45595 8.72267 10.004 9.08667ZM8.30662 21.5067C6.33595 21.2253 4.87462 19.488 4.90395 17.496L4.99062 15.192H13.46L12.6533 18.588C12.1306 20.564 10.2973 21.7867 8.30662 21.5067ZM19.3546 18.62L18.54 15.192H27.0093L27.096 17.4667C27.1266 19.4893 25.664 21.2253 23.6946 21.508C21.7066 21.7907 19.8706 20.5653 19.356 18.6213L19.3546 18.62Z" fill="#F2790F"/>
</svg>
