<svg width="40" height="40" viewBox="0 0 40 40" fill="none" xmlns="http://www.w3.org/2000/svg">
<g clip-path="url(#clip0_2_3539)">
<path d="M31.7534 11.11C32.68 11.8533 33.985 11.8533 34.9117 11.11C36.8834 9.53 39.9984 5.99167 39.9984 3.33333C39.9984 1.49167 38.5067 0 36.665 0C34.8234 0 33.3317 1.49167 33.3317 3.33333C33.3317 1.49167 31.84 0 29.9984 0C28.1567 0 26.665 1.49167 26.665 3.33333C26.665 5.99167 29.7834 9.53 31.7534 11.11Z" fill="black"/>
<path d="M35.6034 15.12C34.8901 15.04 34.1267 15 33.3334 15C28.6084 15 24.7234 19.585 23.9934 20.5033C23.1117 20.2066 21.9484 20 20.8334 20C18.4217 20.0533 16.3101 20.6433 14.6534 21.3333C15.1634 18.77 15.0967 16.3533 15.0384 14.4C15.0034 13.33 14.9734 12.305 15.0551 11.545L18.8717 10.33C19.5634 10.11 20.0317 9.4683 20.0317 8.74163V8.27496L21.3484 7.79496C22.1401 7.47996 22.7767 6.84829 23.1017 6.05996C23.4201 5.27829 23.4134 4.42663 23.0767 3.66163C22.0917 1.41329 19.5751 -0.0400391 16.6667 -0.0400391C13.6251 -0.0400391 11.2951 1.93829 11.1284 2.09163C1.1584 9.7583 -0.00660156 20.0183 -0.0166016 27.0683C-0.0166016 29.3233 0.911732 31.505 2.53173 33.0516C5.2484 35.6466 11.1284 40 19.9984 40C27.8051 40 33.2734 37.9616 36.4884 36.25C38.6534 35.0966 39.9984 32.845 39.9984 30.3733V20.0866C39.9984 17.5366 38.1101 15.4 35.6034 15.12ZM36.6667 30.3733C36.6667 31.61 35.9984 32.735 34.9217 33.3083C32.0434 34.84 27.1184 36.6666 20.0001 36.6666C12.2934 36.6666 7.19006 32.8916 4.8334 30.6416C3.8534 29.7066 3.31506 28.4383 3.31673 27.0716C3.32673 20.19 4.4534 11.43 13.2401 4.66829C13.2567 4.65496 14.8517 3.29329 16.6667 3.29329C18.3084 3.29329 19.4367 4.00496 19.9051 4.77496L17.7934 5.54163C17.1351 5.78163 16.6967 6.40663 16.6967 7.10829V7.52496L13.1251 8.66163C12.6284 8.81996 12.2351 9.20163 12.0601 9.69329C11.5951 11.005 11.6451 12.6266 11.7034 14.5033C11.7901 17.335 11.8984 20.86 10.1817 24.1983C10.1801 24.2016 10.1817 24.205 10.1784 24.2083C10.0801 24.4033 10.0201 24.6133 10.0034 24.8283C9.9884 25.0266 10.0167 25.2233 10.0701 25.4133C10.0751 25.43 10.0701 25.4466 10.0751 25.4616C10.2051 25.8716 10.4884 26.2316 10.9017 26.4433C11.5234 26.7633 12.2434 26.655 12.7417 26.2316C12.7767 26.2033 16.0634 23.4433 20.8301 23.335C24.0801 23.335 26.0284 25.81 26.1184 25.9383C26.4401 26.4133 26.9651 26.6683 27.4984 26.6683C27.8167 26.6683 28.1417 26.5766 28.4267 26.385C29.1901 25.8716 29.3934 24.8366 28.8801 24.0733C28.8267 23.9933 28.1751 23.0666 26.9817 22.12C28.2184 20.71 30.8217 18.335 33.3301 18.335C34.0001 18.335 34.6401 18.3683 35.2301 18.435C36.0467 18.5266 36.6634 19.2383 36.6634 20.09V30.3766L36.6667 30.3733Z" fill="black"/>
</g>
<defs>
<clipPath id="clip0_2_3539">
<rect width="40" height="40" fill="white"/>
</clipPath>
</defs>
</svg>
