<svg width="32" height="32" viewBox="0 0 32 32" fill="none" xmlns="http://www.w3.org/2000/svg">
<g clip-path="url(#clip0_2_3502)">
<path d="M12.7373 19.1964C13.6373 20.0764 14.8187 20.5164 16 20.5164C17.1813 20.5164 18.3627 20.0764 19.2627 19.1964L22.5987 15.9324C24.3613 14.1697 25.3333 11.8257 25.3333 9.33236C25.3333 6.83902 24.3613 4.49636 22.5987 2.73236C20.8373 0.96969 18.4933 -0.000976562 16 -0.000976562C13.5067 -0.000976562 11.1627 0.96969 9.4 2.73236C5.76133 6.37102 5.76133 12.2924 9.41067 15.9417L12.7373 19.195V19.1964ZM11.2853 4.61902C12.544 3.36036 14.2187 2.66702 16 2.66702C17.7813 2.66702 19.4547 3.36036 20.7133 4.61902C21.972 5.87769 22.6667 7.55236 22.6667 9.33369C22.6667 11.115 21.972 12.7884 20.724 14.0377L17.3987 17.291C16.628 18.043 15.372 18.043 14.6013 17.291L11.2853 14.0484C8.68667 11.4484 8.68667 7.21769 11.2853 4.61902ZM12 9.32036C12 7.11102 13.7907 5.32036 16 5.32036C18.2093 5.32036 20 7.11102 20 9.32036C20 11.5297 18.2093 13.3204 16 13.3204C13.7907 13.3204 12 11.5297 12 9.32036ZM32 22.3564C32 22.8257 31.7533 23.259 31.3533 23.499L18.2053 31.3884C17.5253 31.7964 16.7627 32.0004 16.0013 32.0004C15.24 32.0004 14.476 31.7964 13.7973 31.3884L0.646667 23.5004C0.245333 23.259 0 22.8257 0 22.3577C0 21.8897 0.246667 21.455 0.646667 21.215L6.28533 17.8324C6.91867 17.4524 7.73733 17.6577 8.11467 18.2897C8.49333 18.9217 8.28933 19.7404 7.65733 20.119L3.924 22.359L15.168 29.1057C15.6813 29.4124 16.3187 29.4124 16.832 29.1057L28.076 22.359L24.3427 20.119C23.7107 19.7404 23.5067 18.9217 23.8853 18.2897C24.264 17.6577 25.0813 17.4524 25.7147 17.8324L31.3533 21.215C31.7547 21.4564 32 21.8884 32 22.3564Z" fill="white"/>
</g>
<defs>
<clipPath id="clip0_2_3502">
<rect width="32" height="32" fill="white"/>
</clipPath>
</defs>
</svg>
