<svg width="15" height="16" viewBox="0 0 15 16" fill="none" xmlns="http://www.w3.org/2000/svg">
<path d="M10.4827 1.93343C9.95802 1.48878 9.40802 1.02143 8.84802 0.512088C8.41843 0.121401 7.83824 -0.0596617 7.26268 0.0174321C6.70493 0.0911196 6.20868 0.408588 5.90802 0.884088C5.11334 2.21209 4.55146 3.66612 4.24668 5.18343C4.12709 5.01074 4.02099 4.82912 3.92934 4.64009C3.61359 3.97484 2.81834 3.69149 2.15309 4.00724C1.99202 4.08368 1.84793 4.19165 1.72934 4.32474C0.611117 5.46743 -0.00878919 7.00665 0.00533581 8.6054C-0.0264454 11.9658 2.2339 14.9161 5.48668 15.7601C6.0919 15.9124 6.71327 15.9912 7.33734 15.9947C7.35734 15.9947 7.56999 15.9927 7.65599 15.9867C11.636 15.8578 14.7943 12.5915 14.7893 8.6094C14.7867 5.58943 12.792 3.89609 10.4827 1.93343ZM7.32068 14.6567C6.82452 14.619 6.33421 14.418 5.96402 14.1194C5.38434 13.7092 5.00074 13.1077 4.90937 12.4147C4.79602 11.3334 5.46271 9.9194 6.82471 8.32209C6.96752 8.15528 7.17646 8.05968 7.39605 8.06074C7.6128 8.05918 7.81893 8.15453 7.95805 8.32074C9.20605 9.80209 9.8914 11.1687 9.8914 12.1694C9.88756 13.4841 8.85996 14.5241 7.5514 14.6507C7.49393 14.6563 7.39602 14.6647 7.32068 14.6567ZM11.1134 13.3887C11.074 13.4194 11.0307 13.4441 10.9907 13.4734C11.1445 13.0553 11.2237 12.6135 11.2247 12.1681C11.2247 10.4834 10.0014 8.67806 8.97606 7.46006C8.58377 6.99546 8.00677 6.72721 7.39871 6.72671H7.39602C6.78674 6.72562 6.20765 6.99203 5.81202 7.45537C4.18202 9.36471 3.43337 11.08 3.58668 12.554C3.62309 12.8962 3.71049 13.231 3.84602 13.5474C2.26296 12.4003 1.33018 10.5603 1.34068 8.60537C1.3278 7.3354 1.82862 6.11409 2.72934 5.21871C2.88312 5.5384 3.06777 5.84228 3.28068 6.12606C3.57309 6.52137 4.07262 6.70481 4.55134 6.59271C5.03943 6.48474 5.4184 6.09978 5.51868 5.61006C5.78652 4.19431 6.29837 2.83587 7.03134 1.5954C7.12152 1.45359 7.27049 1.35965 7.43734 1.3394C7.6238 1.31431 7.81177 1.37315 7.95068 1.50006C8.52268 2.02006 9.08402 2.50006 9.61734 2.9514C11.8427 4.8414 13.4513 6.20674 13.4513 8.6094C13.4571 10.4792 12.594 12.2456 11.1153 13.3901L11.1134 13.3887Z" fill="#CE3C3C"/>
</svg>
