<svg width="17" height="16" viewBox="0 0 17 16" fill="none" xmlns="http://www.w3.org/2000/svg">
<path d="M11.8249 16C11.2201 16.0161 10.6201 15.8894 10.0735 15.6302C9.52685 15.3709 9.04906 14.9865 8.67887 14.508C8.39115 14.1163 8.00941 13.8034 7.56888 13.5981C7.12834 13.3928 6.6432 13.3017 6.1582 13.3333C2.9622 13.3333 0.158203 10.218 0.158203 6.66667C0.160144 4.89915 0.863146 3.20459 2.11297 1.95477C3.36279 0.704943 5.05736 0.00194106 6.82487 0C13.3395 0 16.1582 7.72533 16.1582 11.6667C16.1568 12.8155 15.6998 13.9169 14.8874 14.7292C14.0751 15.5416 12.9737 15.9986 11.8249 16ZM6.82487 1.33333C-0.153797 1.586 -0.0951303 11.4033 6.1582 12C6.826 11.9693 7.49147 12.0985 8.0993 12.3768C8.70712 12.6551 9.23974 13.0744 9.65287 13.6C11.2102 15.7673 14.8915 14.382 14.8249 11.6667C14.8249 8.62533 12.5229 1.33333 6.82487 1.33333ZM4.62954 9.138L9.2962 4.47133C9.41764 4.3456 9.48484 4.1772 9.48332 4.0024C9.4818 3.8276 9.41169 3.66039 9.28808 3.53679C9.16448 3.41318 8.99727 3.34307 8.82247 3.34155C8.64767 3.34003 8.47927 3.40723 8.35354 3.52867L3.68687 8.19533C3.56543 8.32107 3.49823 8.48947 3.49975 8.66427C3.50127 8.83907 3.57139 9.00627 3.69499 9.12988C3.8186 9.25348 3.9858 9.3236 4.1606 9.32512C4.3354 9.32664 4.5038 9.25944 4.62954 9.138ZM7.2962 10.4713L11.2962 6.47133C11.4176 6.3456 11.4848 6.1772 11.4833 6.0024C11.4818 5.8276 11.4117 5.66039 11.2881 5.53679C11.1645 5.41318 10.9973 5.34307 10.8225 5.34155C10.6477 5.34003 10.4793 5.40723 10.3535 5.52867L6.35354 9.52867C6.2321 9.6544 6.1649 9.8228 6.16642 9.9976C6.16794 10.1724 6.23805 10.3396 6.36166 10.4632C6.48526 10.5868 6.65247 10.6569 6.82727 10.6584C7.00207 10.66 7.17047 10.5928 7.2962 10.4713ZM9.96287 11.8047L12.6295 9.138C12.751 9.01227 12.8182 8.84386 12.8167 8.66907C12.8151 8.49427 12.745 8.32706 12.6214 8.20345C12.4978 8.07985 12.3306 8.00974 12.1558 8.00822C11.981 8.0067 11.8126 8.0739 11.6869 8.19533L9.0202 10.862C8.89876 10.9877 8.83157 11.1561 8.83309 11.3309C8.83461 11.5057 8.90472 11.6729 9.02832 11.7965C9.15193 11.9202 9.31914 11.9903 9.49394 11.9918C9.66873 11.9933 9.83714 11.9261 9.96287 11.8047ZM12.6295 13.138L13.2962 12.4713C13.4176 12.3456 13.4848 12.1772 13.4833 12.0024C13.4818 11.8276 13.4117 11.6604 13.2881 11.5368C13.1645 11.4132 12.9973 11.3431 12.8225 11.3416C12.6477 11.34 12.4793 11.4072 12.3535 11.5287L11.6869 12.1953C11.5654 12.3211 11.4982 12.4895 11.4998 12.6643C11.5013 12.8391 11.5714 13.0063 11.695 13.1299C11.8186 13.2535 11.9858 13.3236 12.1606 13.3251C12.3354 13.3266 12.5038 13.2594 12.6295 13.138ZM3.96287 5.80467L5.96287 3.80467C6.08431 3.67893 6.1515 3.51053 6.14999 3.33573C6.14847 3.16093 6.07835 2.99373 5.95475 2.87012C5.83114 2.74652 5.66394 2.6764 5.48914 2.67488C5.31434 2.67336 5.14594 2.74056 5.0202 2.862L3.0202 4.862C2.89876 4.98774 2.83157 5.15614 2.83309 5.33093C2.83461 5.50573 2.90472 5.67294 3.02832 5.79655C3.15193 5.92015 3.31914 5.99026 3.49394 5.99178C3.66873 5.9933 3.83714 5.92611 3.96287 5.80467Z" fill="#D57A34"/>
</svg>
