<svg width="17" height="16" viewBox="0 0 17 16" fill="none" xmlns="http://www.w3.org/2000/svg">
<path d="M15.4779 5.19672C16.3404 4.33418 16.7307 2.75118 16.9068 1.57644C16.9374 1.36416 16.9181 1.14767 16.8504 0.944156C16.7827 0.740642 16.6685 0.555714 16.5168 0.404057C16.3652 0.2524 16.1803 0.138192 15.9767 0.0705044C15.7732 0.00281633 15.5567 -0.0164878 15.3445 0.0141251C14.021 0.234931 12.2091 0.622508 11.432 1.82326C9.98642 -0.694988 8.2113 1.407 7.70231 3.43495C6.15867 3.00467 5.48024 4.78113 5.03396 6.10329C3.39426 5.54961 2.31091 8.19661 2.24821 9.67087C2.2916 10.7492 2.67685 11.7858 3.34823 12.6307L1.10816 14.8695C0.986642 14.9953 0.919404 15.1638 0.920924 15.3387C0.922444 15.5136 0.9926 15.6809 1.11628 15.8046C1.23997 15.9283 1.40728 15.9985 1.58219 16C1.7571 16.0015 1.9256 15.9343 2.05142 15.8127L4.29016 13.574C5.13554 14.2455 6.17259 14.6308 7.25136 14.674C8.6976 14.6213 11.4213 13.4973 10.8343 11.8849C12.1184 11.4487 13.9756 10.7255 13.5026 9.21659C15.5366 8.68692 17.6459 6.93782 15.0956 5.48824C15.2341 5.40642 15.3624 5.30858 15.4779 5.19672ZM12.6668 2.38562C13.5181 1.76435 14.5366 1.4136 15.5899 1.37898C15.159 3.88523 14.7301 4.8912 12.2739 4.64771C12.2111 3.80785 12.2885 2.76452 12.6668 2.38562ZM9.91437 1.99938C10.6675 2.80989 11.3399 4.56699 10.5514 5.43087L9.5348 6.44417C9.42852 5.84901 9.22022 5.27668 8.91908 4.75244C8.89492 3.74258 9.25003 2.76033 9.91437 1.99938ZM7.24602 4.66772C7.9985 5.47823 8.67092 7.23467 7.88242 8.09922L6.86645 9.11252C6.76007 8.51739 6.55177 7.94507 6.25073 7.42079C6.22625 6.41088 6.58139 5.4285 7.24602 4.66772ZM4.57768 7.33607C5.32948 8.14591 6.00257 9.90302 5.21474 10.7669L4.30284 11.6755C3.81495 11.0417 3.57381 10.2524 3.62424 9.45423C3.67467 8.65605 4.01391 7.90335 4.57768 7.33607ZM7.25136 13.3398C6.5264 13.3037 5.82859 13.0527 5.24676 12.6187L6.15734 11.7082C7.02455 10.9183 8.77832 11.5961 9.59017 12.3339C8.9362 12.9075 8.11756 13.2596 7.25136 13.3398ZM9.91971 10.6715C9.83032 10.6715 9.55081 10.6642 9.49878 10.6715C8.97532 10.3709 8.40392 10.1628 7.80971 10.0564L8.82635 9.04048C9.68956 8.25064 11.4467 8.92907 12.2585 9.6662C11.6045 10.2396 10.7858 10.5915 9.91971 10.6715ZM12.5881 8.00316C12.4987 8.00316 12.2192 7.99648 12.1678 8.00316C11.6441 7.70229 11.0725 7.494 10.4781 7.38743L11.4947 6.37146C12.3579 5.5823 14.115 6.26006 14.9269 6.99719C14.2729 7.57083 13.4543 7.92294 12.5881 8.00316Z" fill="#F2790F"/>
</svg>
