<svg width="15" height="14" viewBox="0 0 15 14" fill="none" xmlns="http://www.w3.org/2000/svg">
<g clip-path="url(#clip0_2_400)">
<path d="M10.1608 8.16699C9.85139 8.16699 9.55464 8.28991 9.33585 8.5087C9.11706 8.72749 8.99414 9.02424 8.99414 9.33366C8.99414 9.64308 9.11706 9.93982 9.33585 10.1586C9.55464 10.3774 9.85139 10.5003 10.1608 10.5003C10.4702 10.5003 10.767 10.3774 10.9858 10.1586C11.2046 9.93982 11.3275 9.64308 11.3275 9.33366C11.3275 9.02424 11.2046 8.72749 10.9858 8.5087C10.767 8.28991 10.4702 8.16699 10.1608 8.16699Z" fill="#D0B114"/>
<path d="M4.91073 6.41699C4.29189 6.41699 3.69839 6.66282 3.26081 7.10041C2.82323 7.53799 2.57739 8.13149 2.57739 8.75033C2.57739 9.36916 2.82323 9.96266 3.26081 10.4002C3.69839 10.8378 4.29189 11.0837 4.91073 11.0837C5.52956 11.0837 6.12306 10.8378 6.56064 10.4002C6.99823 9.96266 7.24406 9.36916 7.24406 8.75033C7.24406 8.13149 6.99823 7.53799 6.56064 7.10041C6.12306 6.66282 5.52956 6.41699 4.91073 6.41699ZM4.91073 9.91699C4.60131 9.91699 4.30456 9.79408 4.08577 9.57528C3.86698 9.35649 3.74406 9.05974 3.74406 8.75033C3.74406 8.44091 3.86698 8.14416 4.08577 7.92537C4.30456 7.70658 4.60131 7.58366 4.91073 7.58366C5.22014 7.58366 5.51689 7.70658 5.73568 7.92537C5.95448 8.14416 6.07739 8.44091 6.07739 8.75033C6.07739 9.05974 5.95448 9.35649 5.73568 9.57528C5.51689 9.79408 5.22014 9.91699 4.91073 9.91699Z" fill="#D0B114"/>
<path d="M12.8375 3.90847L8.2653 0.495387C7.77126 0.161784 7.18622 -0.0110432 6.59021 0.000547055C5.9942 0.0121373 5.41632 0.207579 4.93563 0.560137C3.04715 1.97336 1.63434 3.92868 0.885547 6.16539C0.877094 6.19522 0.870854 6.22564 0.86688 6.25639C0.802616 6.38237 0.747447 6.51278 0.701797 6.64664C0.0889844 8.38565 0.0889844 10.2819 0.701797 12.0209C0.897839 12.5985 1.27004 13.1001 1.76602 13.4551C2.26201 13.8102 2.85683 14.0008 3.4668 14.0001H5.5808C5.83378 13.9961 6.07889 13.9116 6.28052 13.7587C6.48214 13.6059 6.62978 13.3927 6.70196 13.1502C6.76106 12.976 6.87325 12.8247 7.02276 12.7176C7.17227 12.6104 7.3516 12.5528 7.53555 12.5528C7.71949 12.5528 7.89882 12.6104 8.04833 12.7176C8.19784 12.8247 8.31003 12.976 8.36913 13.1502C8.44132 13.3927 8.58895 13.6059 8.79058 13.7587C8.9922 13.9116 9.23732 13.9961 9.4903 14.0001H11.3272C12.1005 13.9992 12.8418 13.6916 13.3886 13.1448C13.9354 12.5981 14.243 11.8567 14.2439 11.0835V6.71255C14.2426 6.16817 14.1149 5.63153 13.8708 5.14492C13.6268 4.65832 13.273 4.23504 12.8375 3.90847ZM5.63388 1.49464C5.91663 1.28769 6.25597 1.17229 6.60627 1.16395C6.95656 1.1556 7.30101 1.25472 7.5933 1.44797L11.9041 4.6668H3.46738C3.2403 4.66658 3.01397 4.69301 2.79305 4.74555C3.50719 3.47868 4.47415 2.37213 5.63388 1.49464ZM13.0772 11.0835C13.0772 11.5476 12.8928 11.9927 12.5646 12.3209C12.2365 12.6491 11.7913 12.8335 11.3272 12.8335L9.48038 12.795C9.34364 12.3834 9.07982 12.0259 8.7269 11.7739C8.37398 11.522 7.95018 11.3885 7.51655 11.3928C7.08293 11.3971 6.66185 11.5389 6.31397 11.7978C5.9661 12.0567 5.70938 12.4193 5.5808 12.8335H3.4668C3.10076 12.8336 2.74388 12.719 2.44639 12.5058C2.14889 12.2925 1.92576 11.9913 1.80838 11.6446C1.279 10.1495 1.279 8.51799 1.80838 7.02289C1.92614 6.67626 2.14944 6.37519 2.44696 6.16188C2.74448 5.94858 3.1013 5.83374 3.46738 5.83347H12.9022C13.0168 6.11244 13.0762 6.41097 13.0772 6.71255V11.0835Z" fill="#D0B114"/>
</g>
<defs>
<clipPath id="clip0_2_400">
<rect width="14" height="14" fill="white" transform="translate(0.244141)"/>
</clipPath>
</defs>
</svg>
