<svg width="36" height="36" viewBox="0 0 36 36" fill="none" xmlns="http://www.w3.org/2000/svg">
<g clip-path="url(#clip0_521_560)">
<path d="M28.578 9.999C29.412 10.668 30.5865 10.668 31.4205 9.999C33.195 8.577 35.9985 5.3925 35.9985 3C35.9985 1.3425 34.656 0 32.9985 0C31.341 0 29.9985 1.3425 29.9985 3C29.9985 1.3425 28.656 0 26.9985 0C25.341 0 23.9985 1.3425 23.9985 3C23.9985 5.3925 26.805 8.577 28.578 9.999Z" fill="white"/>
<path d="M32.0424 13.6088C31.4004 13.5368 30.7134 13.5008 29.9994 13.5008C25.7469 13.5008 22.2504 17.6273 21.5934 18.4538C20.7999 18.1868 19.7529 18.0008 18.7494 18.0008C16.5789 18.0488 14.6784 18.5798 13.1874 19.2008C13.6464 16.8938 13.5864 14.7188 13.5339 12.9608C13.5024 11.9978 13.4754 11.0753 13.5489 10.3913L16.9839 9.29784C17.6064 9.09984 18.0279 8.52234 18.0279 7.86834V7.44834L19.2129 7.01634C19.9254 6.73284 20.4984 6.16434 20.7909 5.45484C21.0774 4.75134 21.0714 3.98484 20.7684 3.29634C19.8819 1.27284 17.6169 -0.0351562 14.9994 -0.0351562C12.2619 -0.0351562 10.1649 1.74534 10.0149 1.88334C1.04188 8.78334 -0.006625 18.0173 -0.015625 24.3623C-0.015625 26.3918 0.819875 28.3553 2.27787 29.7473C4.72288 32.0828 10.0149 36.0008 17.9979 36.0008C25.0239 36.0008 29.9454 34.1663 32.8389 32.6258C34.7874 31.5878 35.9979 29.5613 35.9979 27.3368V18.0788C35.9979 15.7838 34.2984 13.8608 32.0424 13.6088ZM32.9994 27.3368C32.9994 28.4498 32.3979 29.4623 31.4289 29.9783C28.8384 31.3568 24.4059 33.0008 17.9994 33.0008C11.0634 33.0008 6.47038 29.6033 4.34938 27.5783C3.46738 26.7368 2.98288 25.5953 2.98438 24.3653C2.99338 18.1718 4.00738 10.2878 11.9154 4.20234C11.9304 4.19034 13.3659 2.96484 14.9994 2.96484C16.4769 2.96484 17.4924 3.60534 17.9139 4.29834L16.0134 4.98834C15.4209 5.20434 15.0264 5.76684 15.0264 6.39834V6.77334L11.8119 7.79634C11.3649 7.93884 11.0109 8.28234 10.8534 8.72484C10.4349 9.90534 10.4799 11.3648 10.5324 13.0538C10.6104 15.6023 10.7079 18.7748 9.16288 21.7793C9.16138 21.7823 9.16288 21.7853 9.15987 21.7883C9.07137 21.9638 9.01737 22.1528 9.00237 22.3463C8.98888 22.5248 9.01437 22.7018 9.06238 22.8728C9.06688 22.8878 9.06238 22.9028 9.06688 22.9163C9.18388 23.2853 9.43888 23.6093 9.81087 23.7998C10.3704 24.0878 11.0184 23.9903 11.4669 23.6093C11.4984 23.5838 14.4564 21.0998 18.7464 21.0023C21.6714 21.0023 23.4249 23.2298 23.5059 23.3453C23.7954 23.7728 24.2679 24.0023 24.7479 24.0023C25.0344 24.0023 25.3269 23.9198 25.5834 23.7473C26.2704 23.2853 26.4534 22.3538 25.9914 21.6668C25.9434 21.5948 25.3569 20.7608 24.2829 19.9088C25.3959 18.6398 27.7389 16.5023 29.9964 16.5023C30.5994 16.5023 31.1754 16.5323 31.7064 16.5923C32.4414 16.6748 32.9964 17.3153 32.9964 18.0818V27.3398L32.9994 27.3368Z" fill="white"/>
</g>
<defs>
<clipPath id="clip0_521_560">
<rect width="36" height="36" fill="white"/>
</clipPath>
</defs>
</svg>
