<svg width="28" height="35" viewBox="0 0 28 35" fill="none" xmlns="http://www.w3.org/2000/svg">
<path d="M27.5 30.625V35H24.5V30.625C24.5 28.2129 22.481 26.25 20 26.25H12.5V35H9.5V26.25H8C5.519 26.25 3.5 28.2129 3.5 30.625V35H0.5V30.625C0.5 26.6044 3.8645 23.3333 8 23.3333H20C24.1355 23.3333 27.5 26.6044 27.5 30.625ZM17.75 29.1667C16.508 29.1667 15.5 30.1467 15.5 31.3542C15.5 32.5617 16.508 33.5417 17.75 33.5417C18.992 33.5417 20 32.5617 20 31.3542C20 30.1467 18.992 29.1667 17.75 29.1667ZM2 4.375C2 1.96292 4.019 0 6.5 0C7.46 0 8.6105 0.300417 9.6425 0.806458C10.571 0.485625 12.263 0 14 0C15.737 0 17.429 0.485625 18.356 0.806458C19.388 0.300417 20.5385 0 21.5 0C23.981 0 26 1.96292 26 4.375C26 6.27813 24.7445 7.89979 22.9985 8.50063C22.9985 9.29833 22.9985 10.2054 22.9985 10.2069V13.125C22.9985 17.9579 18.9695 21.875 13.9985 21.875C9.0275 21.875 4.9985 17.9579 4.9985 13.125V10.2069C4.9985 10.2069 4.9985 9.29833 5 8.50063C3.2525 7.89979 2 6.27813 2 4.375ZM20 11.6667H8V13.125C8 14.7656 8.717 16.3377 9.965 17.4431C11.2295 18.5631 12.8735 19.0881 14.594 18.9321C17.6255 18.6506 20 15.9629 20 12.8129V11.6681V11.6667ZM5 4.375C5 5.18 5.6735 5.83333 6.5 5.83333H7.1225L7.562 6.26063C7.934 6.62229 7.994 6.68208 8 8.75H20C20.006 6.68208 20.0675 6.62229 20.438 6.26063L20.8775 5.83333H21.5C22.328 5.83333 23 5.18 23 4.375C23 3.57 22.328 2.91667 21.5 2.91667C20.9825 2.91667 20.0555 3.1675 19.2815 3.64583L18.608 4.06292L17.873 3.74938C17.852 3.74063 15.8915 2.91667 14 2.91667C12.1085 2.91667 10.1465 3.74063 10.127 3.74938L9.395 4.06146L8.7185 3.64583C7.9445 3.1675 7.016 2.91667 6.5 2.91667C5.6735 2.91667 5 3.57 5 4.375Z" fill="white"/>
</svg>
