<svg width="36" height="35" viewBox="0 0 36 35" fill="none" xmlns="http://www.w3.org/2000/svg">
<g clip-path="url(#clip0_521_571)">
<path d="M19.5 18.2292C19.5 20.9388 17.58 23.2035 15 23.8554V33.5417C15 34.3467 14.328 35 13.5 35C12.672 35 12 34.3467 12 33.5417V23.8554C9.42 23.2035 7.5 20.9388 7.5 18.2292V13.125C7.5 12.32 8.172 11.6667 9 11.6667C9.828 11.6667 10.5 12.32 10.5 13.125V18.2292C10.5 19.304 11.1075 20.2344 12 20.7404V13.125C12 12.32 12.672 11.6667 13.5 11.6667C14.328 11.6667 15 12.32 15 13.125V20.7404C15.8925 20.2344 16.5 19.304 16.5 18.2292V13.125C16.5 12.32 17.172 11.6667 18 11.6667C18.828 11.6667 19.5 12.32 19.5 13.125V18.2292ZM19.3665 32.0235C19.356 32.0235 19.347 32.025 19.3365 32.0265C18.5775 32.0921 18 32.7148 18 33.4556V33.4746C18 34.3248 18.7545 35.0029 19.626 34.9183L19.656 34.9154C20.418 34.8396 21 34.2169 21 33.4717V33.4527C21 32.5981 20.2425 31.9463 19.3665 32.0235ZM24.9105 12.0021C23.502 13.2417 21.1815 16.4165 21.0015 20.9008C20.943 23.3873 21.705 26.1523 23.9985 28.8663V33.5431C23.9985 34.3481 24.669 35.0015 25.4985 35.0015C26.328 35.0015 26.9985 34.3481 26.9985 33.5431V12.7415C26.9925 11.8242 25.713 11.2773 24.9105 12.0021ZM18 0C8.0745 0 0 7.85021 0 17.5C0 22.7398 2.385 27.6602 6.5445 30.9998C7.1805 31.5102 8.1255 31.4271 8.6565 30.8044C9.1845 30.1831 9.0945 29.2644 8.4555 28.751C4.989 25.9671 3 21.8663 3 17.5C3 9.45875 9.729 2.91667 18 2.91667C26.271 2.91667 33 9.45875 33 17.5C33 20.6267 31.998 23.606 30.102 26.1158C29.613 26.7648 29.757 27.6777 30.4245 28.1546C31.0935 28.6329 32.031 28.49 32.5215 27.8425C34.797 24.8267 35.9985 21.2508 35.9985 17.5C36 7.85021 27.9255 0 18 0Z" fill="white"/>
</g>
<defs>
<clipPath id="clip0_521_571">
<rect width="36" height="35" fill="white"/>
</clipPath>
</defs>
</svg>
