<svg width="42" height="42" viewBox="0 0 42 42" fill="none" xmlns="http://www.w3.org/2000/svg">
<g clip-path="url(#clip0_521_565)">
<path d="M21 21C26.7908 21 31.5 16.2908 31.5 10.5C31.5 4.70925 26.7908 0 21 0C15.2092 0 10.5 4.70925 10.5 10.5C10.5 16.2908 15.2092 21 21 21ZM21 3.5C24.8605 3.5 28 6.6395 28 10.5C28 14.3605 24.8605 17.5 21 17.5C17.1395 17.5 14 14.3605 14 10.5C14 6.6395 17.1395 3.5 21 3.5ZM38.5 40.25C38.5 41.2178 37.7178 42 36.75 42C35.7822 42 35 41.2178 35 40.25C35 35.3745 32.1353 31.1535 28 29.183V33.551C30.037 34.2738 31.5 36.218 31.5 38.5V40.25C31.5 41.2178 30.7178 42 29.75 42C28.7822 42 28 41.2178 28 40.25V38.5C28 37.534 27.216 36.75 26.25 36.75C25.284 36.75 24.5 37.534 24.5 38.5V40.25C24.5 41.2178 23.7178 42 22.75 42C21.7822 42 21 41.2178 21 40.25V38.5C21 36.218 22.463 34.2738 24.5 33.551V28.126C23.9277 28.0438 23.3433 28 22.75 28H19.25C18.0337 28 16.8595 28.1785 15.75 28.511V33.7208C16.7965 34.3263 17.5 35.4568 17.5 36.7518C17.5 38.6855 15.9338 40.2518 14 40.2518C12.0662 40.2518 10.5 38.6855 10.5 36.7518C10.5 35.4568 11.2035 34.3263 12.25 33.7208V30.205C9.079 32.4223 7 36.099 7 40.2518C7 41.2195 6.21775 42.0018 5.25 42.0018C4.28225 42.0018 3.5 41.2195 3.5 40.2518C3.5 31.5665 10.5648 24.5018 19.25 24.5018H22.75C31.4352 24.5018 38.5 31.5648 38.5 40.25Z" fill="white"/>
</g>
<defs>
<clipPath id="clip0_521_565">
<rect width="42" height="42" fill="white"/>
</clipPath>
</defs>
</svg>
