<svg width="40" height="40" viewBox="0 0 40 40" fill="none" xmlns="http://www.w3.org/2000/svg">
<g clip-path="url(#clip0_2_3521)">
<path d="M21.6667 20.8333C21.6667 23.93 19.5333 26.5183 16.6667 27.2633V38.3333C16.6667 39.2533 15.92 40 15 40C14.08 40 13.3333 39.2533 13.3333 38.3333V27.2633C10.4667 26.5183 8.33333 23.93 8.33333 20.8333V15C8.33333 14.08 9.08 13.3333 10 13.3333C10.92 13.3333 11.6667 14.08 11.6667 15V20.8333C11.6667 22.0617 12.3417 23.125 13.3333 23.7033V15C13.3333 14.08 14.08 13.3333 15 13.3333C15.92 13.3333 16.6667 14.08 16.6667 15V23.7033C17.6583 23.125 18.3333 22.0617 18.3333 20.8333V15C18.3333 14.08 19.08 13.3333 20 13.3333C20.92 13.3333 21.6667 14.08 21.6667 15V20.8333ZM21.5183 36.5983C21.5067 36.5983 21.4967 36.6 21.485 36.6017C20.6417 36.6767 20 37.3883 20 38.235V38.2567C20 39.2283 20.8383 40.0033 21.8067 39.9067L21.84 39.9033C22.6867 39.8167 23.3333 39.105 23.3333 38.2533V38.2317C23.3333 37.255 22.4917 36.51 21.5183 36.5983ZM27.6783 13.7167C26.1133 15.1333 23.535 18.7617 23.335 23.8867C23.27 26.7283 24.1167 29.8883 26.665 32.99V38.335C26.665 39.255 27.41 40.0017 28.3317 40.0017C29.2533 40.0017 29.9983 39.255 29.9983 38.335V14.5617C29.9917 13.5133 28.57 12.8883 27.6783 13.7167ZM20 0C8.97167 0 0 8.97167 0 20C0 25.9883 2.65 31.6117 7.27167 35.4283C7.97833 36.0117 9.02833 35.9167 9.61833 35.205C10.205 34.495 10.105 33.445 9.395 32.8583C5.54333 29.6767 3.33333 24.99 3.33333 20C3.33333 10.81 10.81 3.33333 20 3.33333C29.19 3.33333 36.6667 10.81 36.6667 20C36.6667 23.5733 35.5533 26.9783 33.4467 29.8467C32.9033 30.5883 33.0633 31.6317 33.805 32.1767C34.5483 32.7233 35.59 32.56 36.135 31.82C38.6633 28.3733 39.9983 24.2867 39.9983 20C40 8.97167 31.0283 0 20 0Z" fill="black"/>
</g>
<defs>
<clipPath id="clip0_2_3521">
<rect width="40" height="40" fill="white"/>
</clipPath>
</defs>
</svg>
