<svg width="18" height="18" viewBox="0 0 18 18" fill="none" xmlns="http://www.w3.org/2000/svg">
<g clip-path="url(#clip0_540_14507)">
<path d="M17.3955 8.70002C16.997 8.16784 16.4307 7.78551 15.7882 7.61476C16.1014 6.70441 16.3328 5.76795 16.4797 4.81651C16.5277 4.47066 16.4948 4.11839 16.3835 3.78743C16.2722 3.45647 16.0857 3.15585 15.8385 2.90924C15.5913 2.66264 15.2902 2.47677 14.959 2.36628C14.6278 2.25579 14.2754 2.2237 13.9297 2.27251C13.8352 2.28526 13.5547 2.32651 13.1715 2.40076C13.4088 1.87536 13.5212 1.30214 13.5 0.726014C13.4968 0.627523 13.4743 0.530616 13.4337 0.440828C13.3931 0.35104 13.3352 0.270129 13.2633 0.202713C13.1914 0.135298 13.107 0.082699 13.0148 0.0479198C12.9226 0.0131406 12.8244 -0.0031379 12.726 1.38246e-05C12.6275 0.00316555 12.5306 0.0256857 12.4408 0.0662886C12.351 0.106891 12.2701 0.164782 12.2027 0.236654C12.1352 0.308527 12.0826 0.392974 12.0479 0.485174C12.0131 0.577375 11.9968 0.675523 12 0.774014C12.0127 1.13631 11.9384 1.49639 11.7832 1.82401C11.6747 1.53126 11.52 1.25778 11.325 1.01401C10.9934 0.636687 10.5726 0.348502 10.1009 0.175816C9.6292 0.00313045 9.12176 -0.0485457 8.62495 0.0255138C8.08021 0.0692396 7.55953 0.268661 7.12495 0.600014C6.63366 0.230409 6.0393 0.0232864 5.4247 0.00751384C4.64484 -0.0680708 3.86681 0.168441 3.26095 0.665264C2.95332 0.939141 2.70495 1.27303 2.53109 1.64642C2.35723 2.0198 2.26156 2.4248 2.24995 2.83651C2.22937 3.49578 2.42132 4.14419 2.79745 4.68601C2.33988 5.07834 1.98468 5.57615 1.76254 6.13646C1.54041 6.69677 1.458 7.30273 1.52245 7.90202C0.929318 8.23254 0.467085 8.75601 0.212509 9.38549C-0.0420669 10.015 -0.0736684 10.7126 0.122952 11.3625C0.636709 13.1501 1.59294 14.7794 2.9032 16.0995C4.16021 17.3252 5.84856 18.0078 7.6042 18H10.3957C12.1511 18.0079 13.8393 17.3253 15.096 16.0995C16.4067 14.7796 17.3632 13.1503 17.877 11.3625C18.0109 10.912 18.037 10.4364 17.9534 9.9739C17.8698 9.51143 17.6787 9.07508 17.3955 8.70002ZM14.1382 3.75751C14.2543 3.74185 14.3724 3.75324 14.4833 3.79078C14.5943 3.82832 14.695 3.891 14.7777 3.97392C14.8604 4.05685 14.9228 4.15777 14.9601 4.26881C14.9973 4.37984 15.0084 4.49799 14.9925 4.61401C14.8352 5.59891 14.5802 6.56568 14.2312 7.50001H12.3105L13.2802 6.53026C13.4168 6.38881 13.4924 6.19936 13.4907 6.00271C13.489 5.80607 13.4101 5.61796 13.2711 5.4789C13.132 5.33984 12.9439 5.26097 12.7473 5.25926C12.5506 5.25755 12.3612 5.33315 12.2197 5.46977L10.1895 7.50001H9.0277C8.97293 7.10555 9.01054 6.70376 9.13756 6.32631C9.26459 5.94887 9.47757 5.60609 9.7597 5.32501C10.08 5.00176 11.3077 4.12501 14.1382 3.75751ZM3.74995 2.88676C3.75446 2.68029 3.80101 2.4769 3.88677 2.28901C3.97252 2.10113 4.09567 1.9327 4.2487 1.79401C4.55813 1.5653 4.94254 1.4619 5.32495 1.50451C5.50966 1.49692 5.69389 1.52848 5.86555 1.59711C6.0372 1.66575 6.1924 1.76991 6.32095 1.90276C6.42215 2.01584 6.54607 2.10628 6.68462 2.16819C6.82316 2.23009 6.97321 2.26206 7.12495 2.26201C7.27635 2.26127 7.42589 2.2287 7.56388 2.16642C7.70188 2.10414 7.82523 2.01355 7.92595 1.90051C8.03781 1.78219 8.17204 1.68725 8.32087 1.6212C8.4697 1.55516 8.63016 1.51932 8.79295 1.51576C9.04087 1.4716 9.29586 1.48959 9.53512 1.56813C9.77437 1.64666 9.99043 1.78328 10.164 1.96576C10.3916 2.25725 10.5105 2.61905 10.5 2.98876C10.5 3.03751 10.5 3.14401 10.5 3.14401C9.50432 3.50253 8.65382 4.17782 8.07895 5.06626C7.60536 4.50562 6.97523 4.09907 6.26923 3.89865C5.56323 3.69823 4.81347 3.71307 4.11595 3.94126C3.86706 3.64751 3.73657 3.27155 3.74995 2.88676ZM2.99995 7.50001C2.99995 6.90328 3.23701 6.33098 3.65896 5.90902C4.08092 5.48707 4.65322 5.25001 5.24995 5.25001C5.84669 5.25001 6.41899 5.48707 6.84094 5.90902C7.2629 6.33098 7.49995 6.90328 7.49995 7.50001H2.99995ZM16.437 10.9418C15.9888 12.4846 15.1641 13.8919 14.037 15.0368C13.0624 15.9836 11.7545 16.5092 10.3957 16.5H7.6042C6.24504 16.5089 4.9368 15.9834 3.96145 15.0368C2.83427 13.8919 2.00951 12.4847 1.56145 10.9418C1.49422 10.7147 1.48117 10.475 1.52338 10.242C1.56558 10.009 1.66185 9.78908 1.80445 9.60002C1.94282 9.41337 2.12309 9.26184 2.33074 9.15763C2.53839 9.05341 2.76762 8.99942 2.99995 9.00002H15C15.233 8.99872 15.4632 9.05237 15.6717 9.15661C15.8801 9.26085 16.0611 9.41276 16.2 9.60002C16.3415 9.7896 16.4367 10.0097 16.4779 10.2427C16.519 10.4757 16.505 10.7152 16.437 10.9418Z" fill="#808080"/>
</g>
<defs>
<clipPath id="clip0_540_14507">
<rect width="18" height="18" fill="white"/>
</clipPath>
</defs>
</svg>
