<svg width="32" height="32" viewBox="0 0 32 32" fill="none" xmlns="http://www.w3.org/2000/svg">
<path d="M30.6667 16.0004C29.9293 16.0004 29.3333 16.5964 29.3333 17.3337V21.3337H21.2187L13.3333 13.4484V2.66702H14.6667C15.4027 2.66702 16 2.07102 16 1.33369C16 0.596357 15.4027 0.000356771 14.6667 0.000356771H6.66667C2.99067 0.000356771 0 2.99102 0 6.66702V25.3337C0 29.0097 2.99067 32.0004 6.66667 32.0004H25.3333C29.0093 32.0004 32 29.0097 32 25.3337V17.3337C32 16.5964 31.404 16.0004 30.6667 16.0004ZM6.66667 2.66702H10.6667V13.2004L2.66667 17.4657V6.66702C2.66667 4.46169 4.46133 2.66702 6.66667 2.66702ZM2.66667 25.3337V20.4897L11.756 15.6417L18.9053 22.791L14 29.3324H6.66667C4.46133 29.3324 2.66667 27.539 2.66667 25.3337ZM25.3333 29.3337H17.3333L21.3333 24.0004H29.3333V25.3337C29.3333 27.539 27.5387 29.3337 25.3333 29.3337ZM21.9347 14.919C22.6867 15.6564 23.6773 16.0244 24.6667 16.023C25.656 16.023 26.6453 15.6564 27.3987 14.919L29.852 12.5177C31.2373 11.1337 32 9.29236 32 7.33236C32 5.37236 31.2373 3.53102 29.852 2.14702C28.4667 0.76169 26.6253 -0.000976562 24.6667 -0.000976562C22.708 -0.000976562 20.8653 0.76169 19.4813 2.14702C18.096 3.53102 17.3333 5.37236 17.3333 7.33236C17.3333 9.29236 18.096 11.1337 19.492 12.527L21.9347 14.9177V14.919ZM21.3667 4.03369C22.248 3.15236 23.4187 2.66702 24.6667 2.66702C25.9147 2.66702 27.084 3.15236 27.9667 4.03369C28.8493 4.91502 29.3333 6.08702 29.3333 7.33369C29.3333 8.58036 28.848 9.75102 27.976 10.623L25.5333 13.0137C25.0547 13.4804 24.2787 13.483 23.7987 13.0137L21.3667 10.6337C20.4853 9.75236 20 8.58036 20 7.33369C20 6.08702 20.4853 4.91636 21.3667 4.03369ZM22.6653 7.32569C22.6653 6.22169 23.5613 5.32569 24.6653 5.32569C25.7693 5.32569 26.6653 6.22169 26.6653 7.32569C26.6653 8.42969 25.7693 9.32569 24.6653 9.32569C23.5613 9.32569 22.6653 8.42969 22.6653 7.32569Z" fill="#F2790F"/>
<g clip-path="url(#clip0_2_3500)">
<path d="M12.7373 19.1964C13.6373 20.0764 14.8187 20.5164 16 20.5164C17.1813 20.5164 18.3627 20.0764 19.2627 19.1964L22.5987 15.9324C24.3613 14.1697 25.3333 11.8257 25.3333 9.33236C25.3333 6.83902 24.3613 4.49636 22.5987 2.73236C20.8373 0.96969 18.4933 -0.000976562 16 -0.000976562C13.5067 -0.000976562 11.1627 0.96969 9.4 2.73236C5.76133 6.37102 5.76133 12.2924 9.41067 15.9417L12.7373 19.195V19.1964ZM11.2853 4.61902C12.544 3.36036 14.2187 2.66702 16 2.66702C17.7813 2.66702 19.4547 3.36036 20.7133 4.61902C21.972 5.87769 22.6667 7.55236 22.6667 9.33369C22.6667 11.115 21.972 12.7884 20.724 14.0377L17.3987 17.291C16.628 18.043 15.372 18.043 14.6013 17.291L11.2853 14.0484C8.68667 11.4484 8.68667 7.21769 11.2853 4.61902ZM12 9.32036C12 7.11102 13.7907 5.32036 16 5.32036C18.2093 5.32036 20 7.11102 20 9.32036C20 11.5297 18.2093 13.3204 16 13.3204C13.7907 13.3204 12 11.5297 12 9.32036ZM32 22.3564C32 22.8257 31.7533 23.259 31.3533 23.499L18.2053 31.3884C17.5253 31.7964 16.7627 32.0004 16.0013 32.0004C15.24 32.0004 14.476 31.7964 13.7973 31.3884L0.646667 23.5004C0.245333 23.259 0 22.8257 0 22.3577C0 21.8897 0.246667 21.455 0.646667 21.215L6.28533 17.8324C6.91867 17.4524 7.73733 17.6577 8.11467 18.2897C8.49333 18.9217 8.28933 19.7404 7.65733 20.119L3.924 22.359L15.168 29.1057C15.6813 29.4124 16.3187 29.4124 16.832 29.1057L28.076 22.359L24.3427 20.119C23.7107 19.7404 23.5067 18.9217 23.8853 18.2897C24.264 17.6577 25.0813 17.4524 25.7147 17.8324L31.3533 21.215C31.7547 21.4564 32 21.8884 32 22.3564Z" fill="white"/>
</g>
<defs>
<clipPath id="clip0_2_3500">
<rect width="32" height="32" fill="white"/>
</clipPath>
</defs>
</svg>
