<svg width="40" height="40" viewBox="0 0 40 40" fill="none" xmlns="http://www.w3.org/2000/svg">
<g clip-path="url(#clip0_2_3533)">
<path d="M38.6568 19.333C37.7713 18.1504 36.513 17.3008 35.0852 16.9214C35.7811 14.8984 36.2953 12.8173 36.6218 10.703C36.7285 9.93448 36.6553 9.15166 36.4081 8.41619C36.1608 7.68071 35.7462 7.01268 35.1969 6.46466C34.6476 5.91665 33.9786 5.50362 33.2425 5.25808C32.5065 5.01255 31.7235 4.94122 30.9552 5.04971C30.7452 5.07804 30.1218 5.16971 29.2702 5.33471C29.7975 4.16713 30.0474 2.89331 30.0002 1.61304C29.9932 1.39417 29.9431 1.17882 29.8529 0.979293C29.7627 0.779764 29.634 0.59996 29.4743 0.450148C29.3146 0.300336 29.1269 0.18345 28.922 0.106163C28.7171 0.0288757 28.499 -0.00729864 28.2802 -0.000294803C28.0613 0.00670903 27.846 0.0567539 27.6464 0.146982C27.4469 0.237211 27.2671 0.365856 27.1173 0.525573C26.9675 0.68529 26.8506 0.87295 26.7733 1.07784C26.696 1.28273 26.6598 1.50084 26.6668 1.71971C26.6953 2.52482 26.5301 3.325 26.1852 4.05304C25.9441 3.40246 25.6003 2.79475 25.1668 2.25304C24.4301 1.41453 23.4948 0.774124 22.4467 0.390377C21.3985 0.00663104 20.2708 -0.108205 19.1668 0.0563719C17.9563 0.15354 16.7992 0.596699 15.8335 1.33304C14.7417 0.511694 13.4209 0.0514221 12.0552 0.0163719C10.3221 -0.151594 8.59318 0.373988 7.24683 1.47804C6.56321 2.08665 6.01127 2.82863 5.62491 3.65838C5.23855 4.48813 5.02595 5.38811 5.00016 6.30304C4.95443 7.76807 5.38098 9.20898 6.21683 10.413C5.2 11.2849 4.41068 12.3911 3.91704 13.6363C3.4234 14.8814 3.24028 16.228 3.3835 17.5597C2.06542 18.2942 1.03824 19.4575 0.472513 20.8563C-0.0932108 22.2552 -0.163436 23.8054 0.273498 25.2497C1.41518 29.2222 3.54013 32.8427 6.45183 35.7764C9.24518 38.5001 12.9971 40.0169 16.8985 39.9997H23.1018C27.0028 40.0172 30.7543 38.5003 33.5468 35.7764C36.4596 32.8433 38.5852 29.2226 39.7268 25.2497C40.0244 24.2486 40.0826 23.1916 39.8967 22.1639C39.7109 21.1362 39.2862 20.1665 38.6568 19.333ZM31.4185 8.34971C31.6764 8.3149 31.9389 8.3402 32.1854 8.42363C32.432 8.50705 32.6559 8.64634 32.8397 8.83062C33.0235 9.01489 33.1622 9.23916 33.2449 9.48591C33.3277 9.73266 33.3523 9.99521 33.3168 10.253C32.9673 12.4417 32.4006 14.5901 31.6252 16.6664H27.3568L29.5118 14.5114C29.8154 14.197 29.9834 13.776 29.9796 13.339C29.9758 12.902 29.8005 12.484 29.4915 12.175C29.1825 11.866 28.7645 11.6907 28.3275 11.6869C27.8905 11.6831 27.4695 11.8511 27.1552 12.1547L22.6435 16.6664H20.0618C19.9401 15.7898 20.0237 14.8969 20.306 14.0581C20.5883 13.2194 21.0615 12.4577 21.6885 11.833C22.4002 11.1147 25.1285 9.16637 31.4185 8.34971ZM8.3335 6.41471C8.34352 5.95587 8.44697 5.50389 8.63753 5.08637C8.82809 4.66886 9.10176 4.29457 9.44183 3.98637C10.1295 3.47811 10.9837 3.24833 11.8335 3.34304C12.244 3.32616 12.6534 3.39629 13.0348 3.54881C13.4163 3.70133 13.7612 3.93281 14.0468 4.22804C14.2717 4.47931 14.5471 4.6803 14.855 4.81787C15.1628 4.95543 15.4963 5.02648 15.8335 5.02637C16.1699 5.02471 16.5023 4.95233 16.8089 4.81394C17.1156 4.67554 17.3897 4.47422 17.6135 4.22304C17.8621 3.96009 18.1604 3.74912 18.4911 3.60235C18.8218 3.45558 19.1784 3.37593 19.5402 3.36804C20.0911 3.26991 20.6577 3.30988 21.1894 3.4844C21.7211 3.65891 22.2012 3.96251 22.5868 4.36804C23.0928 5.01578 23.3569 5.81978 23.3335 6.64137C23.3335 6.74971 23.3335 6.98637 23.3335 6.98637C21.121 7.78308 19.231 9.28372 17.9535 11.258C16.9011 10.0122 15.5008 9.10871 13.9319 8.66334C12.363 8.21797 10.6969 8.25094 9.14683 8.75804C8.59374 8.10525 8.30376 7.26978 8.3335 6.41471ZM6.66683 16.6664C6.66683 15.3403 7.19362 14.0685 8.1313 13.1308C9.06898 12.1932 10.3407 11.6664 11.6668 11.6664C12.9929 11.6664 14.2647 12.1932 15.2024 13.1308C16.14 14.0685 16.6668 15.3403 16.6668 16.6664H6.66683ZM36.5268 24.3147C35.531 27.7433 33.6982 30.8705 31.1935 33.4147C29.0278 35.5189 26.1214 36.6868 23.1018 36.6664H16.8985C13.8781 36.6861 10.9709 35.5183 8.8035 33.4147C6.29864 30.8705 4.46586 27.7434 3.47017 24.3147C3.32075 23.8101 3.29177 23.2775 3.38555 22.7597C3.47934 22.2418 3.69327 21.7532 4.01016 21.333C4.31765 20.9183 4.71825 20.5815 5.17969 20.35C5.64114 20.1184 6.15053 19.9984 6.66683 19.9997H33.3335C33.8515 19.9968 34.3629 20.116 34.8262 20.3477C35.2895 20.5793 35.6917 20.9169 36.0002 21.333C36.3148 21.7543 36.5263 22.2435 36.6178 22.7613C36.7093 23.2791 36.6781 23.8111 36.5268 24.3147Z" fill="black"/>
</g>
<defs>
<clipPath id="clip0_2_3533">
<rect width="40" height="40" fill="white"/>
</clipPath>
</defs>
</svg>
