<svg width="40" height="40" viewBox="0 0 40 40" fill="none" xmlns="http://www.w3.org/2000/svg">
<path d="M35 35V40H31.6667V35C31.6667 32.2433 29.4233 30 26.6667 30H18.3333V40H15V30H13.3333C10.5767 30 8.33333 32.2433 8.33333 35V40H5V35C5 30.405 8.73833 26.6667 13.3333 26.6667H26.6667C31.2617 26.6667 35 30.405 35 35ZM24.1667 33.3333C22.7867 33.3333 21.6667 34.4533 21.6667 35.8333C21.6667 37.2133 22.7867 38.3333 24.1667 38.3333C25.5467 38.3333 26.6667 37.2133 26.6667 35.8333C26.6667 34.4533 25.5467 33.3333 24.1667 33.3333ZM6.66667 5C6.66667 2.24333 8.91 0 11.6667 0C12.7333 0 14.0117 0.343333 15.1583 0.921667C16.19 0.555 18.07 0 20 0C21.93 0 23.81 0.555 24.84 0.921667C25.9867 0.343333 27.265 0 28.3333 0C31.09 0 33.3333 2.24333 33.3333 5C33.3333 7.175 31.9383 9.02833 29.9983 9.715C29.9983 10.6267 29.9983 11.6633 29.9983 11.665V15C29.9983 20.5233 25.5217 25 19.9983 25C14.475 25 9.99833 20.5233 9.99833 15V11.665C9.99833 11.665 9.99833 10.6267 10 9.715C8.05833 9.02833 6.66667 7.175 6.66667 5ZM26.6667 13.3333H13.3333V15C13.3333 16.875 14.13 18.6717 15.5167 19.935C16.9217 21.215 18.7483 21.815 20.66 21.6367C24.0283 21.315 26.6667 18.2433 26.6667 14.6433V13.335V13.3333ZM10 5C10 5.92 10.7483 6.66667 11.6667 6.66667H12.3583L12.8467 7.155C13.26 7.56833 13.3267 7.63667 13.3333 10H26.6667C26.6733 7.63667 26.7417 7.56833 27.1533 7.155L27.6417 6.66667H28.3333C29.2533 6.66667 30 5.92 30 5C30 4.08 29.2533 3.33333 28.3333 3.33333C27.7583 3.33333 26.7283 3.62 25.8683 4.16667L25.12 4.64333L24.3033 4.285C24.28 4.275 22.1017 3.33333 20 3.33333C17.8983 3.33333 15.7183 4.275 15.6967 4.285L14.8833 4.64167L14.1317 4.16667C13.2717 3.62 12.24 3.33333 11.6667 3.33333C10.7483 3.33333 10 4.08 10 5Z" fill="#303030"/>
</svg>
