<?xml version="1.0" encoding="utf-8"?>
<!-- Generator: Adobe Illustrator 24.3.0, SVG Export Plug-In . SVG Version: 6.00 Build 0)  -->
<svg version="1.1" id="Layer_1" xmlns="http://www.w3.org/2000/svg" xmlns:xlink="http://www.w3.org/1999/xlink" x="0px" y="0px"
	 viewBox="0 0 1200 1200" style="enable-background:new 0 0 1200 1200;" xml:space="preserve">
<style type="text/css">
	.st0{fill:#231F20;}
	.st1{font-family:'Montserrat-Regular';}
	.st2{font-size:141.3757px;}
	.st3{font-size:72.9348px;}
</style>
<g>
	<g>
		<text transform="matrix(1 0 0 1 495.0854 752.6943)" class="st0 st1 st2">alanced</text>
		<text transform="matrix(1 0 0 1 871.9814 827.4414)" class="st0 st1 st3">Meal</text>
	</g>
	<path class="st0" d="M145.21,543.57c0,11.77,0,23.54,0,35.31c0,34.64,0,69.28,0,103.93c0,20.82,0,41.63,0,62.45
		c0,4.74,2.94,7.94,7.5,8.54c0,0,0,0,0,0c3.33,1.35,7.08,0.89,10.6,0.89c4.62,0,9.24,0,13.86,0c8.91,0,17.83,0,26.74,0
		c18.07,0,36.14,0,54.21,0c36.17,0,72.35,0,108.52,0c35.97,0,71.94,0,107.92,0c3.07,0,6.45,0.42,9.33-0.88
		c2.64-1.19,4.62-3.17,5.81-5.81c1.33-2.94,0.88-6.41,0.88-9.53c0-4.62,0-9.24,0-13.86c0-17.94,0-35.89,0-53.83
		c0-72.26,0-144.52,0-216.78c0-8.94,0-17.88,0-26.83c0-3.32,0.42-6.86-0.74-10.03c-0.93-2.56-2.94-4.56-5.3-5.84
		c-2.79-1.51-6.07-1.17-9.11-1.17c-4.62,0-9.24,0-13.86,0c-8.9,0-17.8,0-26.7,0c-36.15,0-72.3,0-108.45,0c-36.15,0-72.3,0-108.45,0
		c-17.95,0-35.91,0-53.86,0c-6.44,0-12.67-0.66-16.57,5.42c-1.69,2.63-1.5,5.74-1.5,8.73c0,4.71,0,9.42,0,14.13
		c0,13.41,0,26.81,0,40.22c0,4.57-0.72,9.68,2.51,13.41c2.79,3.22,6.74,4.52,10.9,3.69c3.78-0.75,6.6-3.9,7.87-7.37
		c0.85-2.33,0.5-5.08,0.5-7.49c0-3.57,0-7.14,0-10.71c0-12.75,0-25.5,0-38.25c71.71,0,143.42,0,215.12,0c28.62,0,57.25,0,85.87,0
		c0,71.71,0,143.42,0,215.12c0,28.62,0,57.25,0,85.87c-59.13,0-118.26,0-177.38,0c13.46-14.98,18.64-35.64,15.72-55.48
		c-2.65-18.01-14.61-34.58-30.43-43.53c11.88-6.78,20.8-17.8,24.59-31.03c4.14-14.44,2.64-30.8-3.5-44.42
		c-5.52-12.24-16.22-21.83-28.58-26.88c-10.31-4.2-21.46-5.43-32.52-5.43c-13.74,0-27.49,0-41.23,0c-8.09,0-16.18,0-24.27,0
		c-2.6,0-5.21,0-7.81,0c-1.18,0-2.33,0.14-3.42-0.25c-2.97-1.06-6.45-0.09-9.36,0.71c-2.64,0.72-4.34,3.01-5.09,5.51
		c-0.34,1.16-0.32,2.39-0.32,3.59C145.21,538.33,145.21,540.95,145.21,543.57z M168.18,645.87c11.8,0,23.61,0,35.41,0
		c13.07,0,26.37-0.7,39.43,0.24c13.77,0.99,26.78,6.58,34.88,18.1c8.12,11.55,9.12,27.72,4.37,40.77
		c-4.75,13.06-16.36,21.83-29.53,25.12c-6.99,1.74-14.13,1.76-21.28,1.76c-21.09,0-42.18,0-63.27,0c0-26.49,0-52.98,0-79.47
		C168.18,650.22,168.18,648.05,168.18,645.87z M222.14,623.87c-17.98,0-35.97,0-53.95,0c0-25.23,0-50.47,0-75.7c0,0,0-0.01,0-0.01
		c12.08,0,24.16,0,36.23,0c7.65,0,15.31,0,22.96,0c7.04,0,14.05,0,21.03,1.16c12.64,2.11,24.73,8.36,29.64,20.84
		c4.96,12.63,3.09,29.25-5.71,39.73C260,624.58,239.63,623.87,222.14,623.87z"/>
</g>
</svg>
