<?xml version="1.0" encoding="utf-8"?>
<!-- Generator: Adobe Illustrator 24.3.0, SVG Export Plug-In . SVG Version: 6.00 Build 0)  -->
<svg version="1.1" id="Layer_1" xmlns="http://www.w3.org/2000/svg" xmlns:xlink="http://www.w3.org/1999/xlink" x="0px" y="0px"
	 viewBox="0 0 512 512" style="enable-background:new 0 0 512 512;" xml:space="preserve">
<style type="text/css">
	.st0{fill:#FFFFFF;}
	.st1{fill:#231F20;}
</style>
<rect x="-0.53" y="0.56" class="st0" width="512" height="512"/>
<g>
	<path class="st1" d="M128.06,227.89c0,8.68,0,17.37,0,26.05c0,25.55,0,51.11,0,76.66c0,15.35,0,30.71,0,46.06
		c0,3.49,2.17,5.86,5.53,6.3c0,0,0,0,0,0c2.46,1,5.22,0.65,7.82,0.65c3.41,0,6.81,0,10.22,0c6.58,0,13.15,0,19.72,0
		c13.33,0,26.66,0,39.99,0c26.68,0,53.36,0,80.05,0c26.53,0,53.07,0,79.6,0c2.26,0,4.76,0.31,6.88-0.65
		c1.94-0.88,3.41-2.34,4.28-4.29c0.98-2.17,0.65-4.73,0.65-7.03c0-3.41,0-6.81,0-10.22c0-13.24,0-26.47,0-39.71
		c0-53.3,0-106.6,0-159.9c0-6.6,0-13.19,0-19.79c0-2.45,0.31-5.06-0.55-7.4c-0.69-1.89-2.17-3.37-3.91-4.31
		c-2.05-1.12-4.47-0.86-6.72-0.86c-3.41,0-6.81,0-10.22,0c-6.57,0-13.13,0-19.7,0c-26.66,0-53.33,0-80,0c-26.67,0-53.33,0-80,0
		c-13.24,0-26.49,0-39.73,0c-4.75,0-9.34-0.49-12.22,4c-1.24,1.94-1.11,4.24-1.11,6.44c0,3.47,0,6.95,0,10.42
		c0,9.89,0,19.78,0,29.67c0,3.37-0.53,7.14,1.85,9.9c2.06,2.37,4.97,3.33,8.04,2.72c2.79-0.55,4.87-2.87,5.8-5.44
		c0.62-1.72,0.37-3.75,0.37-5.53c0-2.63,0-5.26,0-7.9c0-9.41,0-18.81,0-28.22c52.89,0,105.79,0,158.68,0c21.11,0,42.23,0,63.34,0
		c0,52.89,0,105.79,0,158.68c0,21.11,0,42.23,0,63.34c-43.61,0-87.23,0-130.84,0c9.93-11.05,13.75-26.29,11.6-40.92
		c-1.95-13.28-10.78-25.51-22.44-32.11c8.76-5,15.34-13.13,18.14-22.89c3.06-10.65,1.95-22.72-2.58-32.76
		c-4.07-9.03-11.96-16.1-21.08-19.82c-7.6-3.1-15.83-4-23.99-4c-10.14,0-20.28,0-30.42,0c-5.97,0-11.93,0-17.9,0
		c-1.92,0-3.84,0-5.76,0c-0.87,0-1.72,0.1-2.52-0.19c-2.19-0.78-4.76-0.06-6.9,0.52c-1.95,0.53-3.2,2.22-3.75,4.07
		c-0.25,0.85-0.24,1.77-0.24,2.65C128.06,224.03,128.06,225.96,128.06,227.89z M145.01,303.35c8.71,0,17.41,0,26.12,0
		c9.64,0,19.45-0.51,29.08,0.18c10.16,0.73,19.75,4.85,25.72,13.35c5.99,8.52,6.72,20.45,3.22,30.07
		c-3.5,9.63-12.07,16.1-21.78,18.53c-5.15,1.29-10.43,1.3-15.69,1.3c-15.56,0-31.11,0-46.67,0c0-19.54,0-39.08,0-58.62
		C145.01,306.56,145.01,304.96,145.01,303.35z M184.8,287.12c-13.27,0-26.53,0-39.8,0c0-18.61,0-37.22,0-55.84c0,0,0,0,0-0.01
		c8.91,0,17.82,0,26.73,0c5.65,0,11.29,0,16.94,0c5.19,0,10.37,0,15.51,0.86c9.32,1.56,18.24,6.16,21.86,15.37
		c3.66,9.31,2.28,21.58-4.21,29.3C212.73,287.64,197.7,287.12,184.8,287.12z"/>
</g>
</svg>
