<svg width="16" height="16" viewBox="0 0 16 16" fill="none" xmlns="http://www.w3.org/2000/svg">
<g clip-path="url(#clip0_25_29)">
<path d="M7.99992 0C6.5473 3.29195e-05 5.12741 0.431477 3.92034 1.23961C2.71327 2.04775 1.77339 3.19616 1.21992 4.53921C0.666446 5.88226 0.52431 7.35942 0.811539 8.78336C1.09877 10.2073 1.80242 11.5139 2.83325 12.5373L5.46192 14.9647C6.13758 15.626 7.04473 15.9975 7.99021 16C8.93569 16.0025 9.84479 15.6358 10.5239 14.978L13.1853 12.5187C14.2108 11.4931 14.9092 10.1864 15.1921 8.76393C15.4751 7.34144 15.3298 5.86698 14.7748 4.52702C14.2198 3.18706 13.2799 2.04176 12.074 1.23596C10.8681 0.430163 9.45028 4.60393e-05 7.99992 0ZM12.2613 11.558L9.60525 14.012C9.16853 14.4235 8.59054 14.6516 7.99052 14.6494C7.39051 14.6471 6.81423 14.4147 6.38059 14L3.75725 11.576C3.05955 10.8783 2.54469 10.0193 2.25827 9.07507C1.97185 8.13085 1.92271 7.13057 2.11521 6.16283C2.30771 5.19509 2.7359 4.28975 3.36186 3.52702C3.98782 2.76429 4.79222 2.16771 5.70381 1.79011C6.6154 1.41252 7.60605 1.26556 8.588 1.36228C9.56995 1.45899 10.5129 1.79637 11.3333 2.34455C12.1537 2.89273 12.8263 3.63478 13.2914 4.50497C13.7566 5.37516 13.9999 6.34663 13.9999 7.33333C14.0028 8.11736 13.8507 8.89422 13.5524 9.61925C13.254 10.3443 12.8152 11.0032 12.2613 11.558ZM11.1399 5.10867L9.13992 3.72133C8.80484 3.4898 8.40721 3.36578 7.99992 3.36578C7.59263 3.36578 7.19499 3.4898 6.85992 3.72133L4.85992 5.10867C4.59452 5.29278 4.37767 5.53843 4.2279 5.82461C4.07814 6.1108 3.99991 6.429 3.99992 6.752V9C3.99992 9.44203 4.17551 9.86595 4.48807 10.1785C4.80063 10.4911 5.22456 10.6667 5.66658 10.6667H10.3333C10.7753 10.6667 11.1992 10.4911 11.5118 10.1785C11.8243 9.86595 11.9999 9.44203 11.9999 9V6.752C11.9999 6.429 11.9217 6.1108 11.7719 5.82461C11.6222 5.53843 11.4053 5.29278 11.1399 5.10867ZM10.6666 9C10.6666 9.08841 10.6315 9.17319 10.569 9.2357C10.5064 9.29821 10.4217 9.33333 10.3333 9.33333H9.33325V8C9.33325 7.82319 9.26301 7.65362 9.13799 7.5286C9.01297 7.40357 8.8434 7.33333 8.66659 7.33333H7.33325C7.15644 7.33333 6.98687 7.40357 6.86185 7.5286C6.73682 7.65362 6.66659 7.82319 6.66659 8V9.33333H5.66658C5.57818 9.33333 5.49339 9.29821 5.43088 9.2357C5.36837 9.17319 5.33325 9.08841 5.33325 9V6.752C5.33321 6.6443 5.35927 6.53818 5.4092 6.44275C5.45912 6.34731 5.53142 6.26539 5.61992 6.204L7.61992 4.81667C7.73173 4.73978 7.86423 4.69862 7.99992 4.69862C8.13561 4.69862 8.26811 4.73978 8.37992 4.81667L10.3799 6.204C10.4684 6.26539 10.5407 6.34731 10.5906 6.44275C10.6406 6.53818 10.6666 6.6443 10.6666 6.752V9Z" fill="black"/>
</g>
<defs>
<clipPath id="clip0_25_29">
<rect width="16" height="16" fill="white"/>
</clipPath>
</defs>
</svg>
