<svg width="16" height="16" viewBox="0 0 16 16" fill="none" xmlns="http://www.w3.org/2000/svg">
<g clip-path="url(#clip0_25_34)">
<path d="M8 6.276V7.33333C8 7.702 8.298 8 8.66667 8H9.724C10.436 8 11.1053 7.72267 11.6093 7.21867L15.414 3.414C16.194 2.634 16.194 1.366 15.414 0.586C14.634 -0.194 13.366 -0.194 12.586 0.586L8.78133 4.39067C8.27733 4.89467 8 5.564 8 6.276ZM9.33333 6.276C9.33333 5.92 9.472 5.58533 9.724 5.33333L13.5287 1.52867C13.7893 1.268 14.2107 1.268 14.4713 1.52867C14.732 1.78933 14.7313 2.21133 14.4713 2.47133L10.6667 6.276C10.4147 6.528 10.08 6.66667 9.724 6.66667H9.33333V6.276ZM14 11.3333H13.3333V9.33333C13.3333 8.96467 13.0353 8.66667 12.6667 8.66667C12.298 8.66667 12 8.96467 12 9.33333V11.3333H8.66667C7.564 11.3333 6.66667 12.2307 6.66667 13.3333V13.6667C6.66667 14.218 6.218 14.6667 5.66667 14.6667C5.11533 14.6667 4.66667 14.218 4.66667 13.6667V2.33333C4.66667 1.974 4.578 1.63733 4.43267 1.33333H9.33333C9.702 1.33333 10 1.03533 10 0.666667C10 0.298 9.702 0 9.33333 0H2.33333C1.04667 0 0 1.04667 0 2.33333V2.66667C0 3.76933 0.897333 4.66667 2 4.66667H3.33333V13.6667C3.33333 14.9533 4.37933 15.9993 5.66533 16H13.6667C14.9533 16 16 14.9533 16 13.6667V13.3333C16 12.2307 15.1027 11.3333 14 11.3333ZM3.33333 3.33333H2C1.632 3.33333 1.33333 3.03467 1.33333 2.66667V2.33333C1.33333 1.782 1.782 1.33333 2.33333 1.33333C2.88467 1.33333 3.33333 1.782 3.33333 2.33333V3.33333ZM14.6667 13.6667C14.6667 14.218 14.218 14.6667 13.6667 14.6667H7.77467C7.91933 14.3633 8 14.024 8 13.6667V13.3333C8 12.9653 8.29867 12.6667 8.66667 12.6667H14C14.368 12.6667 14.6667 12.9653 14.6667 13.3333V13.6667Z" fill="black"/>
</g>
<defs>
<clipPath id="clip0_25_34">
<rect width="16" height="16" fill="white"/>
</clipPath>
</defs>
</svg>
