<svg width="16" height="16" viewBox="0 0 16 16" fill="none" xmlns="http://www.w3.org/2000/svg">
<g clip-path="url(#clip0_25_56)">
<path d="M15.0506 8.34683L9.23259 2.56683C8.67126 2.01017 7.86859 1.73817 7.08526 1.84017L3.21659 2.27417L1.13792 0.1955C0.877256 -0.0651667 0.455922 -0.0651667 0.195256 0.1955C-0.0654108 0.456167 -0.0654108 0.8775 0.195256 1.13817L2.27392 3.21683L1.80992 7.2755C1.74926 8.03683 2.02526 8.78083 2.56726 9.31683L8.37592 15.0802C8.98259 15.6842 9.78792 16.0162 10.6426 16.0162H10.6559C11.5159 16.0128 12.3226 15.6742 12.9279 15.0622L15.0679 12.9008C16.3146 11.6408 16.3073 9.5975 15.0513 8.34617L15.0506 8.34683ZM14.1199 11.9642L11.9799 14.1255C11.6259 14.4835 11.1539 14.6815 10.6506 14.6835H10.6433C10.1426 14.6835 9.67126 14.4888 9.31526 14.1348L3.50592 8.37017C3.24326 8.11017 3.10992 7.75017 3.13659 7.40417L3.47792 4.4215L4.71592 5.6595C4.68659 5.76883 4.66659 5.88217 4.66659 6.00083C4.66659 6.7375 5.26326 7.33417 5.99992 7.33417C6.73659 7.33417 7.33326 6.7375 7.33326 6.00083C7.33326 5.26417 6.73659 4.6675 5.99992 4.6675C5.88126 4.6675 5.76859 4.68817 5.65859 4.71683L4.42259 3.48083L7.23992 3.16483L7.25392 3.16283C7.63259 3.11283 8.02125 3.24417 8.29325 3.51283L14.1106 9.2915C14.8473 10.0262 14.8513 11.2242 14.1199 11.9642ZM11.4706 8.53017C11.2099 8.2695 10.7886 8.2695 10.5279 8.53017L8.52792 10.5302C8.26725 10.7908 8.26725 11.2122 8.52792 11.4728L10.1946 13.1395C10.3246 13.2695 10.4953 13.3348 10.6659 13.3348C10.8366 13.3348 11.0073 13.2695 11.1373 13.1395L13.1373 11.1395C13.3979 10.8788 13.3979 10.4575 13.1373 10.1968L11.4706 8.53017ZM10.6659 11.7255L9.94192 11.0015L10.9993 9.94417L11.7233 10.6682L10.6659 11.7255Z" fill="black"/>
</g>
<defs>
<clipPath id="clip0_25_56">
<rect width="16" height="16" fill="white"/>
</clipPath>
</defs>
</svg>
