<svg width="10" height="10" viewBox="0 0 10 10" fill="none" xmlns="http://www.w3.org/2000/svg">
<path d="M9.37289 2.53291C9.20718 2.53305 9.04832 2.599 8.93122 2.71624L5.73455 5.91291C5.63782 6.00967 5.52298 6.08642 5.39658 6.13878C5.27018 6.19115 5.1347 6.2181 4.99789 6.2181C4.86107 6.2181 4.72559 6.19115 4.59919 6.13878C4.47279 6.08642 4.35795 6.00967 4.26122 5.91291L1.06872 2.72041C0.950843 2.60656 0.792967 2.54356 0.629094 2.54499C0.465221 2.54641 0.308463 2.61214 0.192583 2.72802C0.0767031 2.8439 0.0109721 3.00066 0.00954824 3.16453C0.0081244 3.32841 0.0711203 3.48628 0.184969 3.60416L3.37497 6.79666C3.80508 7.22592 4.38792 7.46701 4.99559 7.46701C5.60326 7.46701 6.18611 7.22592 6.61622 6.79666L9.81497 3.59999C9.90243 3.51258 9.962 3.40119 9.98614 3.27992C10.0103 3.15864 9.99791 3.03293 9.95058 2.91869C9.90325 2.80445 9.8231 2.70682 9.72027 2.63815C9.61743 2.56948 9.49654 2.53285 9.37289 2.53291Z" fill="#38754E"/>
</svg>
