<svg width="16" height="10" viewBox="0 0 16 10" fill="none" xmlns="http://www.w3.org/2000/svg">
<path d="M4.14 0.967049C4.20248 1.02902 4.25208 1.10276 4.28593 1.184C4.31977 1.26524 4.3372 1.35237 4.3372 1.44038C4.3372 1.52839 4.31977 1.61553 4.28593 1.69677C4.25208 1.77801 4.20248 1.85174 4.14 1.91372L1.72 4.33372L15.3333 4.33372C15.5101 4.33372 15.6797 4.40395 15.8047 4.52898C15.9298 4.654 16 4.82357 16 5.00038V5.00038C16 5.17719 15.9298 5.34676 15.8047 5.47179C15.6797 5.59681 15.5101 5.66705 15.3333 5.66705L1.72667 5.66705L4.14 8.08038C4.21813 8.13752 4.28288 8.21099 4.32975 8.29568C4.37662 8.38038 4.40448 8.47426 4.4114 8.57081C4.41833 8.66735 4.40414 8.76425 4.36984 8.85476C4.33553 8.94527 4.28193 9.02723 4.21275 9.09494C4.14358 9.16264 4.06049 9.21447 3.96926 9.24682C3.87803 9.27917 3.78085 9.29127 3.68447 9.28227C3.5881 9.27327 3.49484 9.2434 3.41117 9.19472C3.32751 9.14604 3.25545 9.07972 3.2 9.00038L0.586666 6.38705C0.212131 6.01205 0.00175948 5.50372 0.00175948 4.97372C0.00175947 4.44371 0.212131 3.93538 0.586666 3.56038L3.2 0.947048C3.32753 0.825502 3.49799 0.759377 3.67413 0.763125C3.85026 0.766872 4.01775 0.840188 4.14 0.967049Z" fill="#303030"/>
</svg>
