<svg width="16" height="16" viewBox="0 0 16 16" fill="none" xmlns="http://www.w3.org/2000/svg">
<g clip-path="url(#clip0_2_5070)">
<path d="M11.86 12.033C11.7975 11.971 11.7479 11.8972 11.7141 11.816C11.6802 11.7348 11.6628 11.6476 11.6628 11.5596C11.6628 11.4716 11.6802 11.3845 11.7141 11.3032C11.7479 11.222 11.7975 11.1483 11.86 11.0863L14.28 8.66628L0.666667 8.66628C0.489856 8.66628 0.320286 8.59605 0.195262 8.47102C0.070238 8.346 5.32039e-08 8.17643 5.10954e-08 7.99962H5.10954e-08C4.8987e-08 7.82281 0.070238 7.65324 0.195262 7.52821C0.320286 7.40319 0.489856 7.33295 0.666667 7.33295L14.2733 7.33295L11.86 4.91962C11.7819 4.86248 11.7171 4.78901 11.6703 4.70432C11.6234 4.61962 11.5955 4.52574 11.5886 4.42919C11.5817 4.33265 11.5959 4.23575 11.6302 4.14524C11.6645 4.05473 11.7181 3.97277 11.7872 3.90506C11.8564 3.83736 11.9395 3.78553 12.0307 3.75318C12.122 3.72083 12.2192 3.70873 12.3155 3.71773C12.4119 3.72673 12.5052 3.7566 12.5888 3.80528C12.6725 3.85396 12.7446 3.92028 12.8 3.99962L15.4133 6.61295C15.7879 6.98795 15.9982 7.49628 15.9982 8.02628C15.9982 8.55629 15.7879 9.06462 15.4133 9.43962L12.8 12.053C12.6725 12.1745 12.502 12.2406 12.3259 12.2369C12.1497 12.2331 11.9822 12.1598 11.86 12.033Z" fill="#38754E"/>
</g>
<defs>
<clipPath id="clip0_2_5070">
<rect width="16" height="16" fill="white" transform="matrix(1.19249e-08 1 1 -1.19249e-08 0 0)"/>
</clipPath>
</defs>
</svg>
