<svg width="16" height="16" viewBox="0 0 16 16" fill="none" xmlns="http://www.w3.org/2000/svg">
<path d="M3.33333 8.66711L10 8.66711L7.80667 10.8604C7.74418 10.9224 7.69458 10.9962 7.66074 11.0774C7.62689 11.1586 7.60947 11.2458 7.60947 11.3338C7.60947 11.4218 7.62689 11.5089 7.66074 11.5902C7.69458 11.6714 7.74418 11.7451 7.80667 11.8071C7.93157 11.9313 8.10054 12.001 8.27667 12.001C8.45279 12.001 8.62176 11.9313 8.74667 11.8071L11.6067 8.94045C11.8571 8.69155 11.9985 8.3535 12 8.00045C11.9968 7.64971 11.8554 7.31438 11.6067 7.06711L8.74667 4.20045C8.68451 4.13873 8.6108 4.08985 8.52975 4.05662C8.44871 4.02338 8.36191 4.00643 8.27431 4.00674C8.18671 4.00705 8.10003 4.02461 8.01922 4.05842C7.93841 4.09223 7.86505 4.14162 7.80333 4.20378C7.74161 4.26594 7.69274 4.33965 7.6595 4.42069C7.62627 4.50174 7.60932 4.58854 7.60963 4.67614C7.60994 4.76374 7.6275 4.85041 7.66131 4.93122C7.69511 5.01203 7.74451 5.08539 7.80667 5.14711L10 7.33378L3.33333 7.33378C3.15652 7.33378 2.98695 7.40402 2.86193 7.52904C2.7369 7.65407 2.66667 7.82364 2.66667 8.00045C2.66667 8.17726 2.7369 8.34683 2.86193 8.47185C2.98695 8.59688 3.15652 8.66711 3.33333 8.66711Z" fill="white"/>
</svg>
