<svg width="24" height="24" viewBox="0 0 24 24" fill="none" xmlns="http://www.w3.org/2000/svg">
<g clip-path="url(#clip0_2_3376)">
<path d="M23.938 10.654L20.867 2.319C20.444 1.168 19.233 0.538 18.043 0.854L13 2.199V1C13 0.448 12.552 0 12 0C11.448 0 11 0.448 11 1V2.732L5.746 4.133C4.491 4.468 3.473 5.396 3.023 6.615L0.062 14.654C0.021 14.765 0 15.301 0 15.301C0 17.807 2 19.999 4.503 19.999C5.661 19.999 6.752 19.565 7.597 18.763C8.488 17.917 8.999 16.727 8.999 15.499C8.999 15.499 8.978 14.767 8.939 14.657L5.87 6.216C5.994 6.153 6.125 6.102 6.262 6.066L11 4.802V22H5C4.448 22 4 22.448 4 23C4 23.552 4.448 24 5 24H19C19.552 24 20 23.552 20 23C20 22.448 19.552 22 19 22H13V4.268L17.896 2.962L15.062 10.653C15.021 10.764 15 11.3 15 11.3C15 13.806 16.871 15.867 19.26 15.992C20.509 16.058 21.694 15.621 22.598 14.763C23.489 13.917 24 12.727 24 11.499C24 11.499 23.979 10.764 23.938 10.653V10.654ZM4.364 17.997C3.283 17.94 2.378 17.095 2.098 16H6.95C6.85 16.499 6.6 16.954 6.221 17.313C5.719 17.791 5.056 18.038 4.365 17.996L4.364 17.997ZM6.572 14H2.434L4.517 8.347L6.572 14ZM19.5 4.393L21.566 10H17.434L19.5 4.393ZM19.364 13.997C18.283 13.94 17.378 13.095 17.098 12H21.949C21.849 12.499 21.599 12.954 21.22 13.313C20.718 13.791 20.055 14.033 19.364 13.997Z" fill="white"/>
</g>
<defs>
<clipPath id="clip0_2_3376">
<rect width="24" height="24" fill="white"/>
</clipPath>
</defs>
</svg>
