<svg width="12" height="12" viewBox="0 0 12 12" fill="none" xmlns="http://www.w3.org/2000/svg">
<path d="M11.5971 5.79952C11.3314 5.44474 10.9539 5.18985 10.5256 5.07602C10.7343 4.46912 10.8886 3.84481 10.9866 3.21052C11.0186 2.97995 10.9966 2.74511 10.9224 2.52446C10.8482 2.30382 10.7239 2.10341 10.5591 1.93901C10.3943 1.7746 10.1936 1.65069 9.97276 1.57703C9.75194 1.50337 9.51704 1.48198 9.28655 1.51452C9.22355 1.52302 9.03655 1.55052 8.78105 1.60002C8.93926 1.24975 9.01422 0.867603 9.00005 0.483521C8.99795 0.41786 8.98294 0.353256 8.95587 0.293397C8.9288 0.233538 8.89021 0.179597 8.84229 0.134654C8.79438 0.0897103 8.73808 0.0546444 8.67661 0.0314582C8.61514 0.00827209 8.54971 -0.00258022 8.48405 -0.000479066C8.41839 0.00162208 8.35379 0.0166355 8.29393 0.0437041C8.23407 0.0707727 8.18013 0.109366 8.13518 0.157281C8.09024 0.205196 8.05517 0.261494 8.03199 0.322961C8.0088 0.384428 7.99795 0.44986 8.00005 0.515521C8.00858 0.757054 7.95902 0.997108 7.85555 1.21552C7.78324 1.02035 7.68009 0.838035 7.55005 0.675521C7.32902 0.423969 7.04845 0.231846 6.734 0.116723C6.41955 0.00159869 6.08125 -0.0328521 5.75005 0.0165209C5.38689 0.0456715 5.03977 0.178619 4.75005 0.399521C4.42252 0.153118 4.02628 0.015036 3.61655 0.00452094C3.09664 -0.0458688 2.57795 0.111806 2.17405 0.443021C1.96896 0.625606 1.80338 0.848199 1.68747 1.09712C1.57157 1.34605 1.50779 1.61604 1.50005 1.89052C1.48633 2.33003 1.61429 2.7623 1.86505 3.12352C1.56 3.38507 1.3232 3.71694 1.17511 4.09048C1.02702 4.46402 0.972084 4.868 1.01505 5.26752C0.619627 5.48787 0.311471 5.83685 0.141754 6.2565C-0.0279633 6.67616 -0.0490309 7.14124 0.0820495 7.57452C0.424554 8.76628 1.06204 9.85243 1.93555 10.7325C2.77355 11.5496 3.89912 12.0047 5.06955 11.9995H6.93055C8.10085 12.0048 9.22629 11.5497 10.0641 10.7325C10.9379 9.85259 11.5756 8.76639 11.9181 7.57452C12.0073 7.27419 12.0248 6.95709 11.969 6.64878C11.9133 6.34046 11.7859 6.04956 11.5971 5.79952ZM9.42555 2.50452C9.50293 2.49408 9.58167 2.50167 9.65563 2.5267C9.72959 2.55172 9.79676 2.59351 9.8519 2.64879C9.90704 2.70408 9.94865 2.77136 9.97348 2.84538C9.99831 2.91941 10.0057 2.99817 9.99505 3.07552C9.89019 3.73212 9.72019 4.37663 9.48755 4.99952H8.20705L8.85355 4.35302C8.94463 4.25872 8.99503 4.13242 8.99389 4.00132C8.99275 3.87022 8.94016 3.74482 8.84746 3.65211C8.75476 3.55941 8.62935 3.50682 8.49825 3.50568C8.36715 3.50454 8.24085 3.55494 8.14655 3.64602L6.79305 4.99952H6.01855C5.98203 4.73655 6.00711 4.46868 6.09179 4.21705C6.17648 3.96542 6.31846 3.73691 6.50655 3.54952C6.72005 3.33402 7.53855 2.74952 9.42555 2.50452ZM2.50005 1.92402C2.50306 1.78637 2.53409 1.65078 2.59126 1.52552C2.64843 1.40027 2.73053 1.28798 2.83255 1.19552C3.03884 1.04304 3.29511 0.974109 3.55005 1.00252C3.67319 0.997458 3.79601 1.0185 3.91045 1.06425C4.02488 1.11001 4.12835 1.17945 4.21405 1.26802C4.28152 1.3434 4.36413 1.4037 4.45649 1.44497C4.54885 1.48624 4.64889 1.50755 4.75005 1.50752C4.85098 1.50702 4.95068 1.48531 5.04267 1.44379C5.13467 1.40227 5.2169 1.34188 5.28405 1.26652C5.35862 1.18764 5.44811 1.12434 5.54733 1.08031C5.64655 1.03628 5.75353 1.01239 5.86205 1.01002C6.02733 0.980581 6.19732 0.992575 6.35683 1.04493C6.51633 1.09728 6.66037 1.18836 6.77605 1.31002C6.92784 1.50434 7.00706 1.74554 7.00005 1.99202C7.00005 2.02452 7.00005 2.09552 7.00005 2.09552C6.3363 2.33453 5.7693 2.78472 5.38605 3.37702C5.07032 3.00326 4.65024 2.73222 4.17957 2.59861C3.7089 2.465 3.20906 2.47489 2.74405 2.62702C2.57812 2.43119 2.49113 2.18054 2.50005 1.92402ZM2.00005 4.99952C2.00005 4.6017 2.15809 4.22017 2.43939 3.93886C2.72069 3.65756 3.10223 3.49952 3.50005 3.49952C3.89787 3.49952 4.27941 3.65756 4.56071 3.93886C4.84202 4.22017 5.00005 4.6017 5.00005 4.99952H2.00005ZM10.9581 7.29402C10.6593 8.3226 10.1095 9.26075 9.35805 10.024C8.70833 10.6553 7.83641 11.0057 6.93055 10.9995H5.06955C4.16344 11.0054 3.29128 10.6551 2.64105 10.024C1.88959 9.26077 1.33976 8.32262 1.04105 7.29402C0.996225 7.14264 0.987531 6.98286 1.01567 6.8275C1.0438 6.67215 1.10798 6.52557 1.20305 6.39952C1.29529 6.27509 1.41547 6.17407 1.55391 6.1046C1.69234 6.03512 1.84516 5.99913 2.00005 5.99952H10.0001C10.1554 5.99866 10.3089 6.03442 10.4479 6.10392C10.5868 6.17341 10.7075 6.27468 10.8001 6.39952C10.8944 6.52591 10.9579 6.67266 10.9853 6.828C11.0128 6.98334 11.0034 7.14294 10.9581 7.29402Z" fill="white"/>
</svg>
