<svg width="40" height="40" viewBox="0 0 40 40" fill="none" xmlns="http://www.w3.org/2000/svg">
<g clip-path="url(#clip0_2_3380)">
<path d="M37.6266 20.8668L23.0816 6.41684C21.6783 5.02517 19.6716 4.34517 17.7133 4.60017L8.04159 5.68517L2.84493 0.488506C2.19326 -0.163161 1.13993 -0.163161 0.488262 0.488506C-0.163405 1.14017 -0.163405 2.19351 0.488262 2.84517L5.68493 8.04184L4.52493 18.1885C4.37326 20.0918 5.06326 21.9518 6.41826 23.2918L20.9399 37.7002C22.4566 39.2102 24.4699 40.0402 26.6066 40.0402H26.6399C28.7899 40.0318 30.8066 39.1852 32.3199 37.6552L37.6699 32.2518C40.7866 29.1018 40.7683 23.9935 37.6283 20.8652L37.6266 20.8668ZM35.2999 29.9102L29.9499 35.3135C29.0649 36.2085 27.8849 36.7035 26.6266 36.7085H26.6083C25.3566 36.7085 24.1783 36.2218 23.2883 35.3368L8.76493 20.9252C8.10826 20.2752 7.77493 19.3752 7.8416 18.5102L8.69493 11.0535L11.7899 14.1485C11.7166 14.4218 11.6666 14.7052 11.6666 15.0018C11.6666 16.8435 13.1583 18.3352 14.9999 18.3352C16.8416 18.3352 18.3333 16.8435 18.3333 15.0018C18.3333 13.1602 16.8416 11.6685 14.9999 11.6685C14.7033 11.6685 14.4216 11.7202 14.1466 11.7918L11.0566 8.70184L18.0999 7.91184L18.1349 7.90684C19.0816 7.78184 20.0533 8.11017 20.7333 8.78184L35.2766 23.2285C37.1183 25.0652 37.1283 28.0602 35.2999 29.9102ZM28.6766 21.3252C28.0249 20.6735 26.9716 20.6735 26.3199 21.3252L21.3199 26.3252C20.6683 26.9768 20.6683 28.0302 21.3199 28.6818L25.4866 32.8485C25.8116 33.1735 26.2383 33.3368 26.6649 33.3368C27.0916 33.3368 27.5183 33.1735 27.8433 32.8485L32.8433 27.8485C33.4949 27.1968 33.4949 26.1435 32.8433 25.4918L28.6766 21.3252ZM26.6649 29.3135L24.8549 27.5035L27.4983 24.8602L29.3083 26.6702L26.6649 29.3135Z" fill="#38754E"/>
</g>
<defs>
<clipPath id="clip0_2_3380">
<rect width="40" height="40" fill="white"/>
</clipPath>
</defs>
</svg>
