<svg width="20" height="20" viewBox="0 0 20 20" fill="none" xmlns="http://www.w3.org/2000/svg">
<g clip-path="url(#clip0_2_3318)">
<path d="M17.9868 1.36003C17.4902 0.617531 16.691 0.140864 15.7927 0.052531C14.8693 -0.0358023 13.966 0.285031 13.311 0.939198L0.939344 13.3117C0.284344 13.9667 -0.0381557 14.8709 0.0526777 15.7934C0.141011 16.6917 0.618511 17.4909 1.36018 17.9867C3.37768 19.3342 5.69101 19.9925 7.99351 19.9925C11.0935 19.9925 14.1735 18.7992 16.486 16.4859C20.5168 12.455 21.1477 6.09336 17.9868 1.36003ZM15.5377 13.7692L10.9352 9.1667H17.416C17.2127 10.8134 16.5793 12.4067 15.5377 13.7692ZM9.16684 10.9342L13.7693 15.5367C12.406 16.5784 10.8135 17.2117 9.16684 17.415V10.9342ZM15.0793 2.7067C15.1893 2.59753 15.336 2.53753 15.4893 2.53753C15.5085 2.53753 15.5285 2.53753 15.5477 2.54003C15.6552 2.55086 15.8052 2.59503 15.9077 2.74836C16.7135 3.95586 17.2035 5.2967 17.3968 6.6667H11.1193L15.0793 2.7067ZM2.54018 15.5475C2.52268 15.3734 2.58351 15.2025 2.70684 15.0792L6.66684 11.1192V17.3959C5.29684 17.2025 3.95518 16.7125 2.74851 15.9067C2.59601 15.805 2.55101 15.6559 2.54018 15.5475Z" fill="#F2790F"/>
</g>
<defs>
<clipPath id="clip0_2_3318">
<rect width="20" height="20" fill="white"/>
</clipPath>
</defs>
</svg>
