<svg width="14" height="14" viewBox="0 0 14 14" fill="none" xmlns="http://www.w3.org/2000/svg">
<g clip-path="url(#clip0_2_954)">
<path d="M3.20898 9.91699C3.69223 9.91699 4.08398 9.52524 4.08398 9.04199C4.08398 8.55874 3.69223 8.16699 3.20898 8.16699C2.72574 8.16699 2.33398 8.55874 2.33398 9.04199C2.33398 9.52524 2.72574 9.91699 3.20898 9.91699Z" fill="black"/>
<path d="M11.0833 1.75H2.91667C2.1434 1.75093 1.40208 2.05851 0.855295 2.60529C0.308514 3.15208 0.00092625 3.8934 0 4.66667L0 9.33333C0.00092625 10.1066 0.308514 10.8479 0.855295 11.3947C1.40208 11.9415 2.1434 12.2491 2.91667 12.25H11.0833C11.8566 12.2491 12.5979 11.9415 13.1447 11.3947C13.6915 10.8479 13.9991 10.1066 14 9.33333V4.66667C13.9991 3.8934 13.6915 3.15208 13.1447 2.60529C12.5979 2.05851 11.8566 1.75093 11.0833 1.75ZM2.91667 2.91667H11.0833C11.5475 2.91667 11.9926 3.10104 12.3208 3.42923C12.649 3.75742 12.8333 4.20254 12.8333 4.66667H1.16667C1.16667 4.20254 1.35104 3.75742 1.67923 3.42923C2.00742 3.10104 2.45254 2.91667 2.91667 2.91667ZM11.0833 11.0833H2.91667C2.45254 11.0833 2.00742 10.899 1.67923 10.5708C1.35104 10.2426 1.16667 9.79746 1.16667 9.33333V5.83333H12.8333V9.33333C12.8333 9.79746 12.649 10.2426 12.3208 10.5708C11.9926 10.899 11.5475 11.0833 11.0833 11.0833Z" fill="black"/>
</g>
<defs>
<clipPath id="clip0_2_954">
<rect width="14" height="14" fill="white"/>
</clipPath>
</defs>
</svg>
