<svg width="14" height="14" viewBox="0 0 14 14" fill="none" xmlns="http://www.w3.org/2000/svg">
<path d="M11.0833 1.75H2.91667C1.30842 1.75 0 3.05842 0 4.66667V9.33333C0 10.9416 1.30842 12.25 2.91667 12.25H4.66667C4.98867 12.25 5.25 11.9892 5.25 11.6667C5.25 11.3441 4.98867 11.0833 4.66667 11.0833H2.91667C1.95183 11.0833 1.16667 10.2982 1.16667 9.33333V5.83333H12.8333V7C12.8333 7.32258 13.0947 7.58333 13.4167 7.58333C13.7387 7.58333 14 7.32258 14 7V4.66667C14 3.05842 12.6916 1.75 11.0833 1.75ZM1.16667 4.66667C1.16667 3.70183 1.95183 2.91667 2.91667 2.91667H11.0833C12.0482 2.91667 12.8333 3.70183 12.8333 4.66667H1.16667ZM7.14642 9.91725V11.0828C7.14642 11.3447 7.35525 11.5208 7.58333 11.5208C7.75133 11.5179 7.90067 11.4199 7.97358 11.2811C8.03542 11.1632 8.16025 11.0921 8.29325 11.0921C8.56858 11.0921 8.74592 11.3861 8.61583 11.6287C8.42042 11.9957 8.03075 12.2465 7.58333 12.2494C6.93642 12.25 6.41667 11.7308 6.41667 11.0921V9.90792C6.41667 9.26975 6.93642 8.75 7.58333 8.75C8.03133 8.7535 8.42042 9.00433 8.61583 9.37125C8.74533 9.6145 8.56858 9.90792 8.29325 9.90792C8.16025 9.90792 8.03542 9.83675 7.97358 9.71892C7.90067 9.58008 7.75133 9.48208 7.58333 9.47917C7.35525 9.47917 7.14642 9.65533 7.14642 9.91725ZM13.9183 9.17642L13.3531 11.886C13.3088 12.0983 13.1215 12.2506 12.9051 12.2506C12.6951 12.2506 12.5125 12.1077 12.4612 11.9047L11.7781 9.191C11.7221 8.96758 11.8907 8.75058 12.1211 8.75058C12.2832 8.75058 12.425 8.86083 12.4641 9.01833L12.8782 10.6651L13.2183 9.03233C13.2527 8.86842 13.3974 8.75058 13.5648 8.75058H13.5718C13.7964 8.75058 13.9644 8.95708 13.9183 9.177V9.17642ZM11.2933 9.17642L10.7281 11.886C10.6838 12.0983 10.4965 12.2506 10.2801 12.2506C10.0701 12.2506 9.8875 12.1077 9.83617 11.9047L9.15308 9.191C9.09708 8.96758 9.26567 8.75058 9.49608 8.75058C9.65825 8.75058 9.8 8.86083 9.83908 9.01833L10.2532 10.6651L10.5933 9.03233C10.6277 8.86842 10.7724 8.75058 10.9398 8.75058H10.9468C11.1714 8.75058 11.3394 8.95708 11.2933 9.177V9.17642Z" fill="black"/>
</svg>
