<svg width="16" height="16" viewBox="0 0 16 16" fill="none" xmlns="http://www.w3.org/2000/svg">
<g clip-path="url(#clip0_42_1913)">
<path d="M6.36867 9.59769C6.81867 10.0377 7.40933 10.2577 8 10.2577C8.59067 10.2577 9.18133 10.0377 9.63133 9.59769L11.2993 7.96569C12.1807 7.08436 12.6667 5.91236 12.6667 4.66569C12.6667 3.41902 12.1807 2.24769 11.2993 1.36569C10.4187 0.484357 9.24667 -0.000976562 8 -0.000976562C6.75333 -0.000976562 5.58133 0.484357 4.7 1.36569C2.88067 3.18502 2.88067 6.14569 4.70533 7.97036L6.36867 9.59702V9.59769ZM5.64267 2.30902C6.272 1.67969 7.10933 1.33302 8 1.33302C8.89067 1.33302 9.72733 1.67969 10.3567 2.30902C10.986 2.93836 11.3333 3.77569 11.3333 4.66636C11.3333 5.55702 10.986 6.39369 10.362 7.01836L8.69933 8.64502C8.314 9.02102 7.686 9.02102 7.30067 8.64502L5.64267 7.02369C4.34333 5.72369 4.34333 3.60836 5.64267 2.30902ZM6 4.65969C6 3.55502 6.89533 2.65969 8 2.65969C9.10467 2.65969 10 3.55502 10 4.65969C10 5.76436 9.10467 6.65969 8 6.65969C6.89533 6.65969 6 5.76436 6 4.65969ZM16 11.1777C16 11.4124 15.8767 11.629 15.6767 11.749L9.10267 15.6937C8.76267 15.8977 8.38133 15.9997 8.00067 15.9997C7.62 15.9997 7.238 15.8977 6.89867 15.6937L0.323333 11.7497C0.122667 11.629 0 11.4124 0 11.1784C0 10.9444 0.123333 10.727 0.323333 10.607L3.14267 8.91569C3.45933 8.72569 3.86867 8.82836 4.05733 9.14436C4.24667 9.46036 4.14467 9.86969 3.82867 10.059L1.962 11.179L7.584 14.5524C7.84067 14.7057 8.15933 14.7057 8.416 14.5524L14.038 11.179L12.1713 10.059C11.8553 9.86969 11.7533 9.46036 11.9427 9.14436C12.132 8.82836 12.5407 8.72569 12.8573 8.91569L15.6767 10.607C15.8773 10.7277 16 10.9437 16 11.1777Z" fill="#303030"/>
</g>
<defs>
<clipPath id="clip0_42_1913">
<rect width="16" height="16" fill="white"/>
</clipPath>
</defs>
</svg>
