<svg width="12" height="12" viewBox="0 0 12 12" fill="none" xmlns="http://www.w3.org/2000/svg">
<path d="M5.99999 2.49998C6.69034 2.49998 7.24998 1.94034 7.24998 1.24999C7.24998 0.559641 6.69034 0 5.99999 0C5.30964 0 4.75 0.559641 4.75 1.24999C4.75 1.94034 5.30964 2.49998 5.99999 2.49998Z" fill="black"/>
<path d="M5.99999 7.24998C6.69034 7.24998 7.24998 6.69034 7.24998 5.99999C7.24998 5.30964 6.69034 4.75 5.99999 4.75C5.30964 4.75 4.75 5.30964 4.75 5.99999C4.75 6.69034 5.30964 7.24998 5.99999 7.24998Z" fill="black"/>
<path d="M5.99999 12C6.69034 12 7.24998 11.4403 7.24998 10.75C7.24998 10.0596 6.69034 9.5 5.99999 9.5C5.30964 9.5 4.75 10.0596 4.75 10.75C4.75 11.4403 5.30964 12 5.99999 12Z" fill="black"/>
</svg>
