<svg width="16" height="16" viewBox="0 0 16 16" fill="none" xmlns="http://www.w3.org/2000/svg">
<g clip-path="url(#clip0_42_1937)">
<path d="M4.1952 5.33333C5.5112 5.33333 6.6112 4.48067 6.92787 3.33333H15.3325C15.7005 3.33333 15.9992 3.03533 15.9992 2.66667C15.9992 2.298 15.7005 2 15.3325 2H6.92787C6.6112 0.852667 5.5112 0 4.1952 0C2.75453 0 -0.000132654 1.03867 -0.000132654 2.66667C-0.000132654 4.29467 2.75453 5.33333 4.1952 5.33333ZM4.1952 1.33333C5.02253 1.33333 5.6952 1.93133 5.6952 2.66667C5.6952 3.402 5.02253 4 4.1952 4C3.04387 4 1.3332 3.12533 1.3332 2.66667C1.3332 2.208 3.04387 1.33333 4.1952 1.33333ZM15.5512 8.332C15.0752 7.69733 14.3472 7.33333 13.5532 7.33333H2.44587C1.65253 7.33333 0.923867 7.69733 0.447867 8.332C-0.0321327 8.97267 -0.178133 9.78133 0.046534 10.5513C0.481201 12.04 1.2692 13.3833 2.32587 14.4353C3.32453 15.4293 4.73453 16 6.19587 16H9.8032C11.2639 16 12.6745 15.43 13.6732 14.4353C14.7299 13.3833 15.5179 12.04 15.9525 10.5513C16.1772 9.78133 16.0312 8.97267 15.5512 8.332ZM14.6725 10.178C14.3059 11.4333 13.6172 12.6093 12.7319 13.4907C11.9812 14.2387 10.9139 14.6673 9.80253 14.6673H6.1952C5.08387 14.6673 4.01653 14.2387 3.26587 13.4907C2.3812 12.61 1.69187 11.4333 1.3252 10.178C1.2192 9.81467 1.2872 9.43333 1.5132 9.13267C1.7352 8.83733 2.07453 8.66733 2.44387 8.66733H13.5519C13.9219 8.66733 14.2612 8.83733 14.4825 9.13267C14.7085 9.43333 14.7765 9.81467 14.6705 10.178H14.6725Z" fill="#303030"/>
</g>
<defs>
<clipPath id="clip0_42_1937">
<rect width="16" height="16" fill="white"/>
</clipPath>
</defs>
</svg>
