<svg width="12" height="13" viewBox="0 0 12 13" fill="none" xmlns="http://www.w3.org/2000/svg">
<g clip-path="url(#clip0_2_5100)">
<path d="M3.03955 11.7503C3.03973 11.5514 3.11886 11.3608 3.25955 11.2203L7.09555 7.38425C7.21166 7.26818 7.30376 7.13036 7.3666 6.97868C7.42944 6.827 7.46178 6.66443 7.46178 6.50025C7.46178 6.33607 7.42944 6.1735 7.3666 6.02182C7.30376 5.87014 7.21166 5.73233 7.09555 5.61625L3.26455 1.78275C3.12793 1.6413 3.05234 1.45185 3.05405 1.2552C3.05575 1.05855 3.13463 0.870445 3.27369 0.731389C3.41274 0.592333 3.60085 0.513456 3.7975 0.511747C3.99415 0.510038 4.1836 0.585634 4.32505 0.722253L8.15605 4.55275C8.67117 5.06888 8.96047 5.7683 8.96047 6.4975C8.96047 7.22671 8.67117 7.92612 8.15605 8.44225L4.32005 12.2783C4.21531 12.3831 4.08187 12.4545 3.93657 12.4835C3.79128 12.5126 3.64063 12.4979 3.50365 12.4415C3.36666 12.385 3.24948 12.2892 3.16688 12.1662C3.08428 12.0432 3.03998 11.8984 3.03955 11.7503Z" fill="black"/>
</g>
<defs>
<clipPath id="clip0_2_5100">
<rect width="12" height="12" fill="white" transform="translate(0 0.5)"/>
</clipPath>
</defs>
</svg>
