<svg width="40" height="40" viewBox="0 0 40 40" fill="none" xmlns="http://www.w3.org/2000/svg">
<rect width="40" height="40" rx="20" fill="#C082DD" fill-opacity="0.2"/>
<path d="M30.3414 21.9744C30.0623 21.7596 29.7374 21.6122 29.3921 21.5434C29.0467 21.4746 28.6902 21.4864 28.3501 21.5778L24.4276 22.4797C24.5189 22.0942 24.5217 21.693 24.4359 21.3063C24.35 20.9195 24.1778 20.5572 23.932 20.2465C23.6862 19.9358 23.3733 19.6847 23.0167 19.5122C22.6601 19.3396 22.2691 19.25 21.8729 19.25H17.1798C16.7857 19.249 16.3953 19.3261 16.0311 19.4769C15.667 19.6277 15.3363 19.8491 15.0582 20.1284L12.9376 22.25H10.2479C9.8501 22.25 9.46857 22.408 9.18726 22.6893C8.90596 22.9706 8.74792 23.3522 8.74792 23.75V27.5C8.74792 27.8978 8.90596 28.2794 9.18726 28.5607C9.46857 28.842 9.8501 29 10.2479 29H19.9979C20.0592 29 20.1203 28.9925 20.1798 28.9775L26.1798 27.4775C26.218 27.4684 26.2554 27.4558 26.2914 27.44L29.9354 25.8894L29.9767 25.8706C30.3269 25.6956 30.6268 25.4343 30.8481 25.1114C31.0695 24.7885 31.2049 24.4145 31.2418 24.0247C31.2787 23.6349 31.2157 23.2422 31.0588 22.8835C30.9019 22.5248 30.6563 22.2119 30.3451 21.9744H30.3414ZM10.2479 23.75H12.4979V27.5H10.2479V23.75ZM29.3195 24.5197L25.757 26.0366L19.9042 27.5H13.9979V23.3103L16.1195 21.1897C16.2583 21.0498 16.4235 20.9389 16.6055 20.8634C16.7875 20.7879 16.9827 20.7494 17.1798 20.75H21.8729C22.1713 20.75 22.4574 20.8685 22.6684 21.0795C22.8794 21.2905 22.9979 21.5766 22.9979 21.875C22.9979 22.1734 22.8794 22.4595 22.6684 22.6705C22.4574 22.8815 22.1713 23 21.8729 23H19.2479C19.049 23 18.8582 23.079 18.7176 23.2197C18.5769 23.3603 18.4979 23.5511 18.4979 23.75C18.4979 23.9489 18.5769 24.1397 18.7176 24.2803C18.8582 24.421 19.049 24.5 19.2479 24.5H22.2479C22.3044 24.4998 22.3606 24.4936 22.4157 24.4813L28.697 23.0366L28.7261 23.0291C28.9178 22.9758 29.1225 22.9954 29.3006 23.084C29.4788 23.1726 29.618 23.3239 29.6913 23.5089C29.7646 23.6939 29.7669 23.8995 29.6977 24.0861C29.6286 24.2727 29.4928 24.4271 29.3167 24.5197H29.3195ZM24.1229 17.75C24.3082 17.7502 24.4932 17.7352 24.676 17.705C24.8817 18.3158 25.2579 18.855 25.7603 19.2588C26.2627 19.6625 26.8701 19.914 27.5109 19.9835C28.1516 20.0529 28.7989 19.9375 29.3761 19.6508C29.9533 19.364 30.4364 18.918 30.7681 18.3655C31.0999 17.8129 31.2665 17.1769 31.2483 16.5327C31.2301 15.8884 31.0277 15.2628 30.6652 14.7299C30.3027 14.197 29.7952 13.7791 29.2027 13.5254C28.6102 13.2718 27.9575 13.1932 27.3217 13.2988C27.1237 12.7102 26.7671 12.1877 26.2913 11.7888C25.8155 11.3898 25.2389 11.1299 24.6248 11.0375C24.0108 10.9452 23.3832 11.024 22.8111 11.2654C22.239 11.5067 21.7445 11.9012 21.3822 12.4055C21.0198 12.9097 20.8036 13.5041 20.7573 14.1234C20.711 14.7426 20.8364 15.3625 21.1197 15.9151C21.4031 16.4676 21.8334 16.9312 22.3632 17.255C22.8931 17.5787 23.502 17.75 24.1229 17.75ZM29.7479 16.625C29.7479 16.9958 29.638 17.3584 29.4319 17.6667C29.2259 17.975 28.9331 18.2154 28.5905 18.3573C28.2478 18.4992 27.8708 18.5363 27.5071 18.464C27.1434 18.3916 26.8093 18.213 26.5471 17.9508C26.2849 17.6886 26.1063 17.3545 26.034 16.9908C25.9616 16.6271 25.9987 16.2501 26.1407 15.9075C26.2826 15.5649 26.5229 15.272 26.8312 15.066C27.1396 14.86 27.5021 14.75 27.8729 14.75C28.3702 14.75 28.8471 14.9475 29.1987 15.2992C29.5504 15.6508 29.7479 16.1277 29.7479 16.625ZM24.1229 12.5C24.532 12.5002 24.9297 12.6342 25.2555 12.8814C25.5814 13.1287 25.8174 13.4758 25.9276 13.8697C25.5435 14.14 25.22 14.4874 24.9779 14.8899C24.7357 15.2923 24.5802 15.7409 24.5214 16.2069C24.3904 16.2352 24.2569 16.2496 24.1229 16.25C23.6256 16.25 23.1487 16.0525 22.7971 15.7008C22.4455 15.3492 22.2479 14.8723 22.2479 14.375C22.2479 13.8777 22.4455 13.4008 22.7971 13.0492C23.1487 12.6975 23.6256 12.5 24.1229 12.5Z" fill="#C082DD"/>
</svg>
