<svg width="40" height="40" viewBox="0 0 40 40" fill="none" xmlns="http://www.w3.org/2000/svg">
<rect width="40" height="40" rx="20" fill="#C082DD" fill-opacity="0.2"/>
<path d="M27.5 15.5H17V13.25C17 12.4544 17.3161 11.6913 17.8787 11.1287C18.4413 10.5661 19.2044 10.25 20 10.25C21.4409 10.25 22.7375 11.2812 23.015 12.6491C23.0562 12.8423 23.172 13.0116 23.3373 13.1199C23.5026 13.2283 23.7039 13.267 23.8976 13.2277C24.0913 13.1885 24.2616 13.0743 24.3716 12.9101C24.4816 12.746 24.5224 12.545 24.485 12.3509C24.0612 10.2641 22.175 8.75 20 8.75C18.8069 8.75124 17.663 9.22575 16.8194 10.0694C15.9757 10.913 15.5012 12.0569 15.5 13.25V15.5H12.5C12.1022 15.5 11.7206 15.658 11.4393 15.9393C11.158 16.2206 11 16.6022 11 17V27.5C11 27.8978 11.158 28.2794 11.4393 28.5607C11.7206 28.842 12.1022 29 12.5 29H27.5C27.8978 29 28.2794 28.842 28.5607 28.5607C28.842 28.2794 29 27.8978 29 27.5V17C29 16.6022 28.842 16.2206 28.5607 15.9393C28.2794 15.658 27.8978 15.5 27.5 15.5ZM27.5 27.5H12.5V17H27.5V27.5ZM21.125 22.25C21.125 22.4725 21.059 22.69 20.9354 22.875C20.8118 23.06 20.6361 23.2042 20.4305 23.2894C20.225 23.3745 19.9988 23.3968 19.7805 23.3534C19.5623 23.31 19.3618 23.2028 19.2045 23.0455C19.0472 22.8882 18.94 22.6877 18.8966 22.4695C18.8532 22.2512 18.8755 22.025 18.9606 21.8195C19.0458 21.6139 19.19 21.4382 19.375 21.3146C19.56 21.191 19.7775 21.125 20 21.125C20.2984 21.125 20.5845 21.2435 20.7955 21.4545C21.0065 21.6655 21.125 21.9516 21.125 22.25Z" fill="#C082DD"/>
</svg>
