<svg width="16" height="16" viewBox="0 0 16 16" fill="none" xmlns="http://www.w3.org/2000/svg">
<g clip-path="url(#clip0_523_49)">
<path d="M15.8907 3.13667C15.382 1.06134 12.524 -0.0359968 10.7733 1.08067C10.0161 0.387324 9.02668 0.00275421 7.99999 0.00275421C6.97331 0.00275421 5.98386 0.387324 5.22666 1.08067C0.939327 -1.10533 -2.39134 5.15334 2.21733 7.142C2.342 7.17796 2.45232 7.25197 2.53288 7.35369C2.61344 7.4554 2.66021 7.57974 2.66666 7.70934V13C2.66666 13.7957 2.98273 14.5587 3.54534 15.1213C4.10795 15.6839 4.87101 16 5.66666 16H10.3333C10.7273 16 11.1174 15.9224 11.4814 15.7716C11.8454 15.6209 12.1761 15.3999 12.4546 15.1213C12.7332 14.8427 12.9542 14.512 13.105 14.1481C13.2557 13.7841 13.3333 13.394 13.3333 13V7.70934C13.3398 7.57974 13.3865 7.4554 13.4671 7.35369C13.5477 7.25197 13.658 7.17796 13.7827 7.142C14.572 6.85997 15.2267 6.29183 15.6171 5.55007C16.0075 4.80831 16.1051 3.947 15.8907 3.13667ZM12 13C12 13.442 11.8244 13.866 11.5118 14.1785C11.1993 14.4911 10.7754 14.6667 10.3333 14.6667H5.66666C5.41996 14.6614 5.17726 14.6033 4.95492 14.4963C4.73258 14.3893 4.53579 14.2358 4.37782 14.0463C4.21985 13.8567 4.10439 13.6355 4.03921 13.3975C3.97403 13.1595 3.96066 12.9103 3.99999 12.6667H12V13ZM13.3333 5.88534C12.9485 6.01221 12.6131 6.2563 12.374 6.58339C12.1349 6.91048 12.0041 7.30419 12 7.70934V11.3333H3.99999V7.70934C3.99588 7.30419 3.86511 6.91048 3.62601 6.58339C3.3869 6.2563 3.05145 6.01221 2.66666 5.88534C2.19092 5.71416 1.79677 5.37063 1.5622 4.92273C1.32764 4.47484 1.26975 3.95521 1.39999 3.46667C1.79066 2.06667 3.88599 1.48067 4.85533 2.46667C4.92486 2.53663 5.00898 2.59039 5.10167 2.62412C5.19437 2.65785 5.29336 2.67071 5.3916 2.6618C5.48984 2.65289 5.5849 2.62241 5.67001 2.57255C5.75512 2.52269 5.82818 2.45467 5.88399 2.37334C6.71533 0.98667 9.28066 0.98667 10.112 2.37334C10.1679 2.45457 10.241 2.5225 10.3261 2.57229C10.4112 2.62208 10.5062 2.65252 10.6044 2.66143C10.7026 2.67034 10.8016 2.6575 10.8943 2.62384C10.9869 2.59018 11.0711 2.53652 11.1407 2.46667C11.4035 2.24288 11.7171 2.0869 12.0541 2.01241C12.3912 1.93791 12.7414 1.94715 13.074 2.03934C13.4977 2.13327 13.8797 2.36194 14.1626 2.6911C14.4455 3.02026 14.6142 3.43221 14.6434 3.86526C14.6726 4.29831 14.5607 4.72917 14.3246 5.09333C14.0884 5.45749 13.7406 5.73536 13.3333 5.88534Z" fill="#303030"/>
</g>
<defs>
<clipPath id="clip0_523_49">
<rect width="16" height="16" fill="white"/>
</clipPath>
</defs>
</svg>
