<svg width="24" height="24" viewBox="0 0 24 24" fill="none" xmlns="http://www.w3.org/2000/svg">
<g clip-path="url(#clip0_2_3374)">
<path d="M9.5 2.5C9.5 1.119 10.619 0 12 0C13.381 0 14.5 1.119 14.5 2.5C14.5 3.881 13.381 5 12 5C10.619 5 9.5 3.881 9.5 2.5ZM21 3C19.346 3 18 4.346 18 6V11.184C17.734 11.09 17.458 11.02 17.168 11.004C16.375 10.962 15.601 11.23 14.995 11.773L11.986 14.542C11.903 14.458 11.826 14.37 11.739 14.289L8.995 11.764C8.398 11.23 7.621 10.963 6.832 11.004C6.542 11.02 6.266 11.09 6 11.184V6C6 4.346 4.654 3 3 3C1.346 3 0 4.346 0 6V16.101C0 18.238 0.832 20.247 2.343 21.758L4.293 23.708C4.488 23.903 4.744 24.001 5 24.001C5.256 24.001 5.512 23.903 5.707 23.708C6.098 23.317 6.098 22.684 5.707 22.294L3.757 20.344C2.624 19.211 2 17.704 2 16.101V6C2 5.449 2.448 5 3 5C3.552 5 4 5.449 4 6C4 6 3.995 14.076 4 14.116C4.03 14.771 4.285 15.425 4.746 15.973L7.362 18.694C7.744 19.092 8.377 19.105 8.776 18.721C9.173 18.338 9.186 17.705 8.803 17.307L6.232 14.637C5.916 14.26 5.925 13.699 6.254 13.332C6.431 13.134 6.675 13.017 6.941 13.002C7.204 12.984 7.462 13.077 7.651 13.246L10.384 15.762C11.41 16.706 11.999 18.048 11.999 19.442V23.001C11.999 23.553 12.446 24.001 12.999 24.001C13.552 24.001 13.999 23.553 13.999 23.001V19.442C13.999 18.29 13.705 17.167 13.175 16.166L16.338 13.255C16.536 13.077 16.793 12.984 17.058 13.002C17.324 13.017 17.568 13.134 17.745 13.332C17.905 13.51 18.186 14.212 17.812 14.586L15.279 17.22C14.896 17.618 14.909 18.251 15.306 18.634C15.5 18.821 15.749 18.913 15.999 18.913C16.262 18.913 16.523 18.81 16.72 18.606L19.298 15.921C19.748 15.385 19.984 14.726 19.999 14.064C20.001 14.041 19.999 5.999 19.999 5.999C19.999 5.448 20.447 4.999 20.999 4.999C21.551 4.999 21.999 5.448 21.999 5.999V16.1C21.999 17.703 21.375 19.209 20.242 20.343L18.292 22.293C17.901 22.683 17.901 23.316 18.292 23.707C18.487 23.902 18.743 24 18.999 24C19.255 24 19.511 23.902 19.706 23.707L21.656 21.757C23.167 20.246 23.999 18.237 23.999 16.1V6C23.999 4.346 22.654 3 21 3ZM10.329 10.274L11.193 11.069C11.649 11.489 12.351 11.489 12.807 11.069L13.641 10.302C14.31 9.703 15.124 9.315 15.979 9.132C15.984 9.124 15.987 9.12 15.992 9.112C15.579 7.33 13.949 6 12.001 6C10.053 6 8.424 7.329 8.01 9.11C8.015 9.118 8.017 9.122 8.022 9.129C8.853 9.302 9.653 9.668 10.33 10.273L10.329 10.274Z" fill="white"/>
</g>
<defs>
<clipPath id="clip0_2_3374">
<rect width="24" height="24" fill="white"/>
</clipPath>
</defs>
</svg>
