<svg width="16" height="16" viewBox="0 0 16 16" fill="none" xmlns="http://www.w3.org/2000/svg">
<g clip-path="url(#clip0_340_83)">
<path d="M6.36867 9.59793C6.81867 10.0379 7.40933 10.2579 8 10.2579C8.59067 10.2579 9.18133 10.0379 9.63133 9.59793L11.2993 7.96593C12.1807 7.0846 12.6667 5.9126 12.6667 4.66593C12.6667 3.41927 12.1807 2.24793 11.2993 1.36593C10.4187 0.484601 9.24667 -0.000732422 8 -0.000732422C6.75333 -0.000732422 5.58133 0.484601 4.7 1.36593C2.88067 3.18527 2.88067 6.14593 4.70533 7.9706L6.36867 9.59727V9.59793ZM5.64267 2.30927C6.272 1.67993 7.10933 1.33327 8 1.33327C8.89067 1.33327 9.72733 1.67993 10.3567 2.30927C10.986 2.9386 11.3333 3.77593 11.3333 4.6666C11.3333 5.55727 10.986 6.39393 10.362 7.0186L8.69933 8.64527C8.314 9.02127 7.686 9.02127 7.30067 8.64527L5.64267 7.02393C4.34333 5.72393 4.34333 3.6086 5.64267 2.30927ZM6 4.65993C6 3.55527 6.89533 2.65993 8 2.65993C9.10467 2.65993 10 3.55527 10 4.65993C10 5.7646 9.10467 6.65993 8 6.65993C6.89533 6.65993 6 5.7646 6 4.65993ZM16 11.1779C16 11.4126 15.8767 11.6293 15.6767 11.7493L9.10267 15.6939C8.76267 15.8979 8.38133 15.9999 8.00067 15.9999C7.62 15.9999 7.238 15.8979 6.89867 15.6939L0.323333 11.7499C0.122667 11.6293 0 11.4126 0 11.1786C0 10.9446 0.123333 10.7273 0.323333 10.6073L3.14267 8.91593C3.45933 8.72593 3.86867 8.8286 4.05733 9.1446C4.24667 9.4606 4.14467 9.86993 3.82867 10.0593L1.962 11.1793L7.584 14.5526C7.84067 14.7059 8.15933 14.7059 8.416 14.5526L14.038 11.1793L12.1713 10.0593C11.8553 9.86993 11.7533 9.4606 11.9427 9.1446C12.132 8.8286 12.5407 8.72593 12.8573 8.91593L15.6767 10.6073C15.8773 10.7279 16 10.9439 16 11.1779Z" fill="black"/>
</g>
<defs>
<clipPath id="clip0_340_83">
<rect width="16" height="16" fill="white"/>
</clipPath>
</defs>
</svg>
