<svg width="18" height="18" viewBox="0 0 18 18" fill="none" xmlns="http://www.w3.org/2000/svg">
<path d="M0 1.27765C0 0.572022 0.572021 0 1.27764 0H16.7224C17.428 0 18 0.572023 18 1.27765V16.7224C18 17.428 17.428 18 16.7224 18H1.27765C0.572022 18 0 17.428 0 16.7223V1.27765Z" fill="white"/>
<path d="M3.81963 5.39328C4.68652 5.39328 5.38927 4.68963 5.38927 3.82164C5.38927 2.95365 4.68652 2.25 3.81963 2.25C2.95275 2.25 2.25 2.95365 2.25 3.82164C2.25 4.68963 2.95275 5.39328 3.81963 5.39328Z" fill="#38754E"/>
<path d="M6.82678 6.55476H9.42817V7.74799C9.42817 7.74799 10.1341 6.33434 12.0548 6.33434C13.7682 6.33434 15.1875 7.17946 15.1875 9.75545V15.1875H12.4917V10.4137C12.4917 8.89408 11.6815 8.72695 11.0641 8.72695C9.78273 8.72695 9.56336 9.83359 9.56336 10.6119V15.1875H6.82678V6.55476Z" fill="#38754E"/>
<path d="M2.45134 6.55477H5.18792V15.1875H2.45134V6.55477Z" fill="#38754E"/>
</svg>
