<svg width="17" height="16" viewBox="0 0 17 16" fill="none" xmlns="http://www.w3.org/2000/svg">
<g clip-path="url(#clip0_284_4850)">
<path d="M10.3332 11.3331C10.3332 11.5099 10.263 11.6794 10.138 11.8045C10.0129 11.9295 9.84337 11.9997 9.66656 11.9997H6.99989C6.82308 11.9997 6.65351 11.9295 6.52849 11.8045C6.40346 11.6794 6.33322 11.5099 6.33322 11.3331C6.33322 11.1563 6.40346 10.9867 6.52849 10.8617C6.65351 10.7366 6.82308 10.6664 6.99989 10.6664H9.66656C9.84337 10.6664 10.0129 10.7366 10.138 10.8617C10.263 10.9867 10.3332 11.1563 10.3332 11.3331ZM10.1379 4.86173C10.0129 4.73675 9.84333 4.66654 9.66656 4.66654C9.48978 4.66654 9.32024 4.73675 9.19522 4.86173L8.33322 5.72373L7.47122 4.86173C7.40973 4.79806 7.33616 4.74727 7.25483 4.71233C7.17349 4.67739 7.08601 4.659 6.99749 4.65823C6.90897 4.65746 6.82119 4.67433 6.73925 4.70785C6.65732 4.74137 6.58289 4.79087 6.52029 4.85347C6.4577 4.91606 6.4082 4.99049 6.37468 5.07243C6.34116 5.15436 6.32429 5.24214 6.32506 5.33066C6.32583 5.41918 6.34422 5.50666 6.37916 5.588C6.4141 5.66933 6.46488 5.7429 6.52856 5.8044L7.39056 6.66639L6.52856 7.5284C6.46488 7.58989 6.4141 7.66346 6.37916 7.74479C6.34422 7.82613 6.32583 7.91361 6.32506 8.00213C6.32429 8.09065 6.34116 8.17843 6.37468 8.26036C6.4082 8.3423 6.4577 8.41673 6.52029 8.47932C6.58289 8.54192 6.65732 8.59142 6.73925 8.62494C6.82119 8.65846 6.90897 8.67533 6.99749 8.67456C7.08601 8.67379 7.17349 8.6554 7.25483 8.62046C7.33616 8.58552 7.40973 8.53473 7.47122 8.47106L8.33322 7.60906L9.19522 8.47106C9.32096 8.5925 9.48936 8.6597 9.66416 8.65818C9.83896 8.65666 10.0062 8.58655 10.1298 8.46294C10.2534 8.33934 10.3235 8.17213 10.325 7.99733C10.3265 7.82253 10.2593 7.65413 10.1379 7.5284L9.27589 6.66639L10.1379 5.8044C10.2629 5.67938 10.3331 5.50984 10.3331 5.33306C10.3331 5.15629 10.2629 4.98675 10.1379 4.86173ZM14.9999 10.6664H12.3332C12.1564 10.6664 11.9868 10.7366 11.8618 10.8617C11.7368 10.9867 11.6666 11.1563 11.6666 11.3331C11.6666 11.5099 11.7368 11.6794 11.8618 11.8045C11.9868 11.9295 12.1564 11.9997 12.3332 11.9997H14.9999C15.1767 11.9997 15.3463 11.9295 15.4713 11.8045C15.5963 11.6794 15.6666 11.5099 15.6666 11.3331C15.6666 11.1563 15.5963 10.9867 15.4713 10.8617C15.3463 10.7366 15.1767 10.6664 14.9999 10.6664ZM14.6092 6.66639L15.4712 5.8044C15.5349 5.7429 15.5857 5.66933 15.6206 5.588C15.6556 5.50666 15.674 5.41918 15.6747 5.33066C15.6755 5.24214 15.6586 5.15436 15.6251 5.07243C15.5916 4.99049 15.5421 4.91606 15.4795 4.85347C15.4169 4.79087 15.3425 4.74137 15.2605 4.70785C15.1786 4.67433 15.0908 4.65746 15.0023 4.65823C14.9138 4.659 14.8263 4.67739 14.745 4.71233C14.6636 4.74727 14.5901 4.79806 14.5286 4.86173L13.6666 5.72373L12.8046 4.86173C12.7431 4.79806 12.6695 4.74727 12.5882 4.71233C12.5068 4.67739 12.4193 4.659 12.3308 4.65823C12.2423 4.65746 12.1545 4.67433 12.0726 4.70785C11.9907 4.74137 11.9162 4.79087 11.8536 4.85347C11.791 4.91606 11.7415 4.99049 11.708 5.07243C11.6745 5.15436 11.6576 5.24214 11.6584 5.33066C11.6592 5.41918 11.6776 5.50666 11.7125 5.588C11.7474 5.66933 11.7982 5.7429 11.8619 5.8044L12.7239 6.66639L11.8619 7.5284C11.7982 7.58989 11.7474 7.66346 11.7125 7.74479C11.6776 7.82613 11.6592 7.91361 11.6584 8.00213C11.6576 8.09065 11.6745 8.17843 11.708 8.26036C11.7415 8.3423 11.791 8.41673 11.8536 8.47932C11.9162 8.54192 11.9907 8.59142 12.0726 8.62494C12.1545 8.65846 12.2423 8.67533 12.3308 8.67456C12.4193 8.67379 12.5068 8.6554 12.5882 8.62046C12.6695 8.58552 12.7431 8.53473 12.8046 8.47106L13.6666 7.60906L14.5286 8.47106C14.6543 8.5925 14.8227 8.6597 14.9975 8.65818C15.1723 8.65666 15.3395 8.58655 15.4631 8.46294C15.5867 8.33934 15.6568 8.17213 15.6583 7.99733C15.6599 7.82253 15.5927 7.65413 15.4712 7.5284L14.6092 6.66639ZM4.33322 10.6664H1.66656C1.48975 10.6664 1.32018 10.7366 1.19515 10.8617C1.07013 10.9867 0.999891 11.1563 0.999891 11.3331C0.999891 11.5099 1.07013 11.6794 1.19515 11.8045C1.32018 11.9295 1.48975 11.9997 1.66656 11.9997H4.33322C4.51004 11.9997 4.6796 11.9295 4.80463 11.8045C4.92965 11.6794 4.99989 11.5099 4.99989 11.3331C4.99989 11.1563 4.92965 10.9867 4.80463 10.8617C4.6796 10.7366 4.51004 10.6664 4.33322 10.6664ZM4.80456 4.86173C4.67954 4.73675 4.51 4.66654 4.33322 4.66654C4.15645 4.66654 3.98691 4.73675 3.86189 4.86173L2.99989 5.72373L2.13789 4.86173C2.07639 4.79806 2.00283 4.74727 1.92149 4.71233C1.84016 4.67739 1.75268 4.659 1.66416 4.65823C1.57564 4.65746 1.48785 4.67433 1.40592 4.70785C1.32399 4.74137 1.24956 4.79087 1.18696 4.85347C1.12437 4.91606 1.07486 4.99049 1.04134 5.07243C1.00782 5.15436 0.990955 5.24214 0.991724 5.33066C0.992494 5.41918 1.01088 5.50666 1.04582 5.588C1.08076 5.66933 1.13155 5.7429 1.19522 5.8044L2.05722 6.66639L1.19522 7.5284C1.13155 7.58989 1.08076 7.66346 1.04582 7.74479C1.01088 7.82613 0.992494 7.91361 0.991724 8.00213C0.990955 8.09065 1.00782 8.17843 1.04134 8.26036C1.07486 8.3423 1.12437 8.41673 1.18696 8.47932C1.24956 8.54192 1.32399 8.59142 1.40592 8.62494C1.48785 8.65846 1.57564 8.67533 1.66416 8.67456C1.75268 8.67379 1.84016 8.6554 1.92149 8.62046C2.00283 8.58552 2.07639 8.53473 2.13789 8.47106L2.99989 7.60906L3.86189 8.47106C3.92339 8.53473 3.99695 8.58552 4.07829 8.62046C4.15962 8.6554 4.2471 8.67379 4.33562 8.67456C4.42414 8.67533 4.51193 8.65846 4.59386 8.62494C4.67579 8.59142 4.75023 8.54192 4.81282 8.47932C4.87542 8.41673 4.92492 8.3423 4.95844 8.26036C4.99196 8.17843 5.00883 8.09065 5.00806 8.00213C5.00729 7.91361 4.9889 7.82613 4.95396 7.74479C4.91902 7.66346 4.86823 7.58989 4.80456 7.5284L3.94256 6.66639L4.80456 5.8044C4.92954 5.67938 4.99975 5.50984 4.99975 5.33306C4.99975 5.15629 4.92954 4.98675 4.80456 4.86173Z" fill="black"/>
</g>
<defs>
<clipPath id="clip0_284_4850">
<rect width="16" height="16" fill="white" transform="translate(0.333252)"/>
</clipPath>
</defs>
</svg>
