<svg width="12" height="12" viewBox="0 0 12 12" fill="none" xmlns="http://www.w3.org/2000/svg">
<g clip-path="url(#clip0_25_11)">
<path d="M11.4939 2.72564C11.4799 2.63714 11.3379 1.84214 10.7619 1.26164C10.1834 0.695635 9.38544 0.555635 9.29644 0.541635C9.17794 0.522135 9.05694 0.547135 8.95544 0.610135C8.89644 0.646635 7.47844 1.53464 4.59944 4.39314C1.56794 7.40364 0.772937 8.60664 0.740437 8.65614C0.694937 8.72614 0.667437 8.80664 0.660937 8.88964L0.501437 10.9251C0.490437 11.0711 0.542937 11.2141 0.646437 11.3176C0.740437 11.4116 0.867937 11.4641 1.00044 11.4641C1.01294 11.4641 1.02594 11.4641 1.03894 11.4626L3.08944 11.3046C3.17194 11.2981 3.25144 11.2716 3.32094 11.2271C3.37094 11.1951 4.58244 10.4056 7.61344 7.39614C10.4929 4.53714 11.3874 3.12864 11.4244 3.07014C11.4884 2.96764 11.5134 2.84514 11.4944 2.72564H11.4939ZM6.90894 6.68664C4.44394 9.13414 3.21194 10.0766 2.87694 10.3181L1.54444 10.4211L1.64744 9.10514C1.89344 8.76914 2.84394 7.54564 5.30344 5.10314C6.06494 4.34714 6.72144 3.73264 7.27444 3.23864C7.27944 3.23964 7.28444 3.24064 7.28994 3.24164C7.29594 3.24264 7.90844 3.34864 8.30044 3.73164C8.68644 4.10914 8.79494 4.69664 8.79794 4.71114C8.79794 4.71314 8.79894 4.71464 8.79894 4.71664C8.29944 5.26814 7.67644 5.92464 6.90894 6.68664ZM9.56344 3.84464C9.44394 3.57764 9.26494 3.27564 8.99994 3.01664C8.73794 2.76014 8.43294 2.58614 8.16294 2.47014C8.73244 1.99514 9.11694 1.71214 9.31744 1.57164C9.52694 1.63364 9.84194 1.76014 10.0579 1.97164C10.2844 2.19964 10.4054 2.51214 10.4629 2.70614C10.3204 2.90614 10.0374 3.28564 9.56394 3.84514L9.56344 3.84464Z" fill="black"/>
</g>
<defs>
<clipPath id="clip0_25_11">
<rect width="12" height="12" fill="white"/>
</clipPath>
</defs>
</svg>
