<svg width="17" height="16" viewBox="0 0 17 16" fill="none" xmlns="http://www.w3.org/2000/svg">
<g clip-path="url(#clip0_523_41)">
<path d="M16.5 0.666667V4.66667C16.5 6.276 15.3527 7.62267 13.8333 7.93267V15.3333C13.8333 15.7013 13.5347 16 13.1667 16C12.7987 16 12.5 15.7013 12.5 15.3333V7.93267C10.9807 7.62267 9.83333 6.27667 9.83333 4.66667V0.666667C9.83333 0.298667 10.132 0 10.5 0C10.868 0 11.1667 0.298667 11.1667 0.666667V4.66667C11.1667 5.53467 11.726 6.268 12.5 6.544V0.666667C12.5 0.298667 12.7987 0 13.1667 0C13.5347 0 13.8333 0.298667 13.8333 0.666667V6.544C14.6073 6.268 15.1667 5.53467 15.1667 4.66667V0.666667C15.1667 0.298667 15.4653 0 15.8333 0C16.2013 0 16.5 0.298667 16.5 0.666667ZM10.3187 14.416C9.72933 14.5827 9.118 14.6667 8.5 14.6667C4.824 14.6667 1.83333 11.676 1.83333 8C1.83333 4.52667 4.43867 1.672 7.89333 1.36067C8.26 1.32733 8.53067 1.00333 8.49733 0.636667C8.46467 0.27 8.152 0.006 7.77333 0.0326667C3.62667 0.406667 0.5 3.832 0.5 8C0.5 12.4113 4.08867 16 8.5 16C9.24 16 9.974 15.8987 10.6813 15.6987C11.0353 15.5987 11.2413 15.23 11.1413 14.876C11.0413 14.522 10.6747 14.318 10.3187 14.416ZM10.214 11.6153C9.67667 11.8707 9.10067 12 8.5 12C6.294 12 4.5 10.206 4.5 8C4.5 6.022 5.97333 4.32 7.928 4.04067C8.29267 3.98867 8.546 3.65133 8.49333 3.28667C8.44133 2.922 8.102 2.67133 7.73933 2.72133C5.13267 3.094 3.16733 5.364 3.16733 8.00067C3.16733 10.9413 5.56 13.334 8.50067 13.334C9.30067 13.334 10.07 13.1613 10.7867 12.82C11.1193 12.662 11.2607 12.264 11.1027 11.9313C10.9447 11.5987 10.5467 11.4573 10.214 11.6153Z" fill="#303030"/>
</g>
<defs>
<clipPath id="clip0_523_41">
<rect width="16" height="16" fill="white" transform="translate(0.5)"/>
</clipPath>
</defs>
</svg>
