<svg width="16" height="16" viewBox="0 0 16 16" fill="none" xmlns="http://www.w3.org/2000/svg">
<g clip-path="url(#clip0_321_107)">
<path d="M15.4627 7.73302C15.1085 7.25998 14.6052 6.92013 14.0341 6.76835C14.3124 5.95915 14.5181 5.12674 14.6487 4.28102C14.6914 3.9736 14.6621 3.66047 14.5632 3.36628C14.4643 3.07209 14.2985 2.80488 14.0788 2.58567C13.859 2.36646 13.5914 2.20125 13.297 2.10304C13.0026 2.00483 12.6894 1.97629 12.3821 2.01969C12.2981 2.03102 12.0487 2.06769 11.7081 2.13369C11.919 1.66666 12.019 1.15713 12.0001 0.64502C11.9973 0.557472 11.9772 0.471333 11.9412 0.391522C11.9051 0.31171 11.8536 0.239789 11.7897 0.179864C11.7258 0.119939 11.6508 0.0731847 11.5688 0.0422698C11.4869 0.011355 11.3996 -0.00311477 11.3121 -0.000313233C11.2245 0.0024883 11.1384 0.0225062 11.0586 0.0585977C10.9788 0.0946891 10.9068 0.146147 10.8469 0.210034C10.787 0.273921 10.7402 0.348985 10.7093 0.430941C10.6784 0.512896 10.6639 0.600139 10.6667 0.687687C10.6781 1.00973 10.612 1.3298 10.4741 1.62102C10.3776 1.36079 10.2401 1.11771 10.0667 0.90102C9.77203 0.565618 9.39793 0.309454 8.97867 0.155956C8.5594 0.0024571 8.10834 -0.0434772 7.66673 0.0223535C7.18252 0.0612208 6.71969 0.238484 6.3334 0.53302C5.8967 0.204482 5.36837 0.0203735 4.82207 0.00635345C4.12886 -0.0608329 3.43727 0.1494 2.89873 0.59102C2.62528 0.834467 2.40451 1.13126 2.24996 1.46316C2.09542 1.79506 2.01038 2.15505 2.00007 2.52102C1.98177 3.10703 2.15239 3.6834 2.48673 4.16502C2.08 4.51375 1.76427 4.95625 1.56682 5.45431C1.36936 5.95236 1.29611 6.49099 1.3534 7.02369C0.826169 7.31749 0.415295 7.78279 0.189005 8.34233C-0.0372843 8.90187 -0.0653745 9.52198 0.109399 10.0997C0.566072 11.6887 1.41605 13.1369 2.58073 14.3104C3.69807 15.3998 5.19883 16.0066 6.7594 15.9997H9.24073C10.8011 16.0067 12.3017 15.3999 13.4187 14.3104C14.5838 13.1371 15.4341 11.6889 15.8907 10.0997C16.0098 9.69925 16.033 9.27645 15.9587 8.86536C15.8844 8.45428 15.7145 8.06641 15.4627 7.73302ZM12.5674 3.33969C12.6706 3.32577 12.7756 3.33589 12.8742 3.36926C12.9728 3.40263 13.0623 3.45834 13.1359 3.53205C13.2094 3.60576 13.2649 3.69547 13.298 3.79417C13.3311 3.89287 13.3409 3.99789 13.3267 4.10102C13.1869 4.97648 12.9602 5.83583 12.6501 6.66635H10.9427L11.8047 5.80435C11.9262 5.67862 11.9934 5.51022 11.9919 5.33542C11.9903 5.16062 11.9202 4.99341 11.7966 4.86981C11.673 4.7462 11.5058 4.67609 11.331 4.67457C11.1562 4.67305 10.9878 4.74025 10.8621 4.86169L9.0574 6.66635H8.02473C7.97604 6.31572 8.00947 5.95857 8.12239 5.62306C8.2353 5.28755 8.42462 4.98287 8.6754 4.73302C8.96007 4.44569 10.0514 3.66635 12.5674 3.33969ZM3.3334 2.56569C3.33741 2.38215 3.37879 2.20136 3.45501 2.03435C3.53124 1.86735 3.64071 1.71763 3.77673 1.59435C4.05178 1.39105 4.39347 1.29914 4.7334 1.33702C4.89759 1.33027 5.06135 1.35832 5.21393 1.41933C5.36651 1.48034 5.50446 1.57293 5.61873 1.69102C5.70869 1.79153 5.81884 1.87192 5.94199 1.92695C6.06514 1.98198 6.19852 2.0104 6.3334 2.01035C6.46797 2.00969 6.6009 1.98074 6.72356 1.92538C6.84622 1.87002 6.95587 1.78949 7.0454 1.68902C7.14483 1.58384 7.26415 1.49945 7.39644 1.44074C7.52873 1.38204 7.67137 1.35018 7.81607 1.34702C8.03643 1.30777 8.2631 1.32376 8.47577 1.39356C8.68844 1.46337 8.88049 1.58481 9.03473 1.74702C9.23712 2.00612 9.34275 2.32772 9.3334 2.65635C9.3334 2.69969 9.3334 2.79435 9.3334 2.79435C8.4484 3.11304 7.6924 3.71329 7.1814 4.50302C6.76043 4.00467 6.20032 3.64329 5.57276 3.46514C4.9452 3.28699 4.27875 3.30018 3.65873 3.50302C3.4375 3.24191 3.3215 2.90772 3.3334 2.56569ZM2.66673 6.66635C2.66673 6.13592 2.87745 5.62721 3.25252 5.25214C3.62759 4.87707 4.1363 4.66635 4.66673 4.66635C5.19717 4.66635 5.70587 4.87707 6.08095 5.25214C6.45602 5.62721 6.66673 6.13592 6.66673 6.66635H2.66673ZM14.6107 9.72569C14.2124 11.0971 13.4793 12.348 12.4774 13.3657C11.6111 14.2074 10.4485 14.6745 9.24073 14.6664H6.7594C5.55125 14.6742 4.38838 14.2071 3.5214 13.3657C2.51946 12.348 1.78634 11.0971 1.38807 9.72569C1.3283 9.52385 1.31671 9.3108 1.35422 9.10367C1.39173 8.89653 1.47731 8.70108 1.60407 8.53302C1.72706 8.36712 1.8873 8.23242 2.07188 8.13979C2.25646 8.04715 2.46021 7.99916 2.66673 7.99969H13.3334C13.5406 7.99853 13.7451 8.04622 13.9305 8.13888C14.1158 8.23154 14.2767 8.36657 14.4001 8.53302C14.5259 8.70154 14.6105 8.8972 14.6471 9.10432C14.6837 9.31144 14.6712 9.52425 14.6107 9.72569Z" fill="#38754E"/>
</g>
<defs>
<clipPath id="clip0_321_107">
<rect width="16" height="16" fill="white"/>
</clipPath>
</defs>
</svg>
