<svg width="16" height="16" viewBox="0 0 16 16" fill="none" xmlns="http://www.w3.org/2000/svg">
<g clip-path="url(#clip0_340_41)">
<path d="M12.3873 1.42664L8.21059 0.0339774C8.07384 -0.01157 7.926 -0.01157 7.78925 0.0339774L3.61259 1.42664C2.94852 1.64723 2.37086 2.07148 1.96168 2.63912C1.5525 3.20675 1.33261 3.8889 1.33325 4.58864V7.99998C1.33325 13.042 7.46659 15.8266 7.72925 15.9426C7.81447 15.9805 7.90668 16.0001 7.99992 16.0001C8.09316 16.0001 8.18537 15.9805 8.27059 15.9426C8.53325 15.8266 14.6666 13.042 14.6666 7.99998V4.58864C14.6672 3.8889 14.4473 3.20675 14.0382 2.63912C13.629 2.07148 13.0513 1.64723 12.3873 1.42664ZM13.3333 7.99998C13.3333 11.6366 9.12059 14.022 7.99992 14.5926C6.87792 14.024 2.66659 11.646 2.66659 7.99998V4.58864C2.66663 4.16883 2.79877 3.75967 3.0443 3.41914C3.28982 3.07861 3.63628 2.82397 4.03459 2.69131L7.99992 1.36931L11.9653 2.69131C12.3636 2.82397 12.71 3.07861 12.9555 3.41914C13.2011 3.75967 13.3332 4.16883 13.3333 4.58864V7.99998Z" fill="#303030"/>
<path d="M10.2 5.53332L7.40803 8.33332L5.91202 6.77332C5.85199 6.70768 5.77942 6.65472 5.6986 6.61755C5.61778 6.58039 5.53033 6.55978 5.44142 6.55693C5.35251 6.55408 5.26393 6.56906 5.18089 6.60098C5.09786 6.63289 5.02205 6.6811 4.95794 6.74277C4.89383 6.80444 4.8427 6.87831 4.80758 6.96004C4.77246 7.04177 4.75405 7.1297 4.75343 7.21866C4.75282 7.30761 4.77002 7.39579 4.80401 7.478C4.838 7.5602 4.8881 7.63478 4.95136 7.69732L6.48869 9.29732C6.60334 9.42116 6.74192 9.52045 6.89604 9.58921C7.05016 9.65796 7.21662 9.69474 7.38536 9.69732H7.40736C7.57273 9.69787 7.73656 9.66556 7.88934 9.60227C8.04212 9.53899 8.18081 9.44598 8.29736 9.32866L11.1454 6.48066C11.2076 6.41858 11.2569 6.34487 11.2906 6.26372C11.3244 6.18257 11.3418 6.09557 11.3418 6.0077C11.3419 5.91982 11.3247 5.83279 11.2912 5.75157C11.2576 5.67034 11.2084 5.59653 11.1464 5.53432C11.0843 5.47212 11.0106 5.42275 10.9294 5.38904C10.8483 5.35532 10.7613 5.33792 10.6734 5.33783C10.5855 5.33774 10.4985 5.35495 10.4173 5.3885C10.336 5.42204 10.2622 5.47125 10.2 5.53332Z" fill="#303030"/>
</g>
<defs>
<clipPath id="clip0_340_41">
<rect width="16" height="16" fill="white"/>
</clipPath>
</defs>
</svg>
