<svg width="16" height="16" viewBox="0 0 16 16" fill="none" xmlns="http://www.w3.org/2000/svg">
<g clip-path="url(#clip0_42_1945)">
<path d="M15.7607 7.17354L15.088 5.15754C14.7247 4.06687 13.7087 3.3342 12.5587 3.3342H11.2607C11.1447 2.76754 10.888 2.23554 10.5 1.7962C10.256 1.51954 9.83467 1.49487 9.55933 1.73754C9.28267 1.98154 9.25667 2.40287 9.5 2.67887C9.822 3.0442 10 3.51354 10 4.00154V11.3349H1.33333V10.0015C1.33333 9.63287 1.03533 9.33487 0.666667 9.33487C0.298 9.33487 0 9.63287 0 10.0015V13.0015C0 14.2882 1.04667 15.3349 2.33333 15.3349C2.98667 15.3349 3.576 15.0635 4 14.6295C4.424 15.0635 5.01333 15.3349 5.66667 15.3349C6.95333 15.3349 8 14.2882 8 13.0015V12.6682H10V13.0015C10 14.2882 11.0467 15.3349 12.3333 15.3349C13.62 15.3349 14.6667 14.2882 14.6667 13.0015V12.2975C15.46 11.8349 16 10.9842 16 10.0015V8.65087C16 8.14754 15.9193 7.65087 15.7607 7.17487V7.17354ZM13.824 5.57887L14.4093 7.33354H11.334V4.66687H12.5593C13.134 4.66687 13.642 5.03287 13.824 5.57887ZM2.33333 14.0002C1.782 14.0002 1.33333 13.5515 1.33333 13.0002V12.6669H3.33333V13.0002C3.33333 13.5515 2.88467 14.0002 2.33333 14.0002ZM6.66667 13.0002C6.66667 13.5515 6.218 14.0002 5.66667 14.0002C5.11533 14.0002 4.66667 13.5515 4.66667 13.0002V12.6669H6.66667V13.0002ZM13.3333 13.0002C13.3333 13.5515 12.8847 14.0002 12.3333 14.0002C11.782 14.0002 11.3333 13.5515 11.3333 13.0002V12.6669H13.3333V13.0002ZM13.3333 11.3335H11.3333V8.66687H14.6667V10.0002C14.6667 10.7355 14.0687 11.3335 13.3333 11.3335ZM0 3.66687V0.666869C0 0.298869 0.298 0.000202017 0.666667 0.000202017C1.03533 0.000202017 1.33333 0.298869 1.33333 0.666869V3.66687C1.33333 3.85087 1.48333 4.0002 1.66667 4.0002H2V0.666869C2 0.298869 2.298 0.000202017 2.66667 0.000202017C3.03533 0.000202017 3.33333 0.298869 3.33333 0.666869V4.0002H3.66667C3.85 4.0002 4 3.85087 4 3.66687V0.666869C4 0.298869 4.298 0.000202017 4.66667 0.000202017C5.03533 0.000202017 5.33333 0.298869 5.33333 0.666869V3.66687C5.33333 4.58554 4.586 5.33354 3.66667 5.33354H3.33333V8.0002C3.33333 8.3682 3.03533 8.66687 2.66667 8.66687C2.298 8.66687 2 8.3682 2 8.0002V5.33354H1.66667C0.747333 5.33354 0 4.58554 0 3.66687ZM6 8.0002V0.492869C6 0.0162021 6.65533 -0.180465 6.964 0.201535C7.72733 1.14754 8.66667 2.53887 8.66667 4.0002C8.66667 5.23087 8 6.23087 7.33333 6.92354V8.0002C7.33333 8.3682 7.03533 8.66687 6.66667 8.66687C6.298 8.66687 6 8.3682 6 8.0002Z" fill="#303030"/>
</g>
<defs>
<clipPath id="clip0_42_1945">
<rect width="16" height="16" fill="white"/>
</clipPath>
</defs>
</svg>
