<svg width="21" height="18" viewBox="0 0 21 18" fill="none" xmlns="http://www.w3.org/2000/svg">
<path fill-rule="evenodd" clip-rule="evenodd" d="M18.4666 4.47974C18.4743 4.67764 18.4769 4.87546 18.4769 5.07336C18.4769 11.0734 14.2321 18 6.46974 18C4.08529 18 1.8681 17.2444 0 15.958C0.33022 15.994 0.66559 16.021 1.0061 16.021C2.98313 16.021 4.80406 15.2923 6.24845 14.0689C4.40179 14.0419 2.84248 12.7195 2.30469 10.9204C2.56286 10.9744 2.82873 11.0015 3.10063 11.0015C3.48403 11.0015 3.85627 10.9476 4.21308 10.8396C2.28065 10.4258 0.825126 8.59079 0.825126 6.38689C0.825126 6.35991 0.825126 6.35086 0.825126 6.33287C1.39465 6.6657 2.0465 6.87249 2.73868 6.89948C1.60478 6.08089 0.859416 4.68662 0.859416 3.11241C0.859416 2.28482 1.06698 1.50218 1.43237 0.827516C3.51318 3.58014 6.62414 5.38826 10.1313 5.57717C10.0593 5.24433 10.0224 4.8936 10.0224 4.54277C10.0224 2.03303 11.9119 0 14.2432 0C15.4569 0 16.553 0.548804 17.3224 1.43036C18.2856 1.23246 19.1879 0.854678 20.0045 0.332939C19.688 1.39441 19.0198 2.28478 18.1466 2.8425C19.0009 2.73455 19.8158 2.49186 20.5714 2.13204C20.0045 3.04058 19.2909 3.84106 18.4666 4.47974Z" fill="white"/>
</svg>
