<svg width="32" height="32" viewBox="0 0 32 32" fill="none" xmlns="http://www.w3.org/2000/svg">
<g clip-path="url(#clip0_321_212)">
<path d="M22.667 28.0003V30.667C22.667 31.403 22.0697 32.0003 21.3337 32.0003C20.5977 32.0003 20.0003 31.403 20.0003 30.667V28.0003C20.0003 27.2643 20.5977 26.667 21.3337 26.667C22.0697 26.667 22.667 27.2643 22.667 28.0003ZM9.33367 13.3337C7.12833 13.3337 5.33367 11.539 5.33367 9.33367C5.33367 8.59767 4.73633 8.00033 4.00033 8.00033C3.26433 8.00033 2.667 8.59767 2.667 9.33367C2.667 12.5537 4.96167 15.247 8.00033 15.8657V30.667C8.00033 31.403 8.59767 32.0003 9.33367 32.0003C10.0697 32.0003 10.667 31.403 10.667 30.667V14.667C10.667 13.931 10.0697 13.3337 9.33367 13.3337ZM31.6097 31.6097C31.3497 31.8697 31.0083 32.0003 30.667 32.0003C30.3257 32.0003 29.9843 31.8697 29.7243 31.6097L0.391 2.27633C-0.130333 1.755 -0.130333 0.912333 0.391 0.391C0.912333 -0.130333 1.755 -0.130333 2.27633 0.391L2.76033 0.875C2.94833 0.367 3.427 0.000333319 4.00033 0.000333319C4.73633 0.000333319 5.33367 0.597667 5.33367 1.33367V3.44833L8.00033 6.115V1.33367C8.00033 0.597667 8.59767 0.000333319 9.33367 0.000333319C10.0697 0.000333319 10.667 0.597667 10.667 1.33367C10.667 1.33367 10.6497 8.72967 10.6483 8.76167L12.9323 11.0457C13.1857 10.5137 13.335 9.93367 13.335 9.33367V1.33367C13.335 0.597667 13.9323 0.000333319 14.6683 0.000333319C15.4043 0.000333319 16.0017 0.597667 16.0017 1.33367V9.33367C16.0017 10.6483 15.599 11.9123 14.883 12.9963L20.0017 18.115V2.667C20.0017 1.60567 20.5803 0.695 21.5097 0.289667C22.5377 -0.157 23.7697 0.0816666 24.651 0.900333C26.907 2.99367 29.335 7.77767 29.335 13.3337C29.335 17.903 27.3537 21.355 25.4897 23.603L31.611 29.7243C32.1323 30.2457 32.131 31.0883 31.6097 31.6097ZM23.5977 21.7123C25.1163 19.819 26.667 16.9897 26.667 13.3337C26.667 8.25367 24.3763 4.28433 22.8363 2.855C22.775 2.79767 22.7163 2.767 22.6697 2.74967L22.667 20.667C22.667 20.7003 23.5977 21.7123 23.5977 21.7123Z" fill="#F2790F"/>
</g>
<defs>
<clipPath id="clip0_321_212">
<rect width="32" height="32" fill="white"/>
</clipPath>
</defs>
</svg>
