<svg width="16" height="16" viewBox="0 0 16 16" fill="none" xmlns="http://www.w3.org/2000/svg">
<path d="M15.4627 7.73333C15.1085 7.26029 14.6051 6.92044 14.034 6.76867C14.3124 5.95946 14.5181 5.12706 14.6487 4.28133C14.6913 3.97391 14.6621 3.66078 14.5632 3.36659C14.4643 3.0724 14.2984 2.80519 14.0787 2.58598C13.859 2.36678 13.5914 2.20156 13.2969 2.10335C13.0025 2.00514 12.6893 1.97661 12.382 2.02C12.298 2.03133 12.0487 2.068 11.708 2.134C11.9189 1.66697 12.0189 1.15744 12 0.645333C11.9972 0.557785 11.9772 0.471646 11.9411 0.391835C11.905 0.312023 11.8535 0.240102 11.7897 0.180177C11.7258 0.120252 11.6507 0.0734975 11.5687 0.0425826C11.4868 0.0116678 11.3995 -0.00280196 11.312 -4.27477e-07C11.2245 0.00280111 11.1383 0.0228191 11.0585 0.0589105C10.9787 0.0950019 10.9068 0.14646 10.8468 0.210347C10.7869 0.274233 10.7402 0.349298 10.7093 0.431253C10.6783 0.513209 10.6639 0.600452 10.6667 0.688C10.678 1.01004 10.612 1.33012 10.474 1.62133C10.3776 1.3611 10.2401 1.11802 10.0667 0.901333C9.77196 0.565931 9.39787 0.309767 8.9786 0.156268C8.55933 0.00276991 8.10827 -0.0431644 7.66667 0.0226663C7.18245 0.0615336 6.71963 0.238797 6.33333 0.533333C5.89663 0.204795 5.36831 0.0206863 4.822 0.00666625C4.12879 -0.0605201 3.4372 0.149713 2.89867 0.591333C2.62522 0.83478 2.40444 1.13157 2.2499 1.46347C2.09536 1.79537 2.01031 2.15536 2 2.52133C1.9817 3.10735 2.15232 3.68371 2.48667 4.16533C2.07993 4.51407 1.7642 4.95657 1.56675 5.45462C1.36929 5.95267 1.29605 6.49131 1.35333 7.024C0.826102 7.3178 0.415228 7.78311 0.188939 8.34264C-0.0373511 8.90218 -0.0654413 9.52229 0.109333 10.1C0.566005 11.689 1.41599 13.1372 2.58067 14.3107C3.698 15.4002 5.19876 16.0069 6.75933 16H9.24067C10.8011 16.007 12.3017 15.4002 13.4187 14.3107C14.5838 13.1374 15.434 11.6892 15.8907 10.1C16.0097 9.69956 16.033 9.27676 15.9586 8.86568C15.8843 8.45459 15.7144 8.06672 15.4627 7.73333ZM12.5673 3.34C12.6705 3.32608 12.7755 3.3362 12.8741 3.36957C12.9727 3.40294 13.0623 3.45865 13.1358 3.53236C13.2093 3.60607 13.2648 3.69578 13.2979 3.79448C13.331 3.89318 13.3409 3.9982 13.3267 4.10133C13.1869 4.97679 12.9602 5.83615 12.65 6.66667H10.9427L11.8047 5.80467C11.9261 5.67893 11.9933 5.51053 11.9918 5.33573C11.9903 5.16093 11.9202 4.99373 11.7965 4.87012C11.6729 4.74652 11.5057 4.6764 11.3309 4.67488C11.1561 4.67337 10.9877 4.74056 10.862 4.862L9.05733 6.66667H8.02467C7.97598 6.31603 8.00941 5.95888 8.12232 5.62337C8.23524 5.28787 8.42455 4.98318 8.67533 4.73333C8.96 4.446 10.0513 3.66667 12.5673 3.34ZM3.33333 2.566C3.33734 2.38246 3.37872 2.20167 3.45494 2.03467C3.53117 1.86766 3.64064 1.71794 3.77667 1.59467C4.05172 1.39136 4.39341 1.29945 4.73333 1.33733C4.89752 1.33058 5.06128 1.35863 5.21386 1.41964C5.36644 1.48065 5.5044 1.57324 5.61867 1.69133C5.70862 1.79184 5.81877 1.87224 5.94192 1.92726C6.06507 1.98229 6.19845 2.01071 6.33333 2.01067C6.46791 2.01 6.60083 1.98105 6.72349 1.92569C6.84615 1.87033 6.95581 1.78981 7.04533 1.68933C7.14476 1.58415 7.26408 1.49976 7.39637 1.44106C7.52867 1.38235 7.6713 1.35049 7.816 1.34733C8.03637 1.30808 8.26303 1.32407 8.4757 1.39388C8.68838 1.46368 8.88043 1.58512 9.03467 1.74733C9.23705 2.00643 9.34268 2.32803 9.33333 2.65667C9.33333 2.7 9.33333 2.79467 9.33333 2.79467C8.44833 3.11335 7.69233 3.7136 7.18133 4.50333C6.76037 4.00498 6.20025 3.6436 5.57269 3.46545C4.94513 3.28731 4.27869 3.30049 3.65867 3.50333C3.43743 3.24222 3.32144 2.90803 3.33333 2.566ZM2.66667 6.66667C2.66667 6.13623 2.87738 5.62753 3.25245 5.25245C3.62753 4.87738 4.13623 4.66667 4.66667 4.66667C5.1971 4.66667 5.70581 4.87738 6.08088 5.25245C6.45595 5.62753 6.66667 6.13623 6.66667 6.66667H2.66667ZM14.6107 9.726C14.2123 11.0974 13.4792 12.3483 12.4773 13.366C11.611 14.2077 10.4485 14.6749 9.24067 14.6667H6.75933C5.55119 14.6746 4.38831 14.2074 3.52133 13.366C2.51939 12.3483 1.78628 11.0975 1.388 9.726C1.32823 9.52416 1.31664 9.31111 1.35415 9.10398C1.39167 8.89684 1.47724 8.7014 1.604 8.53333C1.72699 8.36743 1.88723 8.23274 2.07181 8.1401C2.25639 8.04746 2.46015 7.99947 2.66667 8H13.3333C13.5405 7.99885 13.7451 8.04653 13.9304 8.1392C14.1157 8.23186 14.2766 8.36689 14.4 8.53333C14.5259 8.70185 14.6105 8.89751 14.6471 9.10463C14.6836 9.31176 14.6712 9.52457 14.6107 9.726Z" fill="#303030"/>
</svg>
