<svg width="16" height="10" viewBox="0 0 16 10" fill="none" xmlns="http://www.w3.org/2000/svg">
<path d="M4.14 0.966652C4.20248 1.02863 4.25208 1.10236 4.28593 1.1836C4.31977 1.26484 4.3372 1.35198 4.3372 1.43998C4.3372 1.52799 4.31977 1.61513 4.28593 1.69637C4.25208 1.77761 4.20248 1.85134 4.14 1.91332L1.72 4.33332L15.3333 4.33332C15.5101 4.33332 15.6797 4.40356 15.8047 4.52858C15.9298 4.65361 16 4.82317 16 4.99999V4.99999C16 5.1768 15.9298 5.34637 15.8047 5.47139C15.6797 5.59641 15.5101 5.66665 15.3333 5.66665L1.72667 5.66665L4.14 8.07999C4.21813 8.13713 4.28288 8.2106 4.32975 8.29529C4.37662 8.37998 4.40448 8.47386 4.4114 8.57041C4.41833 8.66696 4.40414 8.76385 4.36984 8.85437C4.33553 8.94488 4.28193 9.02683 4.21275 9.09454C4.14358 9.16224 4.06049 9.21407 3.96926 9.24642C3.87803 9.27877 3.78085 9.29087 3.68447 9.28187C3.5881 9.27288 3.49484 9.243 3.41117 9.19432C3.32751 9.14564 3.25545 9.07933 3.2 8.99999L0.586666 6.38665C0.212131 6.01165 0.00175948 5.50332 0.00175948 4.97332C0.00175947 4.44332 0.212131 3.93499 0.586666 3.55999L3.2 0.946652C3.32753 0.825105 3.49799 0.75898 3.67413 0.762728C3.85026 0.766475 4.01775 0.839791 4.14 0.966652Z" fill="#303030"/>
</svg>
