<svg width="16" height="16" viewBox="0 0 16 16" fill="none" xmlns="http://www.w3.org/2000/svg">
<path d="M12.6667 3.33333H11.282C11.122 2.422 10.59 1.61467 9.79133 1.10467C9.48 0.906 9.06867 0.997333 8.87067 1.308C8.67267 1.61867 8.76333 2.03067 9.074 2.22867C9.65333 2.59867 10 3.22933 10 3.916V11.3333H2.66667C1.93133 11.3333 1.33333 10.7353 1.33333 10V9.33333C1.33333 8.96533 1.03533 8.66667 0.666667 8.66667C0.298 8.66667 0 8.96533 0 9.33333V10C0 11.2533 0.869333 12.3073 2.03667 12.5913C2.01267 12.7253 2 12.862 2 13C2 14.2867 3.04667 15.3333 4.33333 15.3333C5.62 15.3333 6.66667 14.2867 6.66667 13C6.66667 12.8873 6.658 12.7767 6.642 12.6667H9.358C9.342 12.7767 9.33333 12.8873 9.33333 13C9.33333 14.2867 10.38 15.3333 11.6667 15.3333C12.9533 15.3333 14 14.2867 14 13C14 12.862 13.9873 12.7253 13.9633 12.5913C15.1307 12.3073 16 11.2533 16 10V6.66667C16 4.82867 14.5047 3.33333 12.6667 3.33333ZM4.33333 14C3.782 14 3.33333 13.5513 3.33333 13C3.33333 12.874 3.358 12.7627 3.394 12.6667H5.27333C5.30933 12.7627 5.334 12.874 5.334 13C5.334 13.5513 4.88467 14 4.33333 14ZM11.6667 14C11.1153 14 10.6667 13.5513 10.6667 13C10.6667 12.874 10.6913 12.7627 10.7273 12.6667H12.6067C12.6427 12.7627 12.6673 12.874 12.6673 13C12.6673 13.5513 12.218 14 11.6667 14ZM14.6667 10C14.6667 10.7353 14.0687 11.3333 13.3333 11.3333H11.3333V8.66667H14.6667V10ZM14.6667 7.33333H11.3333V4.66667H12.6667C13.7693 4.66667 14.6667 5.564 14.6667 6.66667V7.33333ZM3.52867 4.47133C3.40333 4.346 3.33333 4.17667 3.33333 4V2.66667C3.33333 2.29867 3.63133 2 4 2C4.36867 2 4.66667 2.29867 4.66667 2.66667V3.724L5.138 4.19533C5.39867 4.456 5.39867 4.87733 5.138 5.138C5.008 5.268 4.83733 5.33333 4.66667 5.33333C4.496 5.33333 4.32533 5.268 4.19533 5.138L3.52867 4.47133ZM4 8C6.206 8 8 6.206 8 4C8 1.794 6.206 0 4 0C1.794 0 0 1.794 0 4C0 6.206 1.794 8 4 8ZM4 1.33333C5.47067 1.33333 6.66667 2.52933 6.66667 4C6.66667 5.47067 5.47067 6.66667 4 6.66667C2.52933 6.66667 1.33333 5.47067 1.33333 4C1.33333 2.52933 2.52933 1.33333 4 1.33333Z" fill="#38754E"/>
</svg>
