<svg width="16" height="16" viewBox="0 0 16 16" fill="none" xmlns="http://www.w3.org/2000/svg">
<path d="M10.6666 15.3333C10.6666 15.7013 10.3686 16 9.99996 16H3.99996C2.16196 16 0.666626 14.5047 0.666626 12.6667V3.33333C0.666626 1.49533 2.16196 0 3.99996 0H7.00996C8.25596 0 9.42796 0.485333 10.31 1.36667L12.6326 3.69067C12.8133 3.87133 12.9813 4.06933 13.1313 4.27933C13.3453 4.57867 13.276 4.99533 12.9766 5.20933C12.6773 5.42267 12.26 5.354 12.0466 5.054C11.9393 4.904 11.8193 4.762 11.6906 4.634L9.36729 2.31C9.15529 2.098 8.91996 1.91867 8.66663 1.77333V4.66667C8.66663 5.034 8.96529 5.33333 9.33329 5.33333H11.3333C11.702 5.33333 12 5.632 12 6C12 6.368 11.702 6.66667 11.3333 6.66667H9.33329C8.23063 6.66667 7.33329 5.76933 7.33329 4.66667V1.34867C7.22663 1.33867 7.11863 1.33333 7.00996 1.33333H3.99996C2.89729 1.33333 1.99996 2.23067 1.99996 3.33333V12.6667C1.99996 13.7693 2.89729 14.6667 3.99996 14.6667H9.99996C10.3686 14.6667 10.6666 14.9653 10.6666 15.3333ZM14.4566 10.8447L12.4293 10.5067C12.1806 10.4653 12 10.252 12 10C12 9.63267 12.2986 9.33333 12.6666 9.33333H14.1786C14.416 9.33333 14.6373 9.46133 14.7566 9.66667C14.94 9.98533 15.3466 10.094 15.6673 9.91C15.986 9.72533 16.0953 9.318 15.91 8.99933C15.554 8.38267 14.89 7.99933 14.178 7.99933H13.9993V7.33267C13.9993 6.96467 13.7013 6.666 13.3326 6.666C12.964 6.666 12.666 6.96467 12.666 7.33267V7.99933C11.5633 7.99933 10.666 8.89667 10.666 9.99933C10.666 10.906 11.3153 11.6727 12.2093 11.8213L14.2366 12.1593C14.4853 12.2007 14.666 12.414 14.666 12.666C14.666 13.0333 14.3673 13.3327 13.9993 13.3327H12.4873C12.25 13.3327 12.0286 13.2047 11.9093 12.9993C11.726 12.68 11.3186 12.5713 10.9986 12.756C10.68 12.9407 10.5706 13.348 10.756 13.6667C11.112 14.2833 11.776 14.666 12.488 14.666H12.6666V15.3327C12.6666 15.7007 12.9646 15.9993 13.3333 15.9993C13.702 15.9993 14 15.7007 14 15.3327V14.666C15.1026 14.666 16 13.7687 16 12.666C16 11.7593 15.3506 10.9933 14.4566 10.8447ZM4.99996 10H8.66663C9.03529 10 9.33329 9.70133 9.33329 9.33333C9.33329 8.96533 9.03529 8.66667 8.66663 8.66667H4.99996C4.08129 8.66667 3.33329 9.41467 3.33329 10.3333V11.6667C3.33329 12.5853 4.08129 13.3333 4.99996 13.3333H8.66663C9.03529 13.3333 9.33329 13.0347 9.33329 12.6667C9.33329 12.2987 9.03529 12 8.66663 12H4.99996C4.81596 12 4.66663 11.8507 4.66663 11.6667V10.3333C4.66663 10.1493 4.81596 10 4.99996 10ZM3.99996 7.33333H5.33329C5.70129 7.33333 5.99996 7.03467 5.99996 6.66667C5.99996 6.29867 5.70129 6 5.33329 6H3.99996C3.63196 6 3.33329 6.29867 3.33329 6.66667C3.33329 7.03467 3.63196 7.33333 3.99996 7.33333ZM3.99996 4.66667H5.33329C5.70129 4.66667 5.99996 4.368 5.99996 4C5.99996 3.632 5.70129 3.33333 5.33329 3.33333H3.99996C3.63196 3.33333 3.33329 3.632 3.33329 4C3.33329 4.368 3.63196 4.66667 3.99996 4.66667Z" fill="black"/>
</svg>
