<svg width="16" height="16" viewBox="0 0 16 16" fill="none" xmlns="http://www.w3.org/2000/svg">
<path d="M12.6667 12C11.7473 12 11 11.2527 11 10.3333C11 9.414 11.7473 8.66667 12.6667 8.66667C13.586 8.66667 14.3333 9.414 14.3333 10.3333C14.3333 11.2527 13.586 12 12.6667 12ZM14 2.66667H3.33333C2.76267 2.66667 2.23133 2.41267 1.856 1.99733C2.222 1.59267 2.746 1.33333 3.33333 1.33333H15.3333C15.7013 1.33333 16 1.03467 16 0.666667C16 0.298667 15.7013 0 15.3333 0H3.33333C1.49267 0 0 1.49267 0 3.33333V10C0 11.8407 1.49267 13.3333 3.33333 13.3333H8.66667C9.03467 13.3333 9.33333 13.0347 9.33333 12.6667C9.33333 12.2987 9.03467 12 8.66667 12H3.33333C2.22867 12 1.33333 11.1047 1.33333 10V3.33333C1.33333 3.33333 1.33467 3.33267 1.33667 3.332C1.90533 3.75733 2.604 4 3.33333 4H14C14.368 4 14.6667 4.29867 14.6667 4.66667V8C14.6667 8.368 14.9653 8.66667 15.3333 8.66667C15.7013 8.66667 16 8.368 16 8V4.66667C16 3.562 15.1047 2.66667 14 2.66667ZM12.6667 12.6667C11.1113 12.6667 9.75 13.692 9.356 15.1607C9.26067 15.516 9.47133 15.882 9.82733 15.9773C10.1833 16.0727 10.548 15.862 10.644 15.506C10.882 14.6193 11.714 14 12.6667 14C13.6193 14 14.4513 14.6193 14.6893 15.506C14.7693 15.804 15.0387 16 15.3327 16C15.3893 16 15.448 15.9927 15.506 15.9767C15.8613 15.8813 16.0727 15.5153 15.9773 15.16C15.5833 13.6913 14.222 12.6667 12.6667 12.6667Z" fill="#303030"/>
</svg>
