<svg width="16" height="10" viewBox="0 0 16 10" fill="none" xmlns="http://www.w3.org/2000/svg">
<path d="M11.86 9.03332C11.7975 8.97134 11.7479 8.89761 11.7141 8.81637C11.6802 8.73513 11.6628 8.64799 11.6628 8.55998C11.6628 8.47198 11.6802 8.38484 11.7141 8.3036C11.7479 8.22236 11.7975 8.14863 11.86 8.08665L14.28 5.66665L0.666667 5.66665C0.489856 5.66665 0.320286 5.59641 0.195262 5.47139C0.070238 5.34636 5.32039e-08 5.1768 5.10954e-08 4.99998H5.10954e-08C4.8987e-08 4.82317 0.070238 4.6536 0.195262 4.52858C0.320286 4.40356 0.489856 4.33332 0.666667 4.33332L14.2733 4.33332L11.86 1.91998C11.7819 1.86284 11.7171 1.78937 11.6703 1.70468C11.6234 1.61999 11.5955 1.52611 11.5886 1.42956C11.5817 1.33301 11.5959 1.23612 11.6302 1.1456C11.6645 1.05509 11.7181 0.973136 11.7872 0.905431C11.8564 0.837726 11.9395 0.785897 12.0307 0.753546C12.122 0.721196 12.2192 0.709099 12.3155 0.718096C12.4119 0.727094 12.5052 0.756971 12.5888 0.80565C12.6725 0.854329 12.7446 0.920643 12.8 0.999983L15.4133 3.61332C15.7879 3.98832 15.9982 4.49665 15.9982 5.02665C15.9982 5.55665 15.7879 6.06498 15.4133 6.43998L12.8 9.05332C12.6725 9.17486 12.502 9.24099 12.3259 9.23724C12.1497 9.23349 11.9822 9.16018 11.86 9.03332Z" fill="#38754E"/>
</svg>
