<svg width="28" height="28" viewBox="0 0 28 28" fill="none" xmlns="http://www.w3.org/2000/svg">
<g clip-path="url(#clip0_2_4641)">
<path d="M23.3333 0.00158691H4.66667C2.093 0.00158691 0 2.09459 0 4.66825V5.83492C0 6.86859 0.4515 7.79959 1.16667 8.44125V22.1683C1.16667 25.3848 3.7835 28.0016 7 28.0016H10.5C11.144 28.0016 11.6667 27.4789 11.6667 26.8349C11.6667 26.1909 11.144 25.6683 10.5 25.6683H7C5.07033 25.6683 3.5 24.0979 3.5 22.1683V9.33492H24.5V10.5016C24.5 11.1456 25.0227 11.6683 25.6667 11.6683C26.3107 11.6683 26.8333 11.1456 26.8333 10.5016V8.44125C27.5485 7.79959 28 6.86975 28 5.83492V4.66825C28 2.09459 25.907 0.00158691 23.3333 0.00158691ZM3.5 7.00159C2.85717 7.00159 2.33333 6.47775 2.33333 5.83492V4.66825C2.33333 3.38142 3.37983 2.33492 4.66667 2.33492H23.3333C24.6202 2.33492 25.6667 3.38142 25.6667 4.66825V5.83492C25.6667 6.47775 25.1428 7.00159 24.5 7.00159H3.5ZM19.8333 11.6683C15.33 11.6683 11.6667 15.3316 11.6667 19.8349C11.6667 24.3383 15.33 28.0016 19.8333 28.0016C24.3367 28.0016 28 24.3383 28 19.8349C28 15.3316 24.3367 11.6683 19.8333 11.6683ZM19.8333 25.6683C16.6168 25.6683 14 23.0514 14 19.8349C14 16.6184 16.6168 14.0016 19.8333 14.0016C23.0498 14.0016 25.6667 16.6184 25.6667 19.8349C25.6667 23.0514 23.0498 25.6683 19.8333 25.6683ZM23.5912 18.4209C24.038 18.8853 24.0228 19.6238 23.5573 20.0706L20.9767 22.5486C20.4482 23.0701 19.7493 23.3314 19.0482 23.3314C18.347 23.3314 17.6435 23.0701 17.1068 22.5451L15.7862 21.2536C15.3253 20.8021 15.3183 20.0636 15.7687 19.6028C16.2213 19.1443 16.9598 19.1361 17.4195 19.5853L18.7402 20.8779C18.9082 21.0448 19.1812 21.0424 19.3492 20.8779L21.9427 18.3883C22.407 17.9414 23.1455 17.9566 23.5923 18.4221L23.5912 18.4209Z" fill="#38754E"/>
</g>
<defs>
<clipPath id="clip0_2_4641">
<rect width="28" height="28" fill="white" transform="translate(0 0.00158691)"/>
</clipPath>
</defs>
</svg>
