<svg width="32" height="32" viewBox="0 0 32 32" fill="none" xmlns="http://www.w3.org/2000/svg">
<g clip-path="url(#clip0_2_4444)">
<path d="M22.6667 18.667C21.9594 18.667 21.2811 18.9479 20.781 19.448C20.281 19.9481 20 20.6264 20 21.3337C20 22.0409 20.281 22.7192 20.781 23.2193C21.2811 23.7194 21.9594 24.0003 22.6667 24.0003C23.3739 24.0003 24.0522 23.7194 24.5523 23.2193C25.0524 22.7192 25.3333 22.0409 25.3333 21.3337C25.3333 20.6264 25.0524 19.9481 24.5523 19.448C24.0522 18.9479 23.3739 18.667 22.6667 18.667Z" fill="#D2252E"/>
<path d="M10.6668 14.667C9.25234 14.667 7.89579 15.2289 6.89559 16.2291C5.8954 17.2293 5.3335 18.5858 5.3335 20.0003C5.3335 21.4148 5.8954 22.7714 6.89559 23.7716C7.89579 24.7718 9.25234 25.3337 10.6668 25.3337C12.0813 25.3337 13.4379 24.7718 14.4381 23.7716C15.4383 22.7714 16.0002 21.4148 16.0002 20.0003C16.0002 18.5858 15.4383 17.2293 14.4381 16.2291C13.4379 15.2289 12.0813 14.667 10.6668 14.667ZM10.6668 22.667C9.95959 22.667 9.28131 22.386 8.78121 21.8859C8.28111 21.3858 8.00016 20.7076 8.00016 20.0003C8.00016 19.2931 8.28111 18.6148 8.78121 18.1147C9.28131 17.6146 9.95959 17.3337 10.6668 17.3337C11.3741 17.3337 12.0524 17.6146 12.5524 18.1147C13.0525 18.6148 13.3335 19.2931 13.3335 20.0003C13.3335 20.7076 13.0525 21.3858 12.5524 21.8859C12.0524 22.386 11.3741 22.667 10.6668 22.667Z" fill="#D2252E"/>
<path d="M28.7853 8.93365L18.3346 1.13231C17.2054 0.369792 15.8682 -0.0252416 14.5059 0.00125041C13.1436 0.0277424 11.8227 0.474466 10.724 1.28031C6.40745 4.51055 3.17815 8.97984 1.46663 14.0923C1.44731 14.1605 1.43305 14.23 1.42396 14.3003C1.27707 14.5883 1.15097 14.8864 1.04663 15.1923C-0.354085 19.1672 -0.354085 23.5014 1.04663 27.4763C1.49473 28.7966 2.34546 29.9431 3.47915 30.7546C4.61284 31.5661 5.97242 32.0018 7.36663 32.0003H12.1986C12.7769 31.9912 13.3371 31.7979 13.798 31.4485C14.2589 31.0991 14.5963 30.6119 14.7613 30.0576C14.8964 29.6595 15.1528 29.3136 15.4945 29.0687C15.8363 28.8238 16.2462 28.6921 16.6666 28.6921C17.0871 28.6921 17.497 28.8238 17.8387 29.0687C18.1805 29.3136 18.4369 29.6595 18.572 30.0576C18.737 30.6119 19.0744 31.0991 19.5353 31.4485C19.9961 31.7979 20.5564 31.9912 21.1346 32.0003H25.3333C27.1008 31.9982 28.7952 31.2951 30.045 30.0454C31.2948 28.7956 31.9978 27.1011 32 25.3336V15.343C31.997 14.0987 31.7051 12.8721 31.1473 11.7598C30.5894 10.6476 29.7808 9.6801 28.7853 8.93365ZM12.32 3.41631C12.9663 2.9433 13.7419 2.67952 14.5426 2.66045C15.3432 2.64138 16.1306 2.86793 16.7986 3.30965L26.652 10.667H7.36796C6.84891 10.6665 6.33159 10.7269 5.82663 10.847C7.45896 7.95126 9.66915 5.42202 12.32 3.41631ZM29.3333 25.3336C29.3333 26.3945 28.9119 27.4119 28.1617 28.1621C27.4116 28.9122 26.3942 29.3337 25.3333 29.3337L21.112 29.2456C20.7994 28.305 20.1964 27.4879 19.3897 26.9119C18.583 26.3359 17.6144 26.0308 16.6232 26.0406C15.6321 26.0504 14.6696 26.3745 13.8745 26.9663C13.0793 27.5581 12.4925 28.387 12.1986 29.3337H7.36663C6.52997 29.334 5.71425 29.0721 5.03427 28.5846C4.35428 28.0972 3.84425 27.4088 3.57596 26.6163C2.36596 23.1989 2.36596 19.4697 3.57596 16.0523C3.84514 15.26 4.35553 14.5719 5.03558 14.0843C5.71562 13.5968 6.5312 13.3343 7.36796 13.3336H28.9333C29.1952 13.9713 29.3311 14.6536 29.3333 15.343V25.3336Z" fill="#D2252E"/>
</g>
<defs>
<clipPath id="clip0_2_4444">
<rect width="32" height="32" fill="white"/>
</clipPath>
</defs>
</svg>
