<svg width="32" height="32" viewBox="0 0 32 32" fill="none" xmlns="http://www.w3.org/2000/svg">
<path d="M29.114 10.3934C30.839 8.66836 31.6195 5.50236 31.9718 3.15288C32.033 2.72833 31.9944 2.29534 31.859 1.88831C31.7236 1.48128 31.4952 1.11143 31.1919 0.808113C30.8886 0.5048 30.5187 0.276385 30.1117 0.141009C29.7047 0.00563267 29.2717 -0.0329755 28.8471 0.0282503C26.2001 0.469862 22.5765 1.24502 21.0222 3.64653C18.131 -1.38998 14.5808 2.814 13.5628 6.86989C10.4755 6.00935 9.11869 9.56225 8.22613 12.2066C4.94673 11.0992 2.78003 16.3932 2.65462 19.3417C2.74141 21.4984 3.5119 23.5716 4.85467 25.2615L0.374518 29.739C0.131488 29.9906 -0.00298937 30.3276 5.04352e-05 30.6774C0.00309024 31.0272 0.143404 31.3619 0.39077 31.6092C0.638137 31.8566 0.972764 31.9969 1.32258 31.9999C1.6724 32.003 2.00941 31.8685 2.26104 31.6255L6.73853 27.148C8.42928 28.4911 10.5034 29.2615 12.6609 29.348C15.5534 29.2426 21.0008 26.9946 19.8268 23.7699C22.3951 22.8973 26.1094 21.4511 25.1635 18.4332C29.2314 17.3738 33.45 13.8756 28.3495 10.9765C28.6263 10.8128 28.8829 10.6172 29.114 10.3934ZM23.4917 4.77124C25.1944 3.52869 27.2314 2.8272 29.3381 2.75797C28.4762 7.77046 27.6183 9.78239 22.7059 9.29542C22.5805 7.61569 22.7353 5.52905 23.4917 4.77124ZM17.9869 3.99875C19.4932 5.61977 20.8381 9.13398 19.2611 10.8617L17.2278 12.8883C17.0152 11.698 16.5986 10.5534 15.9964 9.50488C15.948 7.48517 16.6583 5.52065 17.9869 3.99875ZM12.6502 9.33544C14.1552 10.9565 15.5 14.4693 13.9231 16.1984L11.8911 18.225C11.6783 17.0348 11.2618 15.8901 10.6597 14.8416C10.6107 12.8218 11.321 10.857 12.6502 9.33544ZM7.31356 14.6721C8.81717 16.2918 10.1633 19.806 8.58769 21.5338L6.76388 23.3509C5.78811 22.0835 5.30581 20.5048 5.40668 18.9085C5.50754 17.3121 6.18602 15.8067 7.31356 14.6721ZM12.6609 26.6797C11.211 26.6075 9.81538 26.1054 8.65173 25.2375L10.4729 23.4163C12.2073 21.8367 15.7148 23.1922 17.3385 24.6678C16.0306 25.8151 14.3933 26.5193 12.6609 26.6797ZM17.9976 21.343C17.8188 21.343 17.2598 21.3283 17.1558 21.343C16.1089 20.7417 14.966 20.3256 13.7776 20.1129L15.8109 18.081C17.5373 16.5013 21.0515 17.8581 22.6752 19.3324C21.3671 20.4792 19.7299 21.183 17.9976 21.343ZM23.3343 16.0063C23.1555 16.0063 22.5965 15.993 22.4938 16.0063C21.4465 15.4046 20.3032 14.988 19.1143 14.7749L21.1476 12.7429C22.874 11.1646 26.3882 12.5201 28.0119 13.9944C26.704 15.1417 25.0667 15.8459 23.3343 16.0063Z" fill="#F7A431"/>
</svg>
