<svg width="32" height="32" viewBox="0 0 32 32" fill="none" xmlns="http://www.w3.org/2000/svg">
<path d="M23.3333 32C22.1238 32.0322 20.9237 31.7788 19.8305 31.2604C18.7373 30.7419 17.7817 29.973 17.0413 29.016C16.4659 28.2326 15.7024 27.6067 14.8214 27.1961C13.9403 26.7855 12.97 26.6034 12 26.6667C5.608 26.6667 0 20.436 0 13.3333C0.00388213 9.79831 1.40989 6.40917 3.90953 3.90953C6.40917 1.40989 9.79831 0.00388213 13.3333 0C26.3627 0 32 15.4507 32 23.3333C31.9972 25.631 31.0832 27.8338 29.4585 29.4585C27.8338 31.0832 25.631 31.9972 23.3333 32ZM13.3333 2.66667C-0.624001 3.172 -0.506667 22.8067 12 24C13.3356 23.9387 14.6665 24.197 15.8822 24.7536C17.0978 25.3102 18.1631 26.1489 18.9893 27.2C22.104 31.5347 29.4667 28.764 29.3333 23.3333C29.3333 17.2507 24.7293 2.66667 13.3333 2.66667ZM8.94267 18.276L18.276 8.94267C18.5189 8.6912 18.6533 8.35439 18.6502 8.0048C18.6472 7.6552 18.507 7.32079 18.2598 7.07358C18.0125 6.82636 17.6781 6.68614 17.3285 6.6831C16.9789 6.68006 16.6421 6.81446 16.3907 7.05733L7.05733 16.3907C6.81446 16.6421 6.68006 16.9789 6.6831 17.3285C6.68614 17.6781 6.82636 18.0125 7.07358 18.2598C7.32079 18.507 7.6552 18.6472 8.0048 18.6502C8.35439 18.6533 8.6912 18.5189 8.94267 18.276ZM14.276 20.9427L22.276 12.9427C22.5189 12.6912 22.6533 12.3544 22.6502 12.0048C22.6472 11.6552 22.507 11.3208 22.2598 11.0736C22.0125 10.8264 21.6781 10.6861 21.3285 10.6831C20.9789 10.6801 20.6421 10.8145 20.3907 11.0573L12.3907 19.0573C12.1478 19.3088 12.0134 19.6456 12.0164 19.9952C12.0195 20.3448 12.1597 20.6792 12.4069 20.9264C12.6541 21.1736 12.9885 21.3139 13.3381 21.3169C13.6877 21.3199 14.0245 21.1855 14.276 20.9427ZM19.6093 23.6093L24.9427 18.276C25.1855 18.0245 25.3199 17.6877 25.3169 17.3381C25.3139 16.9885 25.1736 16.6541 24.9264 16.4069C24.6792 16.1597 24.3448 16.0195 23.9952 16.0164C23.6456 16.0134 23.3088 16.1478 23.0573 16.3907L17.724 21.724C17.4811 21.9755 17.3467 22.3123 17.3498 22.6619C17.3528 23.0115 17.493 23.3459 17.7402 23.5931C17.9875 23.8403 18.3219 23.9805 18.6715 23.9836C19.0211 23.9866 19.3579 23.8522 19.6093 23.6093ZM24.9427 26.276L26.276 24.9427C26.5189 24.6912 26.6533 24.3544 26.6502 24.0048C26.6472 23.6552 26.507 23.3208 26.2598 23.0736C26.0125 22.8264 25.6781 22.6861 25.3285 22.6831C24.9789 22.6801 24.6421 22.8145 24.3907 23.0573L23.0573 24.3907C22.8145 24.6421 22.6801 24.9789 22.6831 25.3285C22.6861 25.6781 22.8264 26.0125 23.0736 26.2598C23.3208 26.507 23.6552 26.6472 24.0048 26.6502C24.3544 26.6533 24.6912 26.5189 24.9427 26.276ZM7.60933 11.6093L11.6093 7.60933C11.8522 7.35786 11.9866 7.02106 11.9836 6.67146C11.9805 6.32187 11.8403 5.98745 11.5931 5.74024C11.3459 5.49303 11.0115 5.35281 10.6619 5.34977C10.3123 5.34673 9.97547 5.48112 9.724 5.724L5.724 9.724C5.48112 9.97547 5.34673 10.3123 5.34977 10.6619C5.35281 11.0115 5.49303 11.3459 5.74024 11.5931C5.98745 11.8403 6.32187 11.9805 6.67146 11.9836C7.02106 11.9866 7.35786 11.8522 7.60933 11.6093Z" fill="#40850B"/>
</svg>
