<svg width="29" height="28" viewBox="0 0 29 28" fill="none" xmlns="http://www.w3.org/2000/svg">
<path d="M27.3333 14.0017C26.6882 14.0017 26.1667 14.5232 26.1667 15.1684V18.6684H19.0663L12.1667 11.7687V2.33502H13.3333C13.9773 2.33502 14.5 1.81352 14.5 1.16835C14.5 0.523186 13.9773 0.00168547 13.3333 0.00168547H6.33333C3.11683 0.00168547 0.5 2.61852 0.5 5.83502V22.1684C0.5 25.3849 3.11683 28.0017 6.33333 28.0017H22.6667C25.8832 28.0017 28.5 25.3849 28.5 22.1684V15.1684C28.5 14.5232 27.9785 14.0017 27.3333 14.0017ZM6.33333 2.33502H9.83333V11.5517L2.83333 15.2839V5.83502C2.83333 3.90535 4.40367 2.33502 6.33333 2.33502ZM2.83333 22.1684V17.9299L10.7865 13.6879L17.0422 19.9435L12.75 25.6672H6.33333C4.40367 25.6672 2.83333 24.098 2.83333 22.1684ZM22.6667 25.6684H15.6667L19.1667 21.0017H26.1667V22.1684C26.1667 24.098 24.5963 25.6684 22.6667 25.6684ZM19.6928 13.0555C20.3508 13.7007 21.2177 14.0227 22.0833 14.0215C22.949 14.0215 23.8147 13.7007 24.4738 13.0555L26.6205 10.9544C27.8327 9.74335 28.5 8.13218 28.5 6.41719C28.5 4.70219 27.8327 3.09102 26.6205 1.88002C25.4083 0.667852 23.7972 0.000518799 22.0833 0.000518799C20.3695 0.000518799 18.7572 0.667852 17.5462 1.88002C16.334 3.09102 15.6667 4.70219 15.6667 6.41719C15.6667 8.13218 16.334 9.74335 17.5555 10.9625L19.6928 13.0544V13.0555ZM19.1958 3.53085C19.967 2.75969 20.9913 2.33502 22.0833 2.33502C23.1753 2.33502 24.1985 2.75969 24.9708 3.53085C25.7432 4.30202 26.1667 5.32752 26.1667 6.41835C26.1667 7.50919 25.742 8.53352 24.979 9.29652L22.8417 11.3884C22.4228 11.7967 21.7438 11.799 21.3238 11.3884L19.1958 9.30585C18.4247 8.53469 18 7.50919 18 6.41835C18 5.32752 18.4247 4.30319 19.1958 3.53085ZM20.3322 6.41135C20.3322 5.44535 21.1162 4.66135 22.0822 4.66135C23.0482 4.66135 23.8322 5.44535 23.8322 6.41135C23.8322 7.37735 23.0482 8.16135 22.0822 8.16135C21.1162 8.16135 20.3322 7.37735 20.3322 6.41135Z" fill="#F2790F"/>
</svg>
