<svg width="28" height="28" viewBox="0 0 28 28" fill="none" xmlns="http://www.w3.org/2000/svg">
<g clip-path="url(#clip0_2_4646)">
<path d="M9.33333 14.0016C13.1938 14.0016 16.3333 10.8621 16.3333 7.00159C16.3333 3.14109 13.1938 0.00158691 9.33333 0.00158691C5.47283 0.00158691 2.33333 3.14109 2.33333 7.00159C2.33333 10.8621 5.47283 14.0016 9.33333 14.0016ZM9.33333 2.33492C11.907 2.33492 14 4.42792 14 7.00159C14 9.57525 11.907 11.6683 9.33333 11.6683C6.75967 11.6683 4.66667 9.57525 4.66667 7.00159C4.66667 4.42792 6.75967 2.33492 9.33333 2.33492ZM11.6667 17.5016C11.6667 18.1456 11.144 18.6683 10.5 18.6683C5.99667 18.6683 2.33333 22.3316 2.33333 26.8349C2.33333 27.4789 1.81067 28.0016 1.16667 28.0016C0.522667 28.0016 0 27.4789 0 26.8349C0 21.0459 4.711 16.3349 10.5 16.3349C11.144 16.3349 11.6667 16.8576 11.6667 17.5016ZM27.5847 20.7123L24.8243 22.9604L25.9665 26.4371C26.1228 26.9073 25.9642 27.4253 25.571 27.7274C25.1778 28.0296 24.6365 28.0506 24.2223 27.7811L21.0093 25.6893L17.85 27.8033C17.654 27.9351 17.4277 28.0004 17.2013 28.0004C16.9552 28.0004 16.709 27.9223 16.5013 27.7671C16.1047 27.4708 15.9402 26.9551 16.0883 26.4826L17.1862 22.9639L14.413 20.7076C14.0397 20.3914 13.9032 19.8758 14.0723 19.4161C14.2415 18.9564 14.6778 18.6519 15.1667 18.6519H18.6678L19.9068 15.1753C20.0772 14.7191 20.5135 14.4158 21 14.4158C21.4865 14.4158 21.924 14.7191 22.0932 15.1753L23.3322 18.6519H26.8333C27.3233 18.6519 27.7608 18.9588 27.9288 19.4184C28.0968 19.8781 27.9592 20.3949 27.5847 20.7111V20.7123Z" fill="#384B75"/>
</g>
<defs>
<clipPath id="clip0_2_4646">
<rect width="28" height="28" fill="white" transform="translate(0 0.00158691)"/>
</clipPath>
</defs>
</svg>
