<svg width="8" height="8" viewBox="0 0 8 8" fill="none" xmlns="http://www.w3.org/2000/svg">
<g clip-path="url(#clip0_2_421)">
<path d="M0.500076 2.02637C0.63264 2.02648 0.759731 2.07924 0.853409 2.17303L3.41074 4.73037C3.48813 4.80777 3.58 4.86918 3.68112 4.91107C3.78224 4.95296 3.89062 4.97452 4.00008 4.97452C4.10953 4.97452 4.21791 4.95296 4.31903 4.91107C4.42015 4.86918 4.51202 4.80777 4.58941 4.73037L7.14508 2.17637C7.23938 2.08529 7.36568 2.03489 7.49678 2.03603C7.62787 2.03717 7.75328 2.08975 7.84599 2.18246C7.93869 2.27516 7.99127 2.40057 7.99241 2.53167C7.99355 2.66277 7.94315 2.78907 7.85208 2.88337L5.29841 5.43737C4.95432 5.78078 4.48804 5.97365 4.00191 5.97365C3.51577 5.97365 3.0495 5.78078 2.70541 5.43737L0.148076 2.88003C0.0782041 2.81021 0.0305805 2.72125 0.0112157 2.62438C-0.00814917 2.52752 0.00161217 2.42709 0.0392685 2.33576C0.0769243 2.24444 0.140788 2.16632 0.222799 2.11125C0.304811 2.05619 0.401294 2.02665 0.500076 2.02637Z" fill="#808080"/>
</g>
<defs>
<clipPath id="clip0_2_421">
<rect width="8" height="8" fill="white" transform="translate(8) rotate(90)"/>
</clipPath>
</defs>
</svg>
