<svg width="14" height="14" viewBox="0 0 14 14" fill="none" xmlns="http://www.w3.org/2000/svg">
<path d="M10.4541 0.879303C10.4539 1.11129 10.3616 1.3337 10.1975 1.49764L5.72213 5.97297C5.58667 6.10839 5.47922 6.26918 5.4059 6.44614C5.33259 6.62309 5.29486 6.81276 5.29486 7.0043C5.29486 7.19585 5.33259 7.38551 5.4059 7.56247C5.47922 7.73943 5.58667 7.90021 5.72213 8.03564L10.1916 12.5051C10.351 12.6702 10.4392 12.8912 10.4372 13.1206C10.4352 13.35 10.3432 13.5695 10.181 13.7317C10.0187 13.894 9.79928 13.986 9.56986 13.988C9.34043 13.99 9.11941 13.9018 8.95438 13.7424L4.48488 9.27639C3.88391 8.67423 3.54639 7.85825 3.54639 7.00751C3.54639 6.15677 3.88391 5.34079 4.48488 4.73864L8.96021 0.260387C9.08259 0.137936 9.23853 0.0545361 9.40832 0.0207412C9.5781 -0.0130537 9.7541 0.00427491 9.91403 0.0705343C10.074 0.136794 10.2107 0.249006 10.3068 0.392972C10.4029 0.536938 10.4542 0.706187 10.4541 0.879303Z" fill="#949494"/>
</svg>
