<svg width="14" height="14" viewBox="0 0 14 14" fill="none" xmlns="http://www.w3.org/2000/svg">
<path d="M3.54587 0.879303C3.54607 1.11129 3.63839 1.3337 3.80254 1.49764L8.27787 5.97297C8.41333 6.10839 8.52078 6.26918 8.5941 6.44614C8.66741 6.62309 8.70514 6.81276 8.70514 7.0043C8.70514 7.19585 8.66741 7.38551 8.5941 7.56247C8.52078 7.73943 8.41333 7.90021 8.27787 8.03564L3.80837 12.5051C3.64898 12.6702 3.56079 12.8912 3.56278 13.1206C3.56477 13.35 3.6568 13.5695 3.81903 13.7317C3.98126 13.894 4.20072 13.986 4.43014 13.988C4.65957 13.99 4.88059 13.9018 5.04562 13.7424L9.51512 9.27639C10.1161 8.67423 10.4536 7.85825 10.4536 7.00751C10.4536 6.15677 10.1161 5.34079 9.51512 4.73864L5.03979 0.260387C4.91741 0.137936 4.76147 0.0545361 4.59168 0.0207412C4.4219 -0.0130537 4.2459 0.00427491 4.08597 0.0705343C3.92603 0.136794 3.78935 0.249006 3.69321 0.392972C3.59707 0.536938 3.54579 0.706187 3.54587 0.879303Z" fill="#949494"/>
</svg>
