<svg width="12" height="12" viewBox="0 0 12 12" fill="none" xmlns="http://www.w3.org/2000/svg">
<path d="M0.44 7.04495L2.375 8.99995C2.42148 9.04681 2.47678 9.08401 2.53771 9.1094C2.59864 9.13478 2.66399 9.14785 2.73 9.14785C2.79601 9.14785 2.86136 9.13478 2.92229 9.1094C2.98322 9.08401 3.03852 9.04681 3.085 8.99995C3.13186 8.95347 3.16906 8.89817 3.19445 8.83724C3.21983 8.77631 3.2329 8.71096 3.2329 8.64495C3.2329 8.57895 3.21983 8.51359 3.19445 8.45266C3.16906 8.39173 3.13186 8.33643 3.085 8.28995L1.305 6.49995H11.5C11.6326 6.49995 11.7598 6.44727 11.8536 6.3535C11.9473 6.25974 12 6.13256 12 5.99995C12 5.86734 11.9473 5.74017 11.8536 5.6464C11.7598 5.55263 11.6326 5.49995 11.5 5.49995H1.275L3.085 3.68995C3.17364 3.59696 3.2231 3.47342 3.2231 3.34495C3.2231 3.21648 3.17364 3.09294 3.085 2.99995C3.03852 2.95309 2.98322 2.91589 2.92229 2.8905C2.86136 2.86512 2.79601 2.85205 2.73 2.85205C2.66399 2.85205 2.59864 2.86512 2.53771 2.8905C2.47678 2.91589 2.42148 2.95309 2.375 2.99995L0.44 4.92495C0.159099 5.2062 0.00131989 5.58745 0.00131989 5.98495C0.00131989 6.38245 0.159099 6.7637 0.44 7.04495Z" fill="black"/>
</svg>
