<svg width="17" height="16" viewBox="0 0 17 16" fill="none" xmlns="http://www.w3.org/2000/svg">
<path d="M9.64176 0C11.0058 0 12.1917 0.266667 13.1994 0.8C14.207 1.33333 14.9812 2.08254 15.5219 3.04762C16.0627 4 16.333 5.10476 16.333 6.36191C16.333 7.36508 16.1733 8.33016 15.8537 9.25714C15.5342 10.1714 15.0673 10.9143 14.4528 11.4857C13.8507 12.0571 13.1441 12.3429 12.333 12.3429C11.7186 12.3429 11.2455 12.1841 10.9137 11.8667C10.5819 11.5492 10.3914 11.1175 10.3422 10.5714C9.96127 11.1175 9.47587 11.5492 8.886 11.8667C8.30843 12.1841 7.69399 12.3429 7.04269 12.3429C6.10874 12.3429 5.37141 12.0508 4.8307 11.4667C4.30229 10.8698 4.03808 10.0698 4.03808 9.06667C4.03808 8.11429 4.22855 7.2254 4.60951 6.4C5.00275 5.5746 5.54345 4.91429 6.23163 4.41905C6.9198 3.91111 7.70014 3.65714 8.57264 3.65714C9.74007 3.65714 10.5266 4.11429 10.9321 5.02857L11.1349 3.84762H12.5911L11.6694 9.35238C11.6325 9.59365 11.6141 9.81587 11.6141 10.019C11.6141 10.781 11.9398 11.1619 12.5911 11.1619C13.0826 11.1619 13.5066 10.9206 13.863 10.4381C14.2316 9.95555 14.5081 9.35238 14.6925 8.62857C14.8768 7.89206 14.969 7.16825 14.969 6.45714C14.969 4.79365 14.4835 3.50476 13.5127 2.59048C12.5542 1.67619 11.1963 1.21905 9.439 1.21905C7.97663 1.21905 6.65559 1.5873 5.47586 2.32381C4.30843 3.04762 3.39292 4.04444 2.72932 5.31429C2.06573 6.58413 1.73393 7.9873 1.73393 9.52381C1.72164 11.2 2.20705 12.4889 3.19015 13.3905C4.17325 14.3048 5.53731 14.7619 7.28232 14.7619C8.43746 14.7619 9.45743 14.546 10.3422 14.1143L10.5634 15.2952C9.46972 15.7651 8.26542 16 6.95052 16C5.63562 16 4.47433 15.7397 3.46665 15.219C2.47126 14.7111 1.69706 13.9746 1.14407 13.0095C0.603361 12.0571 0.333008 10.946 0.333008 9.67619C0.333008 7.88571 0.732393 6.25397 1.53116 4.78095C2.32994 3.29524 3.43593 2.12698 4.84914 1.27619C6.27464 0.425397 7.87218 0 9.64176 0ZM7.54038 10.9905C8.09338 10.9905 8.60336 10.8254 9.07034 10.4952C9.53731 10.1524 9.90597 9.69524 10.1763 9.12381C10.4467 8.53968 10.5819 7.90476 10.5819 7.21905C10.5819 6.55873 10.4037 6.0254 10.0473 5.61905C9.70321 5.2 9.21166 4.99048 8.57264 4.99048C7.98278 4.99048 7.4605 5.1746 7.00582 5.54286C6.56342 5.89841 6.21934 6.3746 5.97356 6.97143C5.72779 7.55556 5.6049 8.16508 5.6049 8.8C5.6049 9.47302 5.7708 10.0063 6.10259 10.4C6.43439 10.7937 6.91365 10.9905 7.54038 10.9905Z" fill="black"/>
</svg>
