<svg width="10" height="9" viewBox="0 0 10 9" fill="none" xmlns="http://www.w3.org/2000/svg">
<path d="M9.58333 7.91686V7.08352C9.58182 5.94074 9.15383 4.83967 8.38316 3.99587C7.61249 3.15206 6.55463 2.62627 5.41667 2.52144V1.96811C5.57553 1.87638 5.6997 1.7348 5.7699 1.56532C5.8401 1.39584 5.85242 1.20793 5.80494 1.03074C5.75746 0.853542 5.65284 0.696966 5.5073 0.585291C5.36176 0.473617 5.18344 0.413086 5 0.413086C4.81655 0.413086 4.63824 0.473617 4.4927 0.585291C4.34716 0.696966 4.24254 0.853542 4.19506 1.03074C4.14758 1.20793 4.1599 1.39584 4.2301 1.56532C4.3003 1.7348 4.42447 1.87638 4.58333 1.96811V2.52144C3.44537 2.62627 2.38751 3.15206 1.61684 3.99587C0.846165 4.83967 0.41818 5.94074 0.416667 7.08352V7.91686H0V8.75019H10V7.91686H9.58333ZM1.25 7.08352C1.44708 2.11102 8.55458 2.11477 8.75 7.08352V7.91686H1.25V7.08352Z" fill="white"/>
</svg>
