<svg width="18" height="18" viewBox="0 0 18 18" fill="none" xmlns="http://www.w3.org/2000/svg">
<path d="M15.75 12.75H15V3C15 1.3455 13.6545 0 12 0H2.625C1.1775 0 0 1.1775 0 2.625V3C0 4.2405 1.0095 5.25 2.25 5.25H3.75V15.375C3.75 16.8218 4.92675 17.9993 6.37425 18H15.375C16.8225 18 18 16.8225 18 15.375V15C18 13.7595 16.9905 12.75 15.75 12.75ZM3.75 3.75H2.25C1.83675 3.75 1.5 3.41325 1.5 3V2.625C1.5 2.00475 2.00475 1.5 2.625 1.5C3.24525 1.5 3.75 2.00475 3.75 2.625V3.75ZM7.5 15V15.375C7.5 15.9952 6.99525 16.5 6.375 16.5C5.75475 16.5 5.25 15.9952 5.25 15.375V2.625C5.25 2.22075 5.15025 1.842 4.98675 1.5H12C12.8273 1.5 13.5 2.17275 13.5 3V12.75H9.75C8.5095 12.75 7.5 13.7595 7.5 15ZM16.5 15.375C16.5 15.9952 15.9952 16.5 15.375 16.5H8.7465C8.9085 16.1588 9 15.7778 9 15.375V15C9 14.5868 9.33675 14.25 9.75 14.25H15.75C16.1632 14.25 16.5 14.5868 16.5 15V15.375Z" fill="#808080"/>
</svg>
