<svg width="15" height="14" viewBox="0 0 15 14" fill="none" xmlns="http://www.w3.org/2000/svg">
<path d="M12.9815 4.54713C13.7362 3.79241 14.0777 2.40728 14.2318 1.37939C14.2586 1.19364 14.2417 1.00421 14.1824 0.826137C14.1232 0.648062 14.0233 0.486249 13.8906 0.35355C13.7579 0.22085 13.5961 0.120918 13.418 0.0616913C13.2399 0.00246429 13.0505 -0.0144268 12.8648 0.0123595C11.7067 0.205564 10.1214 0.544695 9.44135 1.59536C8.17647 -0.608115 6.62324 1.23113 6.17788 3.00558C4.82719 2.62909 4.23357 4.18349 3.84307 5.34038C2.40834 4.85591 1.46041 7.17203 1.40554 8.46201C1.44351 9.40556 1.7806 10.3126 2.36806 11.0519L0.407992 13.0108C0.301667 13.1209 0.242833 13.2683 0.244163 13.4214C0.245493 13.5744 0.30688 13.7208 0.415103 13.829C0.523326 13.9373 0.669725 13.9986 0.82277 14C0.975814 14.0013 1.12326 13.9425 1.23335 13.8361L3.19225 11.8772C3.93195 12.4648 4.83937 12.8019 5.78329 12.8398C7.04876 12.7937 9.43201 11.8101 8.91835 10.3993C10.042 10.0176 11.667 9.38484 11.2532 8.06451C13.0329 7.60105 14.8785 6.07059 12.647 4.80221C12.7682 4.73062 12.8804 4.645 12.9815 4.54713ZM10.5218 2.08742C11.2667 1.5438 12.1579 1.2369 13.0796 1.20661C12.7025 3.39958 12.3272 4.2798 10.178 4.06675C10.1231 3.33187 10.1908 2.41896 10.5218 2.08742ZM8.11343 1.74945C8.77243 2.45865 9.3608 3.99612 8.67086 4.75201L7.7813 5.63865C7.68831 5.11788 7.50605 4.6171 7.24255 4.15839C7.22141 3.27476 7.53213 2.41528 8.11343 1.74945ZM5.77862 4.08426C6.43704 4.79345 7.02541 6.33034 6.33548 7.08681L5.4465 7.97346C5.35342 7.45271 5.17116 6.95194 4.90774 6.49319C4.88632 5.60952 5.19707 4.74994 5.77862 4.08426ZM3.44382 6.41906C4.10165 7.12767 4.69061 8.66514 4.00126 9.42103L3.20334 10.216C2.77644 9.66153 2.56543 8.97086 2.60956 8.27245C2.65369 7.57404 2.95053 6.91543 3.44382 6.41906ZM5.78329 11.6724C5.14896 11.6408 4.53837 11.4211 4.02927 11.0414L4.82603 10.2446C5.58484 9.55353 7.11939 10.1466 7.82975 10.7921C7.25753 11.2941 6.54122 11.6022 5.78329 11.6724ZM8.1181 9.33756C8.03988 9.33756 7.79531 9.33114 7.74978 9.33756C7.29176 9.0745 6.79178 8.89244 6.27185 8.79939L7.16141 7.91042C7.91672 7.21931 9.45419 7.81294 10.1646 8.45793C9.59226 8.95965 8.87595 9.26754 8.1181 9.33756ZM10.4529 7.00276C10.3747 7.00276 10.1301 6.99692 10.0852 7.00276C9.62697 6.7395 9.1268 6.55725 8.60666 6.464L9.49622 5.57503C10.2515 4.88451 11.789 5.47755 12.4994 6.12254C11.9271 6.62448 11.2108 6.93258 10.4529 7.00276Z" fill="#F2790F"/>
</svg>
