<svg width="17" height="16" viewBox="0 0 17 16" fill="none" xmlns="http://www.w3.org/2000/svg">
<g clip-path="url(#clip0_1_27)">
<path d="M4.00032 11.333C4.55261 11.333 5.00032 10.8853 5.00032 10.333C5.00032 9.78072 4.55261 9.33301 4.00032 9.33301C3.44804 9.33301 3.00032 9.78072 3.00032 10.333C3.00032 10.8853 3.44804 11.333 4.00032 11.333Z" fill="black"/>
<path d="M12.9999 2H3.66662C2.78289 2.00106 1.93565 2.35259 1.31076 2.97748C0.68587 3.60237 0.334341 4.4496 0.333282 5.33333L0.333282 10.6667C0.334341 11.5504 0.68587 12.3976 1.31076 13.0225C1.93565 13.6474 2.78289 13.9989 3.66662 14H12.9999C13.8837 13.9989 14.7309 13.6474 15.3558 13.0225C15.9807 12.3976 16.3322 11.5504 16.3333 10.6667V5.33333C16.3322 4.4496 15.9807 3.60237 15.3558 2.97748C14.7309 2.35259 13.8837 2.00106 12.9999 2ZM3.66662 3.33333H12.9999C13.5304 3.33333 14.0391 3.54405 14.4142 3.91912C14.7892 4.29419 14.9999 4.8029 14.9999 5.33333H1.66662C1.66662 4.8029 1.87733 4.29419 2.2524 3.91912C2.62748 3.54405 3.13618 3.33333 3.66662 3.33333ZM12.9999 12.6667H3.66662C3.13618 12.6667 2.62748 12.456 2.2524 12.0809C1.87733 11.7058 1.66662 11.1971 1.66662 10.6667V6.66667H14.9999V10.6667C14.9999 11.1971 14.7892 11.7058 14.4142 12.0809C14.0391 12.456 13.5304 12.6667 12.9999 12.6667Z" fill="black"/>
</g>
<defs>
<clipPath id="clip0_1_27">
<rect width="16" height="16" fill="white" transform="translate(0.333328)"/>
</clipPath>
</defs>
</svg>
