<svg width="46" height="47" viewBox="0 0 46 47" fill="none" xmlns="http://www.w3.org/2000/svg">
<g clip-path="url(#clip0_1_38)">
<path d="M15.1084 33.6581C16.3531 33.3246 17.0918 32.0452 16.7583 30.8004C16.4248 29.5556 15.1453 28.817 13.9006 29.1505C12.6558 29.484 11.9171 30.7635 12.2506 32.0082C12.5842 33.253 13.8636 33.9917 15.1084 33.6581Z" fill="#F2790F"/>
<path d="M29.7563 7.18719L8.72061 12.8237C6.72948 13.3598 5.03226 14.6637 4.00124 16.4495C2.97022 18.2353 2.68958 20.3571 3.22089 22.3495L6.44175 34.3699C6.97783 36.361 8.28177 38.0583 10.0675 39.0893C11.8533 40.1203 13.9751 40.4009 15.9675 39.8696L37.0033 34.2331C38.9944 33.697 40.6916 32.3931 41.7226 30.6073C42.7537 28.8215 43.0343 26.6997 42.503 24.7073L39.2821 12.6869C38.746 10.6958 37.4421 8.99855 35.6563 7.96753C33.8705 6.93652 31.7487 6.65588 29.7563 7.18719ZM9.52583 15.8288L30.5615 10.1923C31.757 9.87196 33.0308 10.0397 34.1027 10.6585C35.1746 11.2773 35.9567 12.2966 36.277 13.4921L6.22599 21.5443C5.90566 20.3488 6.07336 19.075 6.6922 18.0031C7.31103 16.9313 8.33032 16.1491 9.52583 15.8288ZM36.198 31.228L15.1623 36.8645C13.9668 37.1848 12.693 37.0172 11.6212 36.3983C10.5493 35.7795 9.76719 34.7602 9.44685 33.5647L7.03121 24.5494L37.0822 16.4972L39.4979 25.5125C39.8182 26.708 39.6505 27.9818 39.0317 29.0537C38.4128 30.1256 37.3935 30.9077 36.198 31.228Z" fill="#F2790F"/>
</g>
<defs>
<clipPath id="clip0_1_38">
<rect width="37.3333" height="37.3333" fill="white" transform="translate(0 10.3291) rotate(-15)"/>
</clipPath>
</defs>
</svg>
