<svg width="17" height="16" viewBox="0 0 17 16" fill="none" xmlns="http://www.w3.org/2000/svg">
<g clip-path="url(#clip0_1_34)">
<path d="M13 2.33301H3.66666C1.82866 2.33301 0.333328 3.82834 0.333328 5.66634V10.9997C0.333328 12.8377 1.82866 14.333 3.66666 14.333H5.66666C6.03466 14.333 6.33333 14.035 6.33333 13.6663C6.33333 13.2977 6.03466 12.9997 5.66666 12.9997H3.66666C2.56399 12.9997 1.66666 12.1023 1.66666 10.9997V6.99967H15V8.33301C15 8.70167 15.2987 8.99967 15.6667 8.99967C16.0347 8.99967 16.3333 8.70167 16.3333 8.33301V5.66634C16.3333 3.82834 14.838 2.33301 13 2.33301ZM1.66666 5.66634C1.66666 4.56367 2.56399 3.66634 3.66666 3.66634H13C14.1027 3.66634 15 4.56367 15 5.66634H1.66666ZM8.50066 11.667V12.999C8.50066 13.2983 8.73933 13.4997 9 13.4997C9.192 13.4963 9.36266 13.3843 9.446 13.2257C9.51666 13.091 9.65933 13.0097 9.81133 13.0097C10.126 13.0097 10.3287 13.3457 10.18 13.623C9.95666 14.0423 9.51133 14.329 9 14.3323C8.26066 14.333 7.66666 13.7397 7.66666 13.0097V11.6563C7.66666 10.927 8.26066 10.333 9 10.333C9.512 10.337 9.95666 10.6237 10.18 11.043C10.328 11.321 10.126 11.6563 9.81133 11.6563C9.65933 11.6563 9.51666 11.575 9.446 11.4403C9.36266 11.2817 9.192 11.1697 9 11.1663C8.73933 11.1663 8.50066 11.3677 8.50066 11.667ZM16.24 10.8203L15.594 13.917C15.5433 14.1597 15.3293 14.3337 15.082 14.3337C14.842 14.3337 14.6333 14.1703 14.5747 13.9383L13.794 10.837C13.73 10.5817 13.9227 10.3337 14.186 10.3337C14.3713 10.3337 14.5333 10.4597 14.578 10.6397L15.0513 12.5217L15.44 10.6557C15.4793 10.4683 15.6447 10.3337 15.836 10.3337H15.844C16.1007 10.3337 16.2927 10.5697 16.24 10.821V10.8203ZM13.24 10.8203L12.594 13.917C12.5433 14.1597 12.3293 14.3337 12.082 14.3337C11.842 14.3337 11.6333 14.1703 11.5747 13.9383L10.794 10.837C10.73 10.5817 10.9227 10.3337 11.186 10.3337C11.3713 10.3337 11.5333 10.4597 11.578 10.6397L12.0513 12.5217L12.44 10.6557C12.4793 10.4683 12.6447 10.3337 12.836 10.3337H12.844C13.1007 10.3337 13.2927 10.5697 13.24 10.821V10.8203Z" fill="black"/>
</g>
<defs>
<clipPath id="clip0_1_34">
<rect width="16" height="16" fill="white" transform="translate(0.333328)"/>
</clipPath>
</defs>
</svg>
