<svg width="17" height="16" viewBox="0 0 17 16" fill="none" xmlns="http://www.w3.org/2000/svg">
<g clip-path="url(#clip0_1_21)">
<path d="M11.6686 6.35966C9.09595 6.35966 7.00195 8.45299 7.00195 11.0263C7.00195 13.585 9.09595 15.667 11.6686 15.667C14.2413 15.667 16.3353 13.5737 16.3353 11.0003C16.3353 8.44166 14.2413 6.35966 11.6686 6.35966ZM11.6686 14.3337C9.83062 14.3337 8.33528 12.8497 8.33528 11.0263C8.33528 9.18833 9.83062 7.69299 11.6686 7.69299C13.5066 7.69299 15.0019 9.17699 15.0019 11.0003C15.0019 12.8383 13.5066 14.3337 11.6686 14.3337ZM12.8066 11.1957C13.0673 11.4563 13.0673 11.8777 12.8066 12.1383C12.6766 12.2683 12.5059 12.3337 12.3353 12.3337C12.1646 12.3337 11.9939 12.2683 11.8639 12.1383L11.1973 11.4717C11.0719 11.3463 11.0019 11.177 11.0019 11.0003V9.66699C11.0019 9.29899 11.2999 9.00033 11.6686 9.00033C12.0373 9.00033 12.3353 9.29899 12.3353 9.66699V10.7243L12.8066 11.1957ZM16.3353 4.33366V5.66699C16.3353 6.03499 16.0373 6.33366 15.6686 6.33366C15.2999 6.33366 15.0019 6.03499 15.0019 5.66699V4.33366C15.0019 3.23099 14.1046 2.33366 13.0019 2.33366H3.66861C2.56595 2.33366 1.66861 3.23099 1.66861 4.33366V5.00033H7.66861C8.03661 5.00033 8.33528 5.29899 8.33528 5.66699C8.33528 6.03499 8.03661 6.33366 7.66861 6.33366H1.66861V12.3337C1.66861 13.4363 2.56595 14.3337 3.66861 14.3337H6.33528C6.70328 14.3337 7.00195 14.6323 7.00195 15.0003C7.00195 15.3683 6.70328 15.667 6.33528 15.667H3.66861C1.83061 15.667 0.335281 14.1717 0.335281 12.3337V4.33366C0.335281 2.49566 1.83061 1.00033 3.66861 1.00033H4.33528V0.333659C4.33528 -0.0343411 4.63395 -0.333008 5.00195 -0.333008C5.36995 -0.333008 5.66861 -0.0343411 5.66861 0.333659V1.00033H11.0019V0.333659C11.0019 -0.0343411 11.2999 -0.333008 11.6686 -0.333008C12.0373 -0.333008 12.3353 -0.0343411 12.3353 0.333659V1.00033H13.0019C14.8399 1.00033 16.3353 2.49566 16.3353 4.33366Z" fill="black"/>
</g>
<defs>
<clipPath id="clip0_1_21">
<rect width="16" height="16" fill="white" transform="translate(0.333328)"/>
</clipPath>
</defs>
</svg>
