<svg width="38" height="33" viewBox="0 0 38 33" fill="none" xmlns="http://www.w3.org/2000/svg">
<path d="M37.1598 28.8218C37.0233 27.8663 36.1308 27.2048 35.1806 27.3378L31.9168 27.805L31.2921 23.2707C34.7308 22.03 37.1196 18.677 37.0618 14.834L36.6191 3.144C36.5998 2.63475 36.3583 2.15875 35.9593 1.84025C35.6618 1.604 32.8461 -0.46275 26.3746 0.463C22.5998 1.002 20.3003 2.18325 19.0001 3.12825C17.6998 2.18325 15.4003 1.002 11.6256 0.463C5.15406 -0.468 2.34006 1.6005 2.04081 1.84025C1.64181 2.15875 1.40031 2.63475 1.38106 3.144L0.938311 14.8725C0.880561 18.6822 3.26931 22.0317 6.70806 23.2707L6.08331 27.805L2.81956 27.3378C1.87106 27.1978 0.975061 27.8645 0.840311 28.8218C0.703811 29.779 1.36706 30.6645 2.32431 30.801C2.32431 30.801 12.2206 32.25 12.5846 32.25C13.4403 32.25 14.1893 31.62 14.3136 30.7485C14.4501 29.7913 13.7868 28.9058 12.8296 28.7692L9.54831 28.3003L10.1713 23.7695C13.8516 23.5612 16.9998 21.036 18.0008 17.249L18.9983 13.049L20.0063 17.291C20.9986 21.0412 24.1451 23.5613 27.8253 23.7677L28.4483 28.2985L25.1671 28.7675C24.2098 28.904 23.5466 29.7895 23.6831 30.7468C23.8073 31.62 24.5563 32.2483 25.4121 32.2483C25.7096 32.2483 35.6723 30.7992 35.6723 30.7992C36.6296 30.6627 37.2928 29.7773 37.1563 28.82L37.1598 28.8218ZM26.8698 3.92625C30.2298 3.44675 32.2336 3.93325 33.1593 4.285L33.3168 8.4395H21.5026L20.9356 6.05425C21.7406 5.43825 23.5308 4.404 26.8698 3.92625ZM11.1303 3.92625C14.4833 4.40575 16.2753 5.447 17.0663 6.049L16.4993 8.43775H4.68331L4.84081 4.2885C5.78406 3.928 7.78606 3.4485 11.1303 3.92625ZM8.90256 20.2275C6.31606 19.8582 4.39806 17.578 4.43656 14.9635L4.55031 11.9395H15.6663L14.6076 16.3967C13.9216 18.9902 11.5153 20.595 8.90256 20.2275ZM23.4031 16.4388L22.3338 11.9395H33.4498L33.5636 14.925C33.6038 17.5798 31.6841 19.8583 29.0993 20.2293C26.4901 20.6003 24.0803 18.992 23.4048 16.4405L23.4031 16.4388Z" fill="#F2790F"/>
</svg>
