<svg width="16" height="16" viewBox="0 0 16 16" fill="none" xmlns="http://www.w3.org/2000/svg">
<g clip-path="url(#clip0_43_5433)">
<path d="M15.8904 3.13666C15.3818 1.06133 12.5237 -0.0360045 10.7731 1.08066C10.0159 0.387316 9.02643 0.00274658 7.99975 0.00274658C6.97306 0.00274658 5.98362 0.387316 5.22642 1.08066C0.939083 -1.10534 -2.39158 5.15333 2.21708 7.142C2.34175 7.17796 2.45208 7.25196 2.53264 7.35368C2.6132 7.45539 2.65997 7.57974 2.66642 7.70933V13C2.66642 13.7956 2.98249 14.5587 3.5451 15.1213C4.10771 15.6839 4.87077 16 5.66642 16H10.3331C10.727 16 11.1172 15.9224 11.4811 15.7716C11.8451 15.6209 12.1758 15.3999 12.4544 15.1213C12.733 14.8427 12.954 14.512 13.1047 14.148C13.2555 13.7841 13.3331 13.394 13.3331 13V7.70933C13.3395 7.57974 13.3863 7.45539 13.4669 7.35368C13.5474 7.25196 13.6577 7.17796 13.7824 7.142C14.5718 6.85996 15.2264 6.29182 15.6168 5.55006C16.0072 4.8083 16.1049 3.94699 15.8904 3.13666ZM11.9998 13C11.9998 13.442 11.8242 13.8659 11.5116 14.1785C11.199 14.4911 10.7751 14.6667 10.3331 14.6667H5.66642C5.41972 14.6614 5.17701 14.6033 4.95468 14.4963C4.73234 14.3893 4.53555 14.2358 4.37758 14.0462C4.21961 13.8567 4.10414 13.6354 4.03896 13.3975C3.97378 13.1595 3.96041 12.9103 3.99975 12.6667H11.9998V13ZM13.3331 5.88533C12.9483 6.0122 12.6128 6.25629 12.3737 6.58338C12.1346 6.91047 12.0039 7.30418 11.9998 7.70933V11.3333H3.99975V7.70933C3.99564 7.30418 3.86487 6.91047 3.62576 6.58338C3.38666 6.25629 3.05121 6.0122 2.66642 5.88533C2.19068 5.71415 1.79652 5.37062 1.56196 4.92273C1.32739 4.47483 1.2695 3.9552 1.39975 3.46666C1.79042 2.06666 3.88575 1.48066 4.85508 2.46666C4.92462 2.53662 5.00873 2.59038 5.10143 2.62411C5.19412 2.65784 5.29312 2.67071 5.39136 2.66179C5.48959 2.65288 5.58465 2.62241 5.66976 2.57255C5.75488 2.52268 5.82794 2.45466 5.88375 2.37333C6.71508 0.986662 9.28042 0.986662 10.1117 2.37333C10.1676 2.45456 10.2407 2.52249 10.3258 2.57228C10.4109 2.62208 10.506 2.65251 10.6042 2.66142C10.7024 2.67033 10.8013 2.6575 10.894 2.62384C10.9867 2.59018 11.0708 2.53651 11.1404 2.46666C11.4032 2.24287 11.7169 2.0869 12.0539 2.0124C12.3909 1.9379 12.7411 1.94715 13.0737 2.03933C13.4975 2.13327 13.8794 2.36193 14.1623 2.69109C14.4452 3.02025 14.6139 3.4322 14.6431 3.86525C14.6723 4.2983 14.5605 4.72916 14.3243 5.09332C14.0881 5.45748 13.7404 5.73535 13.3331 5.88533Z" fill="#303030"/>
</g>
<defs>
<clipPath id="clip0_43_5433">
<rect width="16" height="16" fill="white"/>
</clipPath>
</defs>
</svg>
