<svg width="15" height="14" viewBox="0 0 15 14" fill="none" xmlns="http://www.w3.org/2000/svg">
<g clip-path="url(#clip0_2_404)">
<path d="M9.94482 1.69175C9.48575 1.30268 9.0045 0.893753 8.5145 0.448077C8.1386 0.106226 7.63094 -0.052204 7.12732 0.0152531C6.63929 0.0797296 6.20507 0.357515 5.942 0.773577C5.24664 1.93558 4.755 3.20785 4.48832 4.5355C4.38368 4.3844 4.29084 4.22548 4.21064 4.06008C3.93436 3.47798 3.23852 3.23006 2.65643 3.50634C2.5155 3.57322 2.38941 3.66769 2.28565 3.78415C1.3072 4.784 0.764786 6.13082 0.777145 7.52973C0.749336 10.4701 2.72714 13.0516 5.57332 13.7901C6.10289 13.9233 6.64659 13.9923 7.19265 13.9954C7.21014 13.9954 7.39622 13.9936 7.47147 13.9884C10.954 13.8756 13.7175 11.0176 13.7131 7.53322C13.7108 4.89075 11.9655 3.40908 9.94482 1.69175ZM7.17807 12.8246C6.74393 12.7916 6.31491 12.6158 5.991 12.3545C5.48377 11.9956 5.14813 11.4692 5.06817 10.8629C4.969 9.91673 5.55235 8.67947 6.7441 7.28183C6.86906 7.13587 7.05188 7.05222 7.24402 7.05315C7.43368 7.05178 7.61404 7.13521 7.73577 7.28065C8.82777 8.57683 9.42745 9.77265 9.42745 10.6482C9.42409 11.7986 8.52494 12.7086 7.37995 12.8194C7.32966 12.8243 7.244 12.8316 7.17807 12.8246ZM10.4967 11.7152C10.4622 11.742 10.4243 11.7636 10.3893 11.7892C10.5239 11.4234 10.5933 11.0368 10.5941 10.647C10.5941 9.17297 9.52367 7.5933 8.62652 6.52755C8.28328 6.12103 7.7784 5.88631 7.24635 5.88587H7.244C6.71088 5.88492 6.20417 6.11802 5.858 6.52345C4.43175 8.19412 3.77667 9.69502 3.91082 10.9848C3.94268 11.2842 4.01916 11.5771 4.13775 11.8539C2.75257 10.8503 1.93638 9.24024 1.94557 7.5297C1.93431 6.41847 2.37252 5.34983 3.16065 4.56637C3.2952 4.8461 3.45678 5.11199 3.64307 5.3603C3.89893 5.7062 4.33602 5.86671 4.75489 5.76862C5.18198 5.67415 5.51357 5.3373 5.60132 4.9088C5.83568 3.67002 6.28355 2.48139 6.9249 1.39598C7.00381 1.27189 7.13416 1.18969 7.28014 1.17198C7.44331 1.15002 7.60778 1.20151 7.72932 1.31255C8.22982 1.76755 8.721 2.18755 9.18764 2.58248C11.1348 4.23623 12.5424 5.4309 12.5424 7.53322C12.5474 9.16928 11.7922 10.7149 10.4984 11.7163L10.4967 11.7152Z" fill="#CE3C3C"/>
</g>
<defs>
<clipPath id="clip0_2_404">
<rect width="14" height="14" fill="white" transform="translate(0.244141)"/>
</clipPath>
</defs>
</svg>
