<svg width="11" height="6" viewBox="0 0 11 6" fill="none" xmlns="http://www.w3.org/2000/svg">
<path d="M2.76032 0.311041C2.80198 0.352357 2.83505 0.401513 2.85761 0.455673C2.88017 0.509832 2.89179 0.567924 2.89179 0.626596C2.89179 0.685268 2.88017 0.743359 2.85761 0.797519C2.83505 0.851678 2.80198 0.900835 2.76032 0.942152L1.14699 2.55549L10.2225 2.55549C10.3404 2.55549 10.4535 2.60231 10.5368 2.68566C10.6202 2.76901 10.667 2.88206 10.667 2.99993V2.99993C10.667 3.1178 10.6202 3.23085 10.5368 3.3142C10.4535 3.39755 10.3404 3.44437 10.2225 3.44437L1.15144 3.44437L2.76032 5.05326C2.81241 5.09136 2.85558 5.14034 2.88682 5.1968C2.91807 5.25326 2.93665 5.31585 2.94126 5.38021C2.94588 5.44458 2.93642 5.50917 2.91355 5.56952C2.89068 5.62986 2.85494 5.68449 2.80883 5.72963C2.76271 5.77477 2.70732 5.80932 2.6465 5.83089C2.58568 5.85245 2.52089 5.86052 2.45664 5.85452C2.39239 5.84852 2.33022 5.8286 2.27444 5.79615C2.21866 5.7637 2.17062 5.71949 2.13366 5.6666L0.391436 3.92437C0.141746 3.67437 0.00149819 3.33549 0.00149819 2.98215C0.00149818 2.62882 0.141746 2.28993 0.391436 2.03993L2.13366 0.297707C2.21868 0.216676 2.33232 0.172593 2.44974 0.175091C2.56717 0.177589 2.67883 0.226467 2.76032 0.311041Z" fill="#303030"/>
</svg>
