<svg width="22" height="22" viewBox="0 0 22 22" fill="none" xmlns="http://www.w3.org/2000/svg">
<g clip-path="url(#clip0_2_3570)">
<path d="M18.3333 3.66667H13.75C13.75 2.69421 13.3637 1.76158 12.6761 1.07394C11.9884 0.386308 11.0558 0 10.0833 0L3.66667 0C2.69421 0 1.76158 0.386308 1.07394 1.07394C0.386308 1.76158 0 2.69421 0 3.66667L0 21.0833C0 21.3264 0.0965771 21.5596 0.268485 21.7315C0.440394 21.9034 0.673552 22 0.916667 22C1.15978 22 1.39294 21.9034 1.56485 21.7315C1.73676 21.5596 1.83333 21.3264 1.83333 21.0833V11.9167H9.16667C9.16667 12.8891 9.55297 13.8218 10.2406 14.5094C10.9282 15.197 11.8609 15.5833 12.8333 15.5833H18.3333C19.3058 15.5833 20.2384 15.197 20.9261 14.5094C21.6137 13.8218 22 12.8891 22 11.9167V7.33333C22 6.36087 21.6137 5.42824 20.9261 4.74061C20.2384 4.05298 19.3058 3.66667 18.3333 3.66667ZM1.83333 10.0833V3.66667C1.83333 3.18044 2.02649 2.71412 2.3703 2.3703C2.71412 2.02649 3.18044 1.83333 3.66667 1.83333H10.0833C10.5696 1.83333 11.0359 2.02649 11.3797 2.3703C11.7235 2.71412 11.9167 3.18044 11.9167 3.66667V8.25C11.9167 8.73623 11.7235 9.20255 11.3797 9.54636C11.0359 9.89018 10.5696 10.0833 10.0833 10.0833H1.83333ZM20.1667 11.9167C20.1667 12.4029 19.9735 12.8692 19.6297 13.213C19.2859 13.5568 18.8196 13.75 18.3333 13.75H12.8333C12.3471 13.75 11.8808 13.5568 11.537 13.213C11.1932 12.8692 11 12.4029 11 11.9167V11.7865C11.7848 11.5839 12.4803 11.1269 12.9779 10.4871C13.4754 9.84721 13.747 9.06053 13.75 8.25V5.5H18.3333C18.8196 5.5 19.2859 5.69315 19.6297 6.03697C19.9735 6.38079 20.1667 6.8471 20.1667 7.33333V11.9167Z" fill="#F2790F"/>
</g>
<defs>
<clipPath id="clip0_2_3570">
<rect width="22" height="22" fill="white"/>
</clipPath>
</defs>
</svg>
