<svg width="18" height="18" viewBox="0 0 18 18" fill="none" xmlns="http://www.w3.org/2000/svg">
<g clip-path="url(#clip0_540_14518)">
<path d="M9 6.94189C7.7595 6.94189 6.75 7.95139 6.75 9.19189C6.75 10.4324 7.7595 11.4419 9 11.4419C10.2405 11.4419 11.25 10.4324 11.25 9.19189C11.25 7.95139 10.2405 6.94189 9 6.94189ZM9 9.94189C8.58675 9.94189 8.25 9.60514 8.25 9.19189C8.25 8.77864 8.58675 8.44189 9 8.44189C9.41325 8.44189 9.75 8.77864 9.75 9.19189C9.75 9.60514 9.41325 9.94189 9 9.94189Z" fill="#808080"/>
<path d="M15.6179 10.755C15.4334 10.6815 15.2601 10.6042 15.0959 10.524C15.8504 9.729 16.5411 8.691 17.0961 7.188C17.4621 6.20025 17.1584 5.0745 16.3409 4.38825L12.6246 1.266C12.0884 0.816 11.3924 0.6495 10.7106 0.80775C10.0431 0.96375 9.50387 1.41225 9.22937 2.03775C8.87762 2.84175 8.48162 3.459 8.05037 3.9705C7.72862 3.5475 7.44887 3.0315 7.21637 2.42925C6.64937 0.954 5.27237 0 3.70862 0H1.58312C0.834617 0 0.140867 0.51075 0.0201167 1.2495C-0.105133 2.0145 0.354617 2.68725 1.01912 2.9145C0.854867 3.1545 0.749867 3.438 0.749867 3.75075C0.749867 4.40475 1.17287 4.956 1.75787 5.16075C1.54487 5.475 1.44737 5.87325 1.52837 6.29475C1.66562 7.01175 2.34512 7.5 3.07487 7.5H3.40412C2.57987 8.19975 1.76987 9.09675 1.05962 10.4093C0.482117 11.475 0.731117 12.8092 1.64987 13.581L5.41112 16.74C5.80637 17.0715 6.29837 17.2493 6.80312 17.2493C6.92837 17.2493 7.05512 17.238 7.18037 17.2162C7.82912 17.1015 8.39237 16.7025 8.72612 16.122C9.27287 15.1702 9.86912 14.4915 10.4991 13.9418V14.925C10.4991 15.6555 10.9874 16.3342 11.7044 16.4715C12.1259 16.5525 12.5241 16.455 12.8384 16.242C13.0431 16.827 13.5944 17.25 14.2484 17.25C14.5611 17.25 14.8446 17.145 15.0846 16.9808C15.3111 17.6453 15.9846 18.105 16.7496 17.9797C17.4876 17.859 17.9984 17.1645 17.9984 16.4167V14.2448C17.9984 12.6975 17.0631 11.328 15.6164 10.7557L15.6179 10.755ZM3.22712 3C2.89412 3 2.59487 2.7585 2.50562 2.4375C2.37587 1.96425 2.73137 1.5 3.22187 1.5H3.70937C4.64687 1.5 5.47412 2.076 5.81762 2.96775C6.12437 3.765 6.51287 4.44525 6.96737 5.00925C6.48587 5.388 5.97362 5.71575 5.43437 6.05775C5.32637 6.126 5.21537 6.19725 5.10587 6.26775C4.10387 6.56025 3.66962 5.5485 3.50462 5.14875C3.25262 4.5375 3.74987 4.5 3.74987 4.5C4.16387 4.5 4.49987 4.164 4.49987 3.75C4.49987 3.336 4.16387 3 3.74987 3H3.22712ZM11.6556 11.283C10.2689 12.162 8.69837 13.158 7.42562 15.375C7.31387 15.5693 7.12937 15.7028 6.91937 15.7395C6.72362 15.7755 6.53087 15.7223 6.37562 15.5925L2.61437 12.4335C2.23862 12.1177 2.13887 11.5665 2.37887 11.124C3.49262 9.066 4.82612 8.22075 6.23762 7.32525C7.81337 6.3255 9.44237 5.29275 10.6034 2.63925C10.7159 2.38125 10.9326 2.2965 11.0519 2.26875C11.2671 2.21775 11.4884 2.271 11.6594 2.41425L15.3771 5.5365C15.7056 5.8125 15.8346 6.2775 15.6906 6.6675C14.6976 9.354 13.2876 10.248 11.6556 11.283ZM16.4999 14.7772C16.4999 15.2677 16.0356 15.6233 15.5624 15.4935C15.2414 15.405 14.9999 15.1058 14.9999 14.7728V14.25C14.9999 13.836 14.6646 13.5 14.2499 13.5C13.8351 13.5 13.4999 13.836 13.4999 14.25C13.4999 14.25 13.4076 14.7083 12.9374 14.4952C12.6816 14.3797 11.7569 14.0857 11.9864 12.852C12.1431 12.7507 12.2999 12.651 12.4589 12.5505C12.9404 12.2452 13.4256 11.9355 13.9019 11.5793C14.2476 11.7863 14.6339 11.9798 15.0659 12.1508C15.9374 12.495 16.4999 13.3177 16.4999 14.2448V14.778V14.7772Z" fill="#808080"/>
</g>
<defs>
<clipPath id="clip0_540_14518">
<rect width="18" height="18" fill="white"/>
</clipPath>
</defs>
</svg>
