<svg width="17" height="16" viewBox="0 0 17 16" fill="none" xmlns="http://www.w3.org/2000/svg">
<g clip-path="url(#clip0_116_328)">
<path d="M10.3327 11.3331C10.3327 11.5099 10.2625 11.6794 10.1375 11.8045C10.0124 11.9295 9.84288 11.9997 9.66607 11.9997H6.9994C6.82259 11.9997 6.65302 11.9295 6.528 11.8045C6.40297 11.6794 6.33274 11.5099 6.33274 11.3331C6.33274 11.1563 6.40297 10.9867 6.528 10.8617C6.65302 10.7366 6.82259 10.6664 6.9994 10.6664H9.66607C9.84288 10.6664 10.0124 10.7366 10.1375 10.8617C10.2625 10.9867 10.3327 11.1563 10.3327 11.3331ZM10.1374 4.86173C10.0124 4.73675 9.84284 4.66654 9.66607 4.66654C9.48929 4.66654 9.31975 4.73675 9.19474 4.86173L8.33274 5.72373L7.47074 4.86173C7.40924 4.79806 7.33567 4.74727 7.25434 4.71233C7.173 4.67739 7.08552 4.659 6.997 4.65823C6.90848 4.65746 6.8207 4.67433 6.73877 4.70785C6.65684 4.74137 6.5824 4.79087 6.51981 4.85347C6.45721 4.91606 6.40771 4.99049 6.37419 5.07243C6.34067 5.15436 6.3238 5.24214 6.32457 5.33066C6.32534 5.41918 6.34373 5.50666 6.37867 5.588C6.41361 5.66933 6.4644 5.7429 6.52807 5.8044L7.39007 6.66639L6.52807 7.5284C6.4644 7.58989 6.41361 7.66346 6.37867 7.74479C6.34373 7.82613 6.32534 7.91361 6.32457 8.00213C6.3238 8.09065 6.34067 8.17843 6.37419 8.26036C6.40771 8.3423 6.45721 8.41673 6.51981 8.47932C6.5824 8.54192 6.65684 8.59142 6.73877 8.62494C6.8207 8.65846 6.90848 8.67533 6.997 8.67456C7.08552 8.67379 7.173 8.6554 7.25434 8.62046C7.33567 8.58552 7.40924 8.53473 7.47074 8.47106L8.33274 7.60906L9.19474 8.47106C9.32047 8.5925 9.48887 8.6597 9.66367 8.65818C9.83847 8.65666 10.0057 8.58655 10.1293 8.46294C10.2529 8.33934 10.323 8.17213 10.3245 7.99733C10.326 7.82253 10.2588 7.65413 10.1374 7.5284L9.2754 6.66639L10.1374 5.8044C10.2624 5.67938 10.3326 5.50984 10.3326 5.33306C10.3326 5.15629 10.2624 4.98675 10.1374 4.86173ZM14.9994 10.6664H12.3327C12.1559 10.6664 11.9864 10.7366 11.8613 10.8617C11.7363 10.9867 11.6661 11.1563 11.6661 11.3331C11.6661 11.5099 11.7363 11.6794 11.8613 11.8045C11.9864 11.9295 12.1559 11.9997 12.3327 11.9997H14.9994C15.1762 11.9997 15.3458 11.9295 15.4708 11.8045C15.5958 11.6794 15.6661 11.5099 15.6661 11.3331C15.6661 11.1563 15.5958 10.9867 15.4708 10.8617C15.3458 10.7366 15.1762 10.6664 14.9994 10.6664ZM14.6087 6.66639L15.4707 5.8044C15.5344 5.7429 15.5852 5.66933 15.6201 5.588C15.6551 5.50666 15.6735 5.41918 15.6742 5.33066C15.675 5.24214 15.6581 5.15436 15.6246 5.07243C15.5911 4.99049 15.5416 4.91606 15.479 4.85347C15.4164 4.79087 15.342 4.74137 15.26 4.70785C15.1781 4.67433 15.0903 4.65746 15.0018 4.65823C14.9133 4.659 14.8258 4.67739 14.7445 4.71233C14.6631 4.74727 14.5896 4.79806 14.5281 4.86173L13.6661 5.72373L12.8041 4.86173C12.7426 4.79806 12.669 4.74727 12.5877 4.71233C12.5063 4.67739 12.4189 4.659 12.3303 4.65823C12.2418 4.65746 12.154 4.67433 12.0721 4.70785C11.9902 4.74137 11.9157 4.79087 11.8531 4.85347C11.7905 4.91606 11.741 4.99049 11.7075 5.07243C11.674 5.15436 11.6571 5.24214 11.6579 5.33066C11.6587 5.41918 11.6771 5.50666 11.712 5.588C11.7469 5.66933 11.7977 5.7429 11.8614 5.8044L12.7234 6.66639L11.8614 7.5284C11.7977 7.58989 11.7469 7.66346 11.712 7.74479C11.6771 7.82613 11.6587 7.91361 11.6579 8.00213C11.6571 8.09065 11.674 8.17843 11.7075 8.26036C11.741 8.3423 11.7905 8.41673 11.8531 8.47932C11.9157 8.54192 11.9902 8.59142 12.0721 8.62494C12.154 8.65846 12.2418 8.67533 12.3303 8.67456C12.4189 8.67379 12.5063 8.6554 12.5877 8.62046C12.669 8.58552 12.7426 8.53473 12.8041 8.47106L13.6661 7.60906L14.5281 8.47106C14.6538 8.5925 14.8222 8.6597 14.997 8.65818C15.1718 8.65666 15.339 8.58655 15.4626 8.46294C15.5862 8.33934 15.6563 8.17213 15.6579 7.99733C15.6594 7.82253 15.5922 7.65413 15.4707 7.5284L14.6087 6.66639ZM4.33274 10.6664H1.66607C1.48926 10.6664 1.31969 10.7366 1.19467 10.8617C1.06964 10.9867 0.999403 11.1563 0.999403 11.3331C0.999403 11.5099 1.06964 11.6794 1.19467 11.8045C1.31969 11.9295 1.48926 11.9997 1.66607 11.9997H4.33274C4.50955 11.9997 4.67912 11.9295 4.80414 11.8045C4.92916 11.6794 4.9994 11.5099 4.9994 11.3331C4.9994 11.1563 4.92916 10.9867 4.80414 10.8617C4.67912 10.7366 4.50955 10.6664 4.33274 10.6664ZM4.80407 4.86173C4.67905 4.73675 4.50951 4.66654 4.33274 4.66654C4.15596 4.66654 3.98642 4.73675 3.8614 4.86173L2.9994 5.72373L2.1374 4.86173C2.07591 4.79806 2.00234 4.74727 1.92101 4.71233C1.83967 4.67739 1.75219 4.659 1.66367 4.65823C1.57515 4.65746 1.48736 4.67433 1.40543 4.70785C1.3235 4.74137 1.24907 4.79087 1.18647 4.85347C1.12388 4.91606 1.07438 4.99049 1.04086 5.07243C1.00733 5.15436 0.990467 5.24214 0.991236 5.33066C0.992005 5.41918 1.0104 5.50666 1.04534 5.588C1.08027 5.66933 1.13106 5.7429 1.19474 5.8044L2.05674 6.66639L1.19474 7.5284C1.13106 7.58989 1.08027 7.66346 1.04534 7.74479C1.0104 7.82613 0.992005 7.91361 0.991236 8.00213C0.990467 8.09065 1.00733 8.17843 1.04086 8.26036C1.07438 8.3423 1.12388 8.41673 1.18647 8.47932C1.24907 8.54192 1.3235 8.59142 1.40543 8.62494C1.48736 8.65846 1.57515 8.67533 1.66367 8.67456C1.75219 8.67379 1.83967 8.6554 1.92101 8.62046C2.00234 8.58552 2.07591 8.53473 2.1374 8.47106L2.9994 7.60906L3.8614 8.47106C3.9229 8.53473 3.99646 8.58552 4.0778 8.62046C4.15914 8.6554 4.24662 8.67379 4.33514 8.67456C4.42365 8.67533 4.51144 8.65846 4.59337 8.62494C4.6753 8.59142 4.74974 8.54192 4.81233 8.47932C4.87493 8.41673 4.92443 8.3423 4.95795 8.26036C4.99147 8.17843 5.00834 8.09065 5.00757 8.00213C5.0068 7.91361 4.98841 7.82613 4.95347 7.74479C4.91853 7.66346 4.86774 7.58989 4.80407 7.5284L3.94207 6.66639L4.80407 5.8044C4.92905 5.67938 4.99926 5.50984 4.99926 5.33306C4.99926 5.15629 4.92905 4.98675 4.80407 4.86173Z" fill="black"/>
</g>
<defs>
<clipPath id="clip0_116_328">
<rect width="16" height="16" fill="white" transform="translate(0.333008)"/>
</clipPath>
</defs>
</svg>
