<svg width="15" height="14" viewBox="0 0 15 14" fill="none" xmlns="http://www.w3.org/2000/svg">
<g clip-path="url(#clip0_2_397)">
<path d="M10.4525 14C9.92331 14.0141 9.39828 13.9032 8.91999 13.6764C8.44171 13.4496 8.02364 13.1132 7.69972 12.6945C7.44797 12.3518 7.11395 12.0779 6.72848 11.8983C6.34301 11.7187 5.91851 11.639 5.49414 11.6667C2.69764 11.6667 0.244141 8.94075 0.244141 5.83333C0.245839 4.28676 0.860966 2.80401 1.95456 1.71042C3.04815 0.616825 4.5309 0.00169843 6.07747 0C11.7778 0 14.2441 6.75967 14.2441 10.2083C14.2429 11.2136 13.843 12.1773 13.1322 12.8881C12.4214 13.5989 11.4577 13.9988 10.4525 14ZM6.07747 1.16667C-0.0288596 1.38775 0.0224739 9.97792 5.49414 10.5C6.07846 10.4732 6.66075 10.5862 7.1926 10.8297C7.72444 11.0732 8.19048 11.4401 8.55197 11.9C9.91464 13.7964 13.1358 12.5842 13.0775 10.2083C13.0775 7.54717 11.0632 1.16667 6.07747 1.16667ZM4.15656 7.99575L8.23989 3.91242C8.34615 3.8024 8.40495 3.65505 8.40362 3.5021C8.40229 3.34915 8.34094 3.20284 8.23278 3.09469C8.12463 2.98653 7.97832 2.92519 7.82537 2.92386C7.67243 2.92253 7.52507 2.98132 7.41506 3.08758L3.33172 7.17092C3.22547 7.28093 3.16667 7.42829 3.168 7.58123C3.16933 7.73418 3.23067 7.88049 3.33883 7.98864C3.44698 8.0968 3.59329 8.15815 3.74624 8.15948C3.89919 8.1608 4.04654 8.10201 4.15656 7.99575ZM6.48989 9.16242L9.98989 5.66242C10.0961 5.5524 10.1549 5.40505 10.1536 5.2521C10.1523 5.09915 10.0909 4.95284 9.98278 4.84469C9.87463 4.73653 9.72832 4.67519 9.57537 4.67386C9.42243 4.67253 9.27507 4.73132 9.16506 4.83758L5.66506 8.33758C5.5588 8.4476 5.5 8.59495 5.50133 8.7479C5.50266 8.90085 5.56401 9.04716 5.67216 9.15531C5.78032 9.26346 5.92663 9.32481 6.07957 9.32614C6.23252 9.32747 6.37987 9.26867 6.48989 9.16242ZM8.82322 10.3291L11.1566 7.99575C11.2628 7.88573 11.3216 7.73838 11.3203 7.58543C11.319 7.43248 11.2576 7.28618 11.1495 7.17802C11.0413 7.06987 10.895 7.00852 10.742 7.00719C10.5891 7.00586 10.4417 7.06466 10.3317 7.17092L7.99839 9.50425C7.89213 9.61427 7.83333 9.76162 7.83466 9.91457C7.83599 10.0675 7.89734 10.2138 8.0055 10.322C8.11365 10.4301 8.25996 10.4915 8.41291 10.4928C8.56586 10.4941 8.71321 10.4353 8.82322 10.3291ZM11.1566 11.4958L11.7399 10.9124C11.8461 10.8024 11.9049 10.655 11.9036 10.5021C11.9023 10.3492 11.8409 10.2028 11.7328 10.0947C11.6246 9.98653 11.4783 9.92519 11.3254 9.92386C11.1724 9.92253 11.0251 9.98132 10.9151 10.0876L10.3317 10.6709C10.2255 10.7809 10.1667 10.9283 10.168 11.0812C10.1693 11.2342 10.2307 11.3805 10.3388 11.4886C10.447 11.5968 10.5933 11.6581 10.7462 11.6595C10.8992 11.6608 11.0465 11.602 11.1566 11.4958ZM3.57322 5.07908L5.32322 3.32908C5.42948 3.21907 5.48828 3.07171 5.48695 2.91877C5.48562 2.76582 5.42427 2.61951 5.31612 2.51136C5.20796 2.4032 5.06166 2.34185 4.90871 2.34052C4.75576 2.33919 4.60841 2.39799 4.49839 2.50425L2.74839 4.25425C2.64213 4.36427 2.58333 4.51162 2.58466 4.66457C2.58599 4.81752 2.64734 4.96382 2.7555 5.07198C2.86365 5.18013 3.00996 5.24148 3.16291 5.24281C3.31585 5.24414 3.46321 5.18534 3.57322 5.07908Z" fill="#D57A34"/>
</g>
<defs>
<clipPath id="clip0_2_397">
<rect width="14" height="14" fill="white" transform="translate(0.244141)"/>
</clipPath>
</defs>
</svg>
