<svg width="12" height="12" viewBox="0 0 12 12" fill="none" xmlns="http://www.w3.org/2000/svg">
<g clip-path="url(#clip0_2_441)">
<path d="M8.99999 6.49957H4.99999C4.72399 6.49957 4.49999 6.27607 4.49999 5.99957C4.49999 5.72307 4.72399 5.49957 4.99999 5.49957H8.99999C9.27649 5.49957 9.49999 5.72307 9.49999 5.99957C9.49999 6.27607 9.27649 6.49957 8.99999 6.49957ZM6.49999 4.49957H8.99999C9.27649 4.49957 9.49999 4.27607 9.49999 3.99957C9.49999 3.72307 9.27649 3.49957 8.99999 3.49957H6.49999C6.22399 3.49957 5.99999 3.72307 5.99999 3.99957C5.99999 4.27607 6.22399 4.49957 6.49999 4.49957ZM4.99999 7.49957C4.72399 7.49957 4.49999 7.72307 4.49999 7.99957C4.49999 8.27607 4.72399 8.49957 4.99999 8.49957H5.49999C5.77599 8.49957 5.99999 8.27607 5.99999 7.99957C5.99999 7.72307 5.77599 7.49957 5.49999 7.49957H4.99999ZM2.24999 4.49957C1.56099 4.49957 0.999989 3.93907 0.999989 3.24957V2.91407C0.747489 2.82507 0.520989 2.66857 0.344989 2.45657C0.0589887 2.11157 -0.0570112 1.65757 0.0269888 1.21207C0.131489 0.658568 0.569989 0.191068 1.11799 0.0490682C1.49349 -0.0479318 1.87099 -0.000431836 2.19799 0.178068C2.70199 -0.0564318 3.29799 -0.0564318 3.80199 0.177568C4.12899 -0.000431836 4.50699 -0.0494318 4.88149 0.0490682C5.42949 0.191068 5.86849 0.659068 5.97249 1.21207C6.05649 1.65807 5.94099 2.11157 5.65449 2.45657C5.47849 2.66857 5.25199 2.82507 4.99949 2.91407V3.24957C4.99949 3.93907 4.43849 4.49957 3.74949 4.49957H2.24999ZM2.24999 3.49957H3.74999C3.88799 3.49957 3.99999 3.38707 3.99999 3.24957V2.49957C3.99999 2.22307 4.22399 1.99957 4.49999 1.99957C4.64899 1.99957 4.78949 1.93357 4.88549 1.81857C4.94149 1.75057 5.02999 1.60607 4.99049 1.39757C4.95699 1.22007 4.80899 1.06307 4.63049 1.01657C4.41599 0.961568 4.26149 1.05157 4.16949 1.13707C3.99499 1.29857 3.73099 1.31457 3.53849 1.17707C3.21399 0.944568 2.78699 0.944568 2.46249 1.17707C2.26999 1.31457 2.00499 1.29857 1.83149 1.13707C1.75899 1.06957 1.64799 0.999568 1.49949 0.999568C1.45899 0.999568 1.41599 1.00507 1.36999 1.01657C1.19199 1.06307 1.04399 1.21957 1.00999 1.39757C0.970989 1.60607 1.05899 1.75057 1.11499 1.81857C1.21049 1.93357 1.35099 1.99957 1.50049 1.99957C1.77649 1.99957 2.00049 2.22307 2.00049 2.49957V3.24957C2.00049 3.38707 2.11199 3.49957 2.24999 3.49957ZM12 2.49957V6.75707C12 7.69207 11.6355 8.57107 10.9745 9.23207L9.23249 10.9741C8.57149 11.6351 7.69249 11.9996 6.75749 11.9996H4.49999C3.12149 11.9996 1.99999 10.8781 1.99999 9.49957V5.99957C1.99999 5.72307 2.22399 5.49957 2.49999 5.49957C2.77599 5.49957 2.99999 5.72307 2.99999 5.99957V9.49957C2.99999 10.3266 3.67299 10.9996 4.49999 10.9996H6.75749C6.83999 10.9996 6.91899 10.9836 6.99999 10.9761V8.49957C6.99999 7.67257 7.67299 6.99957 8.49999 6.99957H10.9765C10.9845 6.91857 11 6.83957 11 6.75707V2.49957C11 1.67257 10.327 0.999568 9.49999 0.999568H7.49999C7.22349 0.999568 6.99999 0.776068 6.99999 0.499568C6.99999 0.223068 7.22349 -0.00043183 7.49999 -0.00043183H9.49999C10.8785 -0.00043183 12 1.12107 12 2.49957ZM10.2675 8.52507C10.425 8.36757 10.5495 8.18757 10.658 7.99957H8.49999C8.22399 7.99957 7.99999 8.22357 7.99999 8.49957V10.6576C8.18799 10.5491 8.36799 10.4246 8.52549 10.2671L10.2675 8.52507Z" fill="#555555"/>
</g>
<defs>
<clipPath id="clip0_2_441">
<rect width="12" height="12" fill="white"/>
</clipPath>
</defs>
</svg>
