<svg width="16" height="16" viewBox="0 0 16 16" fill="none" xmlns="http://www.w3.org/2000/svg">
<g clip-path="url(#clip0_521_2596)">
<path d="M15.8047 14.8621L11.8253 10.8828C12.9098 9.55649 13.4429 7.86416 13.3146 6.15581C13.1862 4.44745 12.4061 2.85379 11.1357 1.70445C9.86531 0.555106 8.20173 -0.061973 6.4891 -0.0191518C4.77647 0.0236694 3.14581 0.723114 1.93442 1.93451C0.723023 3.1459 0.0235778 4.77656 -0.0192434 6.48919C-0.0620646 8.20183 0.555014 9.8654 1.70435 11.1358C2.85369 12.4062 4.44736 13.1863 6.15571 13.3147C7.86407 13.443 9.5564 12.9098 10.8827 11.8254L14.862 15.8048C14.9877 15.9262 15.1561 15.9934 15.3309 15.9919C15.5057 15.9904 15.6729 15.9202 15.7966 15.7966C15.9202 15.673 15.9903 15.5058 15.9918 15.331C15.9933 15.1562 15.9261 14.9878 15.8047 14.8621ZM6.66667 12.0001C5.61184 12.0001 4.58069 11.6873 3.70363 11.1013C2.82657 10.5152 2.14298 9.68228 1.73932 8.70774C1.33565 7.7332 1.23003 6.66085 1.43582 5.62628C1.64161 4.59172 2.14956 3.64141 2.89544 2.89553C3.64132 2.14965 4.59163 1.6417 5.62619 1.43591C6.66076 1.23012 7.73311 1.33574 8.70765 1.73941C9.68219 2.14307 10.5151 2.82666 11.1012 3.70372C11.6872 4.58079 12 5.61193 12 6.66676C11.9984 8.08076 11.436 9.4364 10.4362 10.4362C9.43631 11.4361 8.08067 11.9985 6.66667 12.0001Z" fill="black"/>
</g>
<defs>
<clipPath id="clip0_521_2596">
<rect width="16" height="16" fill="white"/>
</clipPath>
</defs>
</svg>
