<svg width="22" height="22" viewBox="0 0 22 22" fill="none" xmlns="http://www.w3.org/2000/svg">
<path d="M20.3739 11.24C20.3739 10.5356 20.3107 9.85826 20.1933 9.20801H10.8369V13.0508H16.1834C15.9531 14.2926 15.2532 15.3447 14.2011 16.0492V18.5418H17.4117C19.2902 16.8123 20.3739 14.2655 20.3739 11.24Z" fill="#4285F4"/>
<path d="M10.8372 20.9492C13.5195 20.9492 15.7682 20.0596 17.4119 18.5424L14.2013 16.0497C13.3117 16.6458 12.1738 16.998 10.8372 16.998C8.24973 16.998 6.05966 15.2505 5.27845 12.9023H1.95947V15.4762C3.59413 18.723 6.95375 20.9492 10.8372 20.9492Z" fill="#34A853"/>
<path d="M5.27823 12.9017C5.07954 12.3056 4.96665 11.6689 4.96665 11.0142C4.96665 10.3594 5.07954 9.7227 5.27823 9.12664V6.55273H1.95924C1.26384 7.9371 0.901975 9.46496 0.902589 11.0142C0.902589 12.6172 1.28642 14.1345 1.95924 15.4756L5.27823 12.9017Z" fill="#FBBC05"/>
<path d="M10.8372 5.03173C12.2957 5.03173 13.6053 5.53297 14.6348 6.51737L17.4842 3.66802C15.7637 2.06497 13.5149 1.08057 10.8372 1.08057C6.95375 1.08057 3.59413 3.30677 1.95947 6.5535L5.27845 9.1274C6.05966 6.77928 8.24973 5.03173 10.8372 5.03173Z" fill="#EA4335"/>
</svg>
