<svg width="17" height="16" viewBox="0 0 17 16" fill="none" xmlns="http://www.w3.org/2000/svg">
<path d="M8.3373 8.20603C10.7446 8.19203 12.0406 6.89203 12.0853 4.42536C12.044 2.05203 10.678 0.682692 8.3293 0.667358C5.9553 0.682025 4.5813 2.11403 4.5813 4.42536C4.5813 6.80603 5.95596 8.19269 8.3373 8.20669V8.20603ZM8.3293 2.00003C9.95397 2.01069 10.7233 2.78869 10.752 4.42403C10.7206 6.13003 9.99663 6.86202 8.3373 6.87202C6.67396 6.86202 5.9493 6.13336 5.91463 4.43603C5.94797 2.76203 6.6953 2.01003 8.3293 2.00003Z" fill="black"/>
<path d="M8.3292 9.10736C4.7772 9.13003 2.86587 11.048 2.80187 14.6554C2.7952 15.0234 3.08854 15.3274 3.45654 15.334C3.80054 15.3214 4.12787 15.0474 4.1352 14.6794C4.18587 11.8054 5.52187 10.4587 8.3292 10.4414C11.1079 10.4594 12.4825 11.8454 12.5319 14.6787C12.5385 15.0427 12.8359 15.334 13.1985 15.334H13.2105C13.5785 15.3274 13.8719 15.024 13.8659 14.656C13.8045 11.1007 11.8419 9.13069 8.32987 9.10803L8.3292 9.10736Z" fill="black"/>
</svg>
