<svg width="22" height="22" viewBox="0 0 22 22" fill="none" xmlns="http://www.w3.org/2000/svg">
<g clip-path="url(#clip0_2_3572)">
<path d="M11 8.25033C8.47272 8.25033 6.41663 10.3064 6.41663 12.8337C6.41663 15.3609 8.47272 17.417 11 17.417C13.5272 17.417 15.5833 15.3609 15.5833 12.8337C15.5833 10.3064 13.5272 8.25033 11 8.25033ZM11 15.5837C9.4838 15.5837 8.24997 14.3498 8.24997 12.8337C8.24997 11.3175 9.4838 10.0837 11 10.0837C12.5161 10.0837 13.75 11.3175 13.75 12.8337C13.75 14.3498 12.5161 15.5837 11 15.5837ZM21.3281 10.5567C20.8202 9.75916 20.075 8.76824 19.0749 7.82408L20.8505 5.59383C21.1658 5.19783 21.0998 4.62124 20.7047 4.30591C20.306 3.98966 19.7312 4.05749 19.4168 4.45258L17.6559 6.66449C17.0738 6.25658 16.4312 5.88349 15.7245 5.56816L16.632 2.92541C16.796 2.44691 16.5403 1.92533 16.0627 1.76033C15.5796 1.59533 15.0608 1.85108 14.8976 2.32958L13.9947 4.96041C13.3466 4.79174 12.6545 4.67624 11.9185 4.62216V1.83366C11.9185 1.32766 11.5078 0.916992 11.0018 0.916992C10.4958 0.916992 10.0851 1.32766 10.0851 1.83366V4.62308C9.35363 4.67716 8.6643 4.79083 8.01988 4.95858L7.11972 2.32774C6.95563 1.84833 6.43405 1.59258 5.95555 1.75666C5.47705 1.92074 5.2213 2.44233 5.38447 2.92083L6.28922 5.56358C5.56872 5.88349 4.91513 6.26391 4.3248 6.67916L2.56022 4.47091C2.24305 4.07491 1.66647 4.01258 1.27138 4.32699C0.876299 4.64324 0.812133 5.21983 1.12747 5.61583L2.90763 7.84241C1.91763 8.78016 1.17972 9.76191 0.675549 10.553C-0.227367 11.9601 -0.228284 13.7063 0.671883 15.1107C2.09363 17.3418 5.32763 21.0846 11.0018 21.0846C16.676 21.0846 19.909 17.3437 21.3281 15.1162C22.231 13.7091 22.2319 11.9619 21.3299 10.5557L21.3281 10.5567ZM19.7807 14.1289C18.5625 16.042 15.8005 19.2512 11 19.2512C6.19938 19.2512 3.43655 16.0411 2.21555 14.1243C1.70497 13.3296 1.70588 12.3414 2.2183 11.543C3.43747 9.62991 6.2003 6.41974 11 6.41974C15.7996 6.41974 18.5625 9.62899 19.7844 11.5476C20.295 12.3423 20.2941 13.3296 19.7807 14.1289Z" fill="#F2790F"/>
</g>
<defs>
<clipPath id="clip0_2_3572">
<rect width="22" height="22" fill="white"/>
</clipPath>
</defs>
</svg>
