<svg width="14" height="14" viewBox="0 0 14 14" fill="none" xmlns="http://www.w3.org/2000/svg">
<path d="M10.4541 0.878327C10.4539 1.11031 10.3616 1.33272 10.1975 1.49666L5.72213 5.97199C5.58667 6.10742 5.47922 6.2682 5.4059 6.44516C5.33259 6.62212 5.29486 6.81178 5.29486 7.00333C5.29486 7.19487 5.33259 7.38454 5.4059 7.5615C5.47922 7.73845 5.58667 7.89924 5.72213 8.03466L10.1916 12.5042C10.351 12.6692 10.4392 12.8902 10.4372 13.1196C10.4352 13.3491 10.3432 13.5685 10.181 13.7308C10.0187 13.893 9.79928 13.985 9.56986 13.987C9.34043 13.989 9.11941 13.9008 8.95438 13.7414L4.48488 9.27541C3.88391 8.67326 3.54639 7.85727 3.54639 7.00654C3.54639 6.1558 3.88391 5.33981 4.48488 4.73766L8.96021 0.25941C9.08259 0.136959 9.23853 0.0535596 9.40832 0.0197647C9.5781 -0.0140302 9.7541 0.00329835 9.91403 0.0695577C10.074 0.135817 10.2107 0.248029 10.3068 0.391995C10.4029 0.535961 10.4542 0.70521 10.4541 0.878327Z" fill="white"/>
</svg>
