<svg width="8" height="14" viewBox="0 0 8 14" fill="none" xmlns="http://www.w3.org/2000/svg">
<path d="M0.54587 0.878327C0.546074 1.11031 0.638395 1.33272 0.802536 1.49666L5.27787 5.97199C5.41333 6.10742 5.52078 6.2682 5.5941 6.44516C5.66741 6.62212 5.70514 6.81178 5.70514 7.00333C5.70514 7.19487 5.66741 7.38454 5.5941 7.5615C5.52078 7.73845 5.41333 7.89924 5.27787 8.03466L0.808369 12.5042C0.648981 12.6692 0.560786 12.8902 0.562779 13.1196C0.564773 13.3491 0.656796 13.5685 0.819028 13.7308C0.98126 13.893 1.20072 13.985 1.43014 13.987C1.65957 13.989 1.88059 13.9008 2.04562 13.7414L6.51512 9.27541C7.11609 8.67326 7.45361 7.85727 7.45361 7.00654C7.45361 6.1558 7.11609 5.33981 6.51512 4.73766L2.03979 0.25941C1.91741 0.136959 1.76147 0.0535596 1.59168 0.0197647C1.4219 -0.0140302 1.2459 0.00329835 1.08597 0.0695577C0.926034 0.135817 0.789349 0.248029 0.693208 0.391995C0.597067 0.535961 0.545792 0.70521 0.54587 0.878327Z" fill="white"/>
</svg>
